<svg xmlns="http://www.w3.org/2000/svg" class="interactive-avatar__canvas" viewBox="0 0 420 420" aria-hidden="true" focusable="false" width="256" height="256"><defs><clipPath id="oneworks-avatar-export-frame"><path d="M 0 0 H 420 V 420 H 0 Z"/></clipPath></defs><g clip-path="url(#oneworks-avatar-export-frame)"><path d="M 0 0 H 420 V 420 H 0 Z" fill="transparent"/><g><defs><clipPath id="r5-clip"><path d=""/></clipPath><filter id="r5-face-shadow-blur" x="-50%" y="-50%" width="200%" height="200%"><feGaussianBlur stdDeviation="0"/></filter><filter id="r5-avatar-shadow" x="-100%" y="-100%" width="300%" height="300%"><feDropShadow dx="8.485281374238571" dy="8.48528137423857" stdDeviation="8" flood-color="#000000" flood-opacity="0.24"/></filter></defs><g transform="translate(-28.967066165059805 72) translate(210 210) rotate(7) scale(1.72) translate(-210 -210)"><g data-avatar-entity-fragment-root="true" data-avatar-entity-preset="beaver" data-avatar-fragment-composition="compiled-owner-partition" data-avatar-fragment-build-count="1" data-avatar-fragment-build-ms="170.807" data-avatar-fragment-compile-count="6" data-avatar-fragment-compile-ms="248.447" data-avatar-fragment-drag-build-max-ms="0.000" data-avatar-fragment-drag-build-mean-ms="0.000" data-avatar-fragment-drag-build-p95-ms="0.000" data-avatar-fragment-drag-build-samples="0" data-avatar-fragment-quality="full" data-avatar-fragment-raster-size="420" data-avatar-fragment-revision="{&quot;groups&quot;:[{&quot;id&quot;:&quot;anatomy-tooth-left&quot;,&quot;primitiveIds&quot;:[&quot;tooth-left&quot;],&quot;resolution&quot;:28},{&quot;id&quot;:&quot;anatomy-tooth-right&quot;,&quot;primitiveIds&quot;:[&quot;tooth-right&quot;],&quot;resolution&quot;:28},{&quot;id&quot;:&quot;anatomy-ear-left&quot;,&quot;primitiveIds&quot;:[&quot;ear-left&quot;],&quot;resolution&quot;:28},{&quot;id&quot;:&quot;anatomy-ear-right&quot;,&quot;primitiveIds&quot;:[&quot;ear-right&quot;],&quot;resolution&quot;:28},{&quot;id&quot;:&quot;anatomy-cheek-left&quot;,&quot;primitiveIds&quot;:[&quot;cheek-left&quot;],&quot;resolution&quot;:28},{&quot;id&quot;:&quot;anatomy-cheek-right&quot;,&quot;primitiveIds&quot;:[&quot;cheek-right&quot;],&quot;resolution&quot;:28},{&quot;id&quot;:&quot;anatomy-primary&quot;,&quot;primitiveIds&quot;:[&quot;primary&quot;],&quot;resolution&quot;:28}],&quot;id&quot;:&quot;production-beaver&quot;,&quot;primitives&quot;:[{&quot;id&quot;:&quot;tooth-left&quot;,&quot;materialId&quot;:&quot;tooth-left&quot;,&quot;position&quot;:{&quot;x&quot;:-15.120000000000001,&quot;y&quot;:78,&quot;z&quot;:95.4122633627355},&quot;productionShape&quot;:&quot;rounded&quot;,&quot;roundness&quot;:42,&quot;rotation&quot;:{&quot;x&quot;:0,&quot;y&quot;:0,&quot;z&quot;:0},&quot;scale&quot;:{&quot;x&quot;:14.420999999999998,&quot;y&quot;:28.841999999999995,&quot;z&quot;:20.009999999999998},&quot;shape&quot;:&quot;rounded&quot;},{&quot;id&quot;:&quot;tooth-right&quot;,&quot;materialId&quot;:&quot;tooth-right&quot;,&quot;position&quot;:{&quot;x&quot;:15.120000000000001,&quot;y&quot;:78,&quot;z&quot;:95.4122633627355},&quot;productionShape&quot;:&quot;rounded&quot;,&quot;roundness&quot;:42,&quot;rotation&quot;:{&quot;x&quot;:0,&quot;y&quot;:0,&quot;z&quot;:0},&quot;scale&quot;:{&quot;x&quot;:14.420999999999998,&quot;y&quot;:28.841999999999995,&quot;z&quot;:20.009999999999998},&quot;shape&quot;:&quot;rounded&quot;},{&quot;id&quot;:&quot;ear-left&quot;,&quot;materialId&quot;:&quot;ear-left&quot;,&quot;position&quot;:{&quot;x&quot;:-94.5,&quot;y&quot;:-66,&quot;z&quot;:-19.082452672547102},&quot;productionShape&quot;:&quot;sphere&quot;,&quot;roundness&quot;:100,&quot;rotation&quot;:{&quot;x&quot;:0,&quot;y&quot;:-0.15707963267948966,&quot;z&quot;:-0.13962634015954636},&quot;scale&quot;:{&quot;x&quot;:21.9203,&quot;y&quot;:24.7698,&quot;z&quot;:29.64515147540994},&quot;shape&quot;:&quot;sphere&quot;},{&quot;id&quot;:&quot;ear-right&quot;,&quot;materialId&quot;:&quot;ear-right&quot;,&quot;position&quot;:{&quot;x&quot;:94.5,&quot;y&quot;:-66,&quot;z&quot;:-19.082452672547102},&quot;productionShape&quot;:&quot;sphere&quot;,&quot;roundness&quot;:100,&quot;rotation&quot;:{&quot;x&quot;:0,&quot;y&quot;:0.15707963267948966,&quot;z&quot;:0.13962634015954636},&quot;scale&quot;:{&quot;x&quot;:21.9203,&quot;y&quot;:24.7698,&quot;z&quot;:29.64515147540994},&quot;shape&quot;:&quot;sphere&quot;},{&quot;id&quot;:&quot;cheek-left&quot;,&quot;materialId&quot;:&quot;cheek-left&quot;,&quot;position&quot;:{&quot;x&quot;:-47.88,&quot;y&quot;:47,&quot;z&quot;:62.85984409780222},&quot;productionShape&quot;:&quot;sphere&quot;,&quot;roundness&quot;:100,&quot;rotation&quot;:{&quot;x&quot;:0,&quot;y&quot;:0,&quot;z&quot;:0},&quot;scale&quot;:{&quot;x&quot;:37.53,&quot;y&quot;:34.75,&quot;z&quot;:48.36840503882674},&quot;shape&quot;:&quot;sphere&quot;},{&quot;id&quot;:&quot;cheek-right&quot;,&quot;materialId&quot;:&quot;cheek-right&quot;,&quot;position&quot;:{&quot;x&quot;:47.88,&quot;y&quot;:47,&quot;z&quot;:62.85984409780222},&quot;productionShape&quot;:&quot;sphere&quot;,&quot;roundness&quot;:100,&quot;rotation&quot;:{&quot;x&quot;:0,&quot;y&quot;:0,&quot;z&quot;:0},&quot;scale&quot;:{&quot;x&quot;:37.53,&quot;y&quot;:34.75,&quot;z&quot;:48.36840503882674},&quot;shape&quot;:&quot;sphere&quot;},{&quot;bottomTaper&quot;:11,&quot;id&quot;:&quot;primary&quot;,&quot;materialId&quot;:&quot;primary&quot;,&quot;position&quot;:{&quot;x&quot;:0,&quot;y&quot;:13,&quot;z&quot;:0},&quot;productionShape&quot;:&quot;ellipse&quot;,&quot;roundness&quot;:95,&quot;rotation&quot;:{&quot;x&quot;:0,&quot;y&quot;:0,&quot;z&quot;:0},&quot;scale&quot;:{&quot;x&quot;:152.2962,&quot;y&quot;:89.68,&quot;z&quot;:110.92517488830028},&quot;shape&quot;:&quot;ellipse&quot;}],&quot;resolution&quot;:28,&quot;smoothUnionPairs&quot;:[],&quot;smoothUnionRadius&quot;:0}:420:0.024529:-0.237914" data-avatar-fragment-release-build-ms="0.000" data-avatar-fragment-settle-build-ms="0.000" data-avatar-fragment-path-characters="73867" data-avatar-fragment-path-serialization-ms="0.002" data-avatar-fragment-candidate-tests="250137" data-avatar-fragment-contour-ms="12.060" data-avatar-fragment-curve-segments="2143" data-avatar-fragment-contour-segments="2111" data-avatar-fragment-depth-owner-ms="16.097" data-avatar-fragment-line-segments="0" data-avatar-fragment-max-curve-error="0.125" data-avatar-fragment-shared-curve-reuse="416" data-avatar-fragment-null-owner-pixels="0" data-avatar-fragment-transform-ms="13.358"><defs><filter id="r5-entity-face-shadow" x="-50%" y="-50%" width="200%" height="200%"><feGaussianBlur stdDeviation="0"/></filter><clipPath id="r5-compiled-owner-0" clipPathUnits="userSpaceOnUse"><path d="M182.52 259.02Q182.81 249.01 183.11 239.00Q183.13 238.50 183.18 238.00Q183.14 237.64 183.36 237.35Q183.62 237.15 183.74 236.85Q184.02 236.47 183.99 236.00Q184.02 234.50 184.14 233.00Q184.11 232.62 184.35 232.33Q184.60 232.13 184.74 231.83Q185.02 231.04 185.27 230.24Q185.49 230.00 185.70 229.74Q185.93 228.96 186.25 228.21Q186.75 227.70 187.18 227.13Q187.51 226.76 188.00 226.68Q188.29 226.66 188.56 226.56Q188.70 226.11 189.09 225.85Q189.50 225.57 190.00 225.59Q190.50 225.65 191.00 225.68Q191.34 225.77 191.65 225.61Q191.82 225.31 192.15 225.20Q192.53 224.92 193.00 224.94Q196.00 225.12 199.00 225.24Q200.05 225.08 201.00 224.62Q201.54 224.69 201.94 225.06Q202.30 225.19 202.44 225.54Q203.72 225.60 205.00 225.60Q205.54 225.68 205.95 226.05Q206.31 226.18 206.45 226.54Q206.72 226.61 207.00 226.60Q207.54 226.68 207.95 227.05Q208.44 227.56 208.94 228.06Q209.32 228.46 209.40 229.00Q209.40 229.28 209.46 229.54Q209.82 229.68 209.96 230.04Q210.33 230.45 210.42 231.00Q210.41 231.77 210.47 232.54Q210.83 232.68 210.96 233.04Q211.34 233.45 211.43 234.00Q211.43 236.27 211.47 238.54Q211.83 238.68 211.96 239.04Q212.34 239.45 212.43 240.00Q212.47 253.50 212.48 267.00Q212.37 267.56 211.99 267.99Q211.85 268.35 211.49 268.49Q211.47 271.74 211.48 275.00Q211.38 275.57 210.99 275.99Q210.85 276.35 210.49 276.49Q210.47 277.74 210.48 279.00Q210.38 279.56 209.99 279.99Q209.35 280.85 208.49 281.49Q208.47 281.74 208.48 282.00Q208.38 282.57 207.99 282.99Q207.57 283.38 207.00 283.48Q206.74 283.47 206.49 283.49Q205.85 284.35 204.99 284.99Q204.57 285.38 204.00 285.48Q197.00 285.48 190.00 285.48Q189.43 285.38 189.01 284.99Q188.15 284.35 187.51 283.49Q187.26 283.47 187.00 283.48Q186.43 283.38 186.01 282.99Q185.62 282.57 185.52 282.00Q185.53 281.74 185.51 281.49Q185.15 281.35 185.01 280.99Q184.62 280.57 184.52 280.00Q184.53 279.74 184.51 279.49Q184.15 279.35 184.01 278.99Q183.62 278.57 183.52 278.00Q183.53 277.24 183.51 276.49Q183.15 276.35 183.01 275.99Q182.63 275.56 182.53 275.00Q182.52 269.50 182.52 264.00Q182.65 263.00 182.67 262.00Q182.56 260.51 182.52 259.02Z" transform="scale(1)"/></clipPath><clipPath id="r5-compiled-owner-1" clipPathUnits="userSpaceOnUse"><path d="M235.92 225.85Q236.31 226.10 236.44 226.55Q236.71 226.65 237.00 226.67Q237.49 226.75 237.83 227.12Q238.26 227.69 238.76 228.20Q239.09 228.94 239.30 229.73Q239.54 229.97 239.75 230.23Q240.03 231.00 240.27 231.79Q240.45 232.07 240.69 232.29Q240.96 232.60 240.92 233.00Q241.02 234.50 241.03 236.00Q241.00 236.45 241.27 236.81Q241.42 237.10 241.68 237.31Q241.93 237.61 241.89 238.00Q241.97 239.50 242.01 241.00Q242.21 250.92 242.48 260.84Q242.43 262.42 242.31 264.00Q242.33 265.01 242.48 266.00Q242.48 268.00 242.48 270.00Q242.38 270.57 241.99 270.99Q241.85 271.35 241.49 271.49Q241.47 273.74 241.48 276.00Q241.38 276.57 240.99 276.99Q240.85 277.35 240.49 277.49Q240.47 278.24 240.48 279.00Q240.38 279.57 239.99 279.99Q239.85 280.35 239.49 280.49Q239.47 280.74 239.48 281.00Q239.38 281.57 238.99 281.99Q238.10 283.10 236.99 283.99Q236.57 284.38 236.00 284.48Q235.75 284.47 235.49 284.49Q235.35 284.85 234.99 284.99Q234.57 285.38 234.00 285.48Q227.00 285.48 220.00 285.48Q219.43 285.38 219.01 284.99Q218.15 284.35 217.51 283.49Q217.26 283.47 217.00 283.48Q216.43 283.38 216.01 282.99Q215.62 282.57 215.52 282.00Q215.53 281.74 215.51 281.49Q215.15 281.35 215.01 280.99Q214.62 280.57 214.52 280.00Q214.53 279.74 214.51 279.49Q214.15 279.35 214.01 278.99Q213.62 278.56 213.52 278.00Q213.53 276.24 213.51 274.49Q213.15 274.35 213.01 273.99Q212.63 273.56 212.53 273.00Q212.51 256.50 212.58 240.00Q212.67 239.45 213.04 239.04Q213.17 238.68 213.53 238.54Q213.57 236.27 213.58 234.00Q213.67 233.45 214.05 233.05Q214.18 232.68 214.54 232.55Q214.59 231.77 214.60 231.00Q214.68 230.46 215.05 230.05Q216.54 228.54 218.05 227.05Q218.45 226.67 219.00 226.59Q219.28 226.60 219.55 226.54Q219.69 226.18 220.05 226.05Q220.46 225.68 221.00 225.60Q221.50 225.59 222.00 225.59Q222.95 226.05 224.00 226.20Q227.00 226.09 230.00 225.94Q232.50 225.81 235.00 225.60Q235.50 225.57 235.92 225.85Z" transform="scale(1)"/></clipPath><clipPath id="r5-compiled-owner-2" clipPathUnits="userSpaceOnUse"><path d="M136.17 134.51Q135.52 134.61 135.01 135.01Q134.65 135.15 134.51 135.51Q133.76 135.53 133.00 135.53Q132.44 135.63 132.01 136.01Q131.65 136.15 131.51 136.51Q130.76 136.53 130.00 136.53Q129.44 136.63 129.02 137.02Q128.66 137.15 128.52 137.51Q128.26 137.54 128.00 137.53Q127.44 137.63 127.02 138.02Q126.66 138.15 126.52 138.51Q125.76 138.54 125.00 138.54Q124.44 138.64 124.02 139.02Q123.66 139.16 123.52 139.52Q123.26 139.55 123.00 139.54Q122.44 139.64 122.02 140.02Q121.66 140.16 121.52 140.52Q121.26 140.54 121.00 140.54Q120.44 140.64 120.02 141.02Q119.66 141.16 119.52 141.52Q119.26 141.54 119.00 141.54Q118.44 141.63 118.02 142.02Q117.66 142.15 117.52 142.52Q117.26 142.54 117.00 142.53Q116.44 142.63 116.02 143.02Q115.66 143.15 115.52 143.52Q114.76 143.54 114.00 143.54Q113.44 143.64 113.03 144.03Q112.66 144.16 112.53 144.52Q112.26 144.54 112.00 144.54Q111.44 144.64 111.02 145.02Q110.66 145.16 110.52 145.52Q110.26 145.54 110.00 145.54Q109.44 145.63 109.02 146.02Q108.66 146.16 108.52 146.52Q108.26 146.54 108.00 146.54Q107.44 146.64 107.02 147.02Q106.66 147.16 106.52 147.52Q106.26 147.54 106.00 147.54Q105.44 147.64 105.02 148.02Q104.16 148.65 103.52 149.52Q103.26 149.54 103.00 149.53Q102.44 149.63 102.02 150.02Q101.15 150.65 100.52 151.51Q100.26 151.53 100.00 151.53Q99.44 151.63 99.01 152.01Q98.15 152.65 97.51 153.51Q97.19 153.49 97.00 153.76Q96.45 154.04 95.83 154.00C95.82 153.62 95.88 153.22 95.79 152.85C95.71 152.50 95.46 152.21 95.32 151.87C94.70 150.41 94.30 149.40 93.92 147.87C93.04 144.29 92.76 140.79 93.15 137.11C93.72 131.77 96.24 126.02 100.34 122.43C101.06 121.80 101.80 121.18 102.56 120.57C102.73 120.43 102.91 120.30 103.11 120.20C103.57 119.96 104.06 119.78 104.52 119.53C105.43 119.04 106.23 118.48 107.20 118.10C109.58 117.16 112.51 117.06 115.03 117.20C117.43 117.34 120.18 117.64 122.37 118.75C126.89 121.05 130.60 124.27 133.21 128.66C134.24 130.37 134.70 131.46 135.41 133.25C135.87 134.44 135.42 134.02 136.17 134.51Z" transform="scale(1)"/></clipPath><clipPath id="r5-compiled-owner-3" clipPathUnits="userSpaceOnUse"><path d="M323.17 154.17Q322.69 153.48 321.99 153.01Q321.56 152.63 321.00 152.53Q320.74 152.53 320.49 152.51Q319.85 151.65 318.98 151.02Q318.56 150.63 318.00 150.53Q317.74 150.53 317.48 150.51Q316.84 149.65 315.98 149.02Q315.56 148.64 315.00 148.54Q314.74 148.54 314.48 148.52Q314.34 148.15 313.98 148.02Q313.56 147.63 313.00 147.54Q312.74 147.54 312.48 147.52Q312.34 147.15 311.98 147.02Q311.56 146.63 311.00 146.53Q310.74 146.54 310.48 146.52Q310.35 146.15 309.98 146.02Q309.56 145.63 309.00 145.53Q308.74 145.54 308.48 145.52Q308.34 145.15 307.98 145.02Q307.56 144.64 307.00 144.54Q306.24 144.54 305.48 144.51Q305.35 144.15 304.98 144.02Q304.56 143.63 304.00 143.53Q303.74 143.54 303.48 143.51Q303.35 143.15 302.98 143.02Q302.56 142.63 302.00 142.53Q301.74 142.54 301.48 142.51Q301.34 142.15 300.98 142.02Q300.56 141.63 300.00 141.53Q299.74 141.54 299.48 141.52Q299.34 141.15 298.98 141.02Q298.56 140.63 298.00 140.53Q297.74 140.54 297.48 140.52Q297.34 140.15 296.98 140.02Q296.56 139.63 296.00 139.54Q295.74 139.54 295.48 139.52Q295.34 139.15 294.98 139.02Q294.56 138.64 294.00 138.54Q293.24 138.54 292.48 138.51Q292.35 138.15 291.98 138.02Q291.56 137.63 291.00 137.53Q290.74 137.53 290.48 137.51Q290.35 137.15 289.98 137.02Q289.56 136.63 289.00 136.53Q288.24 136.53 287.49 136.51Q287.35 136.15 286.99 136.01Q286.56 135.62 286.00 135.52Q285.25 135.53 284.49 135.51Q284.27 135.06 283.83 134.83C283.62 133.50 283.58 134.09 284.50 132.21C285.43 130.31 286.54 128.47 287.89 126.83C290.38 123.83 293.46 121.27 297.08 119.73C300.49 118.27 304.29 118.13 307.94 118.41C309.20 118.51 310.62 118.63 311.81 119.10C313.13 119.62 315.81 121.03 316.59 121.56C324.23 126.71 327.49 137.08 325.90 145.90C325.40 148.68 324.63 151.71 323.17 154.17Z" transform="scale(1)"/></clipPath><clipPath id="r5-compiled-owner-4" clipPathUnits="userSpaceOnUse"><path d="M189.09 225.85Q188.70 226.11 188.56 226.56Q188.29 226.66 188.00 226.68Q187.51 226.76 187.18 227.13Q186.75 227.70 186.25 228.21Q185.93 228.96 185.70 229.74Q185.49 230.00 185.27 230.24Q185.02 231.04 184.74 231.83Q184.60 232.13 184.35 232.33Q184.11 232.62 184.14 233.00Q184.02 234.50 183.99 236.00Q184.02 236.47 183.74 236.85Q183.62 237.15 183.36 237.35Q183.14 237.64 183.18 238.00Q183.13 238.50 183.11 239.00Q182.81 249.01 182.52 259.02Q181.28 259.98 180.00 260.88Q179.62 261.15 179.21 261.36Q178.96 261.49 178.71 261.58Q178.30 261.74 178.03 262.08Q177.20 262.75 176.42 263.46Q174.63 264.10 172.79 264.59Q171.90 264.76 171.00 264.80Q169.98 264.98 169.00 265.28Q168.25 265.43 167.48 265.49Q167.24 265.58 166.98 265.64Q166.42 265.74 166.01 266.14Q165.71 266.26 165.51 266.50Q163.75 266.58 162.00 266.79Q161.50 266.83 161.00 266.81Q160.49 266.84 160.00 266.71Q159.37 266.64 158.79 266.39Q158.41 266.22 158.00 266.33Q157.50 266.37 157.00 266.42Q156.50 266.52 156.00 266.39Q155.00 266.22 154.00 266.08Q153.00 266.05 152.00 266.10Q151.59 266.08 151.31 265.77Q151.17 265.43 150.81 265.34Q150.44 265.09 150.00 265.16Q149.51 265.15 149.14 264.83Q148.82 264.71 148.64 264.42Q148.35 264.20 148.00 264.08Q147.24 263.82 146.51 263.50Q146.27 263.32 146.00 263.22Q145.23 262.93 144.46 262.64Q144.32 262.30 143.96 262.18Q142.71 261.41 141.48 260.60Q141.34 260.23 140.98 260.09Q139.88 259.16 138.71 258.32Q138.38 258.15 138.21 257.82Q136.23 255.77 134.47 253.54Q133.50 252.03 132.48 250.54Q132.00 249.51 131.50 248.50Q131.07 247.39 130.57 246.31Q130.01 244.42 129.50 242.51Q129.25 241.26 129.03 240.00Q128.85 239.00 128.74 238.00Q128.63 237.00 128.63 236.00Q128.63 235.00 128.68 234.00Q128.69 233.50 128.79 233.00Q129.08 231.08 129.43 229.17Q129.88 227.23 130.44 225.33Q130.98 223.92 131.51 222.51Q131.88 221.80 132.26 221.08Q132.80 220.16 133.35 219.26Q133.96 218.40 134.50 217.51Q136.04 215.55 137.64 213.65Q138.37 212.90 139.15 212.20Q140.82 210.85 142.46 209.47Q144.09 208.53 145.73 207.62Q147.35 206.85 149.00 206.16Q149.85 205.80 150.74 205.57Q152.36 205.16 154.00 204.85Q155.08 204.65 156.16 204.44Q157.58 204.31 159.00 204.24Q160.00 204.19 161.00 204.25Q162.41 204.32 163.81 204.46Q165.42 204.69 167.00 205.03Q168.04 205.31 169.06 205.64Q170.03 205.93 170.98 206.30Q172.30 206.86 173.62 207.44Q174.80 208.16 176.00 208.86Q177.00 209.48 177.96 210.17Q178.76 210.80 179.54 211.46Q181.05 212.96 182.53 214.47Q183.48 215.54 184.38 216.65Q185.04 217.46 185.63 218.33Q186.05 218.95 186.44 219.59Q187.14 220.78 187.77 222.00Q188.44 223.47 188.96 225.00Q189.18 225.40 189.09 225.85Z" transform="scale(1)"/></clipPath><clipPath id="r5-compiled-owner-5" clipPathUnits="userSpaceOnUse"><path d="M242.48 260.84Q242.21 250.92 242.01 241.00Q241.97 239.50 241.89 238.00Q241.93 237.61 241.68 237.31Q241.42 237.10 241.27 236.81Q241.00 236.45 241.03 236.00Q241.02 234.50 240.92 233.00Q240.96 232.60 240.69 232.29Q240.45 232.07 240.27 231.79Q240.03 231.00 239.75 230.23Q239.54 229.97 239.30 229.73Q239.09 228.94 238.76 228.20Q238.26 227.69 237.83 227.12Q237.49 226.75 237.00 226.67Q236.71 226.65 236.44 226.55Q236.31 226.10 235.92 225.85Q235.84 225.40 236.07 225.00Q236.65 223.55 237.31 222.13Q237.80 221.17 238.35 220.24Q238.91 219.36 239.48 218.48Q240.59 217.10 241.73 215.76Q243.50 214.01 245.22 212.21Q245.69 211.72 246.25 211.33Q247.45 210.45 248.66 209.60Q249.57 209.03 250.52 208.51Q251.48 207.99 252.46 207.48Q253.87 206.97 255.27 206.41Q256.87 205.91 258.50 205.50Q259.25 205.34 260.00 205.25Q261.50 205.07 263.00 204.93Q264.00 204.91 265.00 204.88Q266.00 204.86 267.00 204.94Q268.00 205.03 269.00 205.13Q269.90 205.24 270.79 205.44Q272.41 205.81 274.00 206.29Q275.02 206.59 276.00 206.99Q277.01 207.42 278.00 207.91Q279.38 208.59 280.71 209.37Q281.58 209.97 282.49 210.50Q283.58 211.42 284.65 212.36Q285.69 213.31 286.68 214.31Q287.62 215.38 288.49 216.51Q289.35 217.73 290.20 218.95Q290.78 219.86 291.32 220.80Q291.85 221.79 292.37 222.78Q292.93 224.19 293.46 225.60Q293.70 226.29 293.87 227.00Q294.18 228.33 294.46 229.67Q294.67 230.83 294.81 232.00Q295.01 233.49 295.08 235.00Q295.10 236.00 295.03 237.00Q294.98 238.00 294.87 239.00Q294.65 240.51 294.33 242.00Q293.87 243.65 293.43 245.30Q292.99 246.48 292.55 247.66Q291.86 248.89 291.32 250.19Q291.10 250.57 291.01 251.00Q290.99 251.37 290.69 251.58Q290.34 251.73 290.19 252.08Q289.90 252.41 289.69 252.79Q289.09 254.02 288.22 255.08Q287.70 255.63 287.10 256.07Q286.02 257.00 285.14 258.12Q284.76 258.76 284.27 259.33Q284.02 259.55 283.77 259.77Q283.47 260.15 283.00 260.27Q282.78 260.45 282.49 260.49Q281.97 261.03 281.28 261.31Q280.90 261.95 280.29 262.37Q280.04 262.58 279.79 262.79Q279.46 263.10 279.00 263.13Q278.57 263.12 278.20 263.34Q277.86 263.44 277.70 263.76Q277.41 264.04 277.00 264.03Q276.50 263.99 276.08 264.26Q275.73 264.36 275.58 264.68Q274.76 264.70 274.00 265.03Q273.63 265.14 273.34 265.40Q273.14 265.68 272.84 265.83Q272.46 266.11 272.00 266.08Q271.48 266.00 271.02 266.24Q270.68 266.28 270.52 266.58Q270.31 266.81 270.00 266.81Q269.51 267.00 269.00 266.87Q267.50 266.83 266.00 266.71Q265.00 266.79 264.00 266.81Q263.50 266.75 263.00 266.71Q262.01 266.91 261.00 267.04Q259.00 266.98 257.00 266.94Q256.47 266.96 256.00 266.73Q255.71 266.67 255.44 266.53Q255.21 266.36 254.94 266.25Q254.52 265.96 254.00 265.96Q253.50 265.92 253.00 265.88Q252.53 265.91 252.13 265.67Q251.59 265.38 251.00 265.22Q249.67 264.89 248.35 264.55Q248.09 264.46 247.85 264.36Q247.09 264.02 246.41 263.56Q244.69 262.26 243.00 260.92Q242.77 260.72 242.48 260.84Z" transform="scale(1)"/></clipPath><clipPath id="r5-compiled-owner-6" clipPathUnits="userSpaceOnUse"><path d="M283.83 134.83Q284.27 135.06 284.49 135.51Q285.25 135.53 286.00 135.52Q286.56 135.62 286.99 136.01Q287.35 136.15 287.49 136.51Q288.24 136.53 289.00 136.53Q289.56 136.63 289.98 137.02Q290.35 137.15 290.48 137.51Q290.74 137.53 291.00 137.53Q291.56 137.63 291.98 138.02Q292.35 138.15 292.48 138.51Q293.24 138.54 294.00 138.54Q294.56 138.64 294.98 139.02Q295.34 139.15 295.48 139.52Q295.74 139.54 296.00 139.54Q296.56 139.63 296.98 140.02Q297.34 140.15 297.48 140.52Q297.74 140.54 298.00 140.53Q298.56 140.63 298.98 141.02Q299.34 141.15 299.48 141.52Q299.74 141.54 300.00 141.53Q300.56 141.63 300.98 142.02Q301.34 142.15 301.48 142.51Q301.74 142.54 302.00 142.53Q302.56 142.63 302.98 143.02Q303.35 143.15 303.48 143.51Q303.74 143.54 304.00 143.53Q304.56 143.63 304.98 144.02Q305.35 144.15 305.48 144.51Q306.24 144.54 307.00 144.54Q307.56 144.64 307.98 145.02Q308.34 145.15 308.48 145.52Q308.74 145.54 309.00 145.53Q309.56 145.63 309.98 146.02Q310.35 146.15 310.48 146.52Q310.74 146.54 311.00 146.53Q311.56 146.63 311.98 147.02Q312.34 147.15 312.48 147.52Q312.74 147.54 313.00 147.54Q313.56 147.63 313.98 148.02Q314.34 148.15 314.48 148.52Q314.74 148.54 315.00 148.54Q315.56 148.64 315.98 149.02Q316.84 149.65 317.48 150.51Q317.74 150.53 318.00 150.53Q318.56 150.63 318.98 151.02Q319.85 151.65 320.49 152.51Q320.74 152.53 321.00 152.53Q321.56 152.63 321.99 153.01Q322.69 153.48 323.17 154.17C324.45 156.99 323.15 154.36 329.73 158.90C330.40 159.36 331.04 159.86 331.67 160.38C332.39 160.98 333.08 161.61 333.76 162.26C337.37 165.64 341.23 168.79 344.56 172.46C351.85 180.51 353.00 183.84 357.62 193.19C357.99 193.96 358.64 195.65 358.80 196.23C359.74 199.52 360.58 202.84 361.45 206.15C361.53 206.44 361.63 206.74 361.65 207.04C361.87 210.37 362.02 213.69 362.16 217.02C362.17 217.32 362.14 217.63 362.09 217.93C361.51 221.27 360.91 224.62 360.26 227.96C360.07 228.92 359.93 229.90 359.58 230.82C358.25 234.22 356.72 237.55 355.23 240.88C355.09 241.20 354.87 241.48 354.67 241.77C352.36 245.10 350.11 248.48 347.71 251.75C347.02 252.69 346.21 253.55 345.39 254.39C336.01 263.95 332.62 267.79 320.76 275.17C317.63 277.12 302.61 285.56 295.41 288.24C290.62 290.03 285.73 291.53 280.90 293.22C275.57 295.08 270.38 297.21 264.86 298.49C260.25 299.56 251.90 300.76 247.97 301.21C236.71 302.51 225.33 303.00 214.00 303.09C204.67 303.16 195.32 302.92 186.01 302.28C176.34 301.61 166.70 300.59 157.19 298.67C153.79 297.99 150.51 296.98 147.24 295.84C140.52 293.47 133.82 291.06 127.12 288.67C125.78 288.19 124.42 287.75 123.10 287.23C122.28 286.91 121.46 286.56 120.68 286.15C114.61 282.97 108.57 279.70 102.53 276.45C96.09 273.00 88.44 266.96 83.91 263.10C74.40 254.98 72.71 251.70 65.90 241.73C63.44 238.13 60.83 231.74 59.94 228.83C58.43 223.84 57.82 219.83 58.01 215.03C58.15 211.72 58.00 208.38 58.52 205.12C59.89 196.49 62.45 191.96 66.47 184.24C68.61 180.13 74.40 172.82 76.04 171.03C79.53 167.22 83.48 163.84 87.36 160.43C90.19 157.95 92.71 157.15 95.68 154.77C95.89 154.61 95.78 154.26 95.83 154.00Q96.45 154.04 97.00 153.76Q97.19 153.49 97.51 153.51Q98.15 152.65 99.01 152.01Q99.44 151.63 100.00 151.53Q100.26 151.53 100.52 151.51Q101.15 150.65 102.02 150.02Q102.44 149.63 103.00 149.53Q103.26 149.54 103.52 149.52Q104.16 148.65 105.02 148.02Q105.44 147.64 106.00 147.54Q106.26 147.54 106.52 147.52Q106.66 147.16 107.02 147.02Q107.44 146.64 108.00 146.54Q108.26 146.54 108.52 146.52Q108.66 146.16 109.02 146.02Q109.44 145.63 110.00 145.54Q110.26 145.54 110.52 145.52Q110.66 145.16 111.02 145.02Q111.44 144.64 112.00 144.54Q112.26 144.54 112.53 144.52Q112.66 144.16 113.03 144.03Q113.44 143.64 114.00 143.54Q114.76 143.54 115.52 143.52Q115.66 143.15 116.02 143.02Q116.44 142.63 117.00 142.53Q117.26 142.54 117.52 142.52Q117.66 142.15 118.02 142.02Q118.44 141.63 119.00 141.54Q119.26 141.54 119.52 141.52Q119.66 141.16 120.02 141.02Q120.44 140.64 121.00 140.54Q121.26 140.54 121.52 140.52Q121.66 140.16 122.02 140.02Q122.44 139.64 123.00 139.54Q123.26 139.55 123.52 139.52Q123.66 139.16 124.02 139.02Q124.44 138.64 125.00 138.54Q125.76 138.54 126.52 138.51Q126.66 138.15 127.02 138.02Q127.44 137.63 128.00 137.53Q128.26 137.54 128.52 137.51Q128.66 137.15 129.02 137.02Q129.44 136.63 130.00 136.53Q130.76 136.53 131.51 136.51Q131.65 136.15 132.01 136.01Q132.44 135.63 133.00 135.53Q133.76 135.53 134.51 135.51Q134.65 135.15 135.01 135.01Q135.52 134.61 136.17 134.51C137.86 135.18 136.64 134.92 139.20 134.30C142.50 133.49 145.82 132.77 149.12 131.97C153.13 131.00 157.11 129.93 161.12 128.99C162.09 128.76 163.10 128.70 164.08 128.47C166.41 127.94 168.72 127.29 171.06 126.72C171.40 126.63 171.74 126.56 172.09 126.51C176.07 125.97 180.04 125.37 184.03 124.95C194.61 123.85 205.37 123.46 216.00 123.77C219.65 123.88 223.31 124.07 226.96 124.32C228.63 124.44 230.28 124.75 231.95 124.90C232.96 124.98 233.98 124.95 234.99 125.02C239.95 125.35 245.01 126.06 249.86 127.09C260.92 129.45 271.78 132.73 282.82 135.19C283.17 135.26 283.49 134.95 283.83 134.83ZM182.52 259.02Q182.56 260.51 182.67 262.00Q182.65 263.00 182.52 264.00Q182.52 269.50 182.53 275.00Q182.63 275.56 183.01 275.99Q183.15 276.35 183.51 276.49Q183.53 277.24 183.52 278.00Q183.62 278.57 184.01 278.99Q184.15 279.35 184.51 279.49Q184.53 279.74 184.52 280.00Q184.62 280.57 185.01 280.99Q185.15 281.35 185.51 281.49Q185.53 281.74 185.52 282.00Q185.62 282.57 186.01 282.99Q186.43 283.38 187.00 283.48Q187.26 283.47 187.51 283.49Q188.15 284.35 189.01 284.99Q189.43 285.38 190.00 285.48Q197.00 285.48 204.00 285.48Q204.57 285.38 204.99 284.99Q205.85 284.35 206.49 283.49Q206.74 283.47 207.00 283.48Q207.57 283.38 207.99 282.99Q208.38 282.57 208.48 282.00Q208.47 281.74 208.49 281.49Q209.35 280.85 209.99 279.99Q210.38 279.56 210.48 279.00Q210.47 277.74 210.49 276.49Q210.85 276.35 210.99 275.99Q211.38 275.57 211.48 275.00Q211.47 271.74 211.49 268.49Q211.85 268.35 211.99 267.99Q212.37 267.56 212.48 267.00Q212.47 253.50 212.43 240.00Q212.34 239.45 211.96 239.04Q211.83 238.68 211.47 238.54Q211.43 236.27 211.43 234.00Q211.34 233.45 210.96 233.04Q210.83 232.68 210.47 232.54Q210.41 231.77 210.42 231.00Q210.33 230.45 209.96 230.04Q209.82 229.68 209.46 229.54Q209.40 229.28 209.40 229.00Q209.32 228.46 208.94 228.06Q208.44 227.56 207.95 227.05Q207.54 226.68 207.00 226.60Q206.72 226.61 206.45 226.54Q206.31 226.18 205.95 226.05Q205.54 225.68 205.00 225.60Q203.72 225.60 202.44 225.54Q202.30 225.19 201.94 225.06Q201.54 224.69 201.00 224.62Q200.05 225.08 199.00 225.24Q196.00 225.12 193.00 224.94Q192.53 224.92 192.15 225.20Q191.82 225.31 191.65 225.61Q191.34 225.77 191.00 225.68Q190.50 225.65 190.00 225.59Q189.50 225.57 189.09 225.85Q189.18 225.40 188.96 225.00Q188.44 223.47 187.77 222.00Q187.14 220.78 186.44 219.59Q186.05 218.95 185.63 218.33Q185.04 217.46 184.38 216.65Q183.48 215.54 182.53 214.47Q181.05 212.96 179.54 211.46Q178.76 210.80 177.96 210.17Q177.00 209.48 176.00 208.86Q174.80 208.16 173.62 207.44Q172.30 206.86 170.98 206.30Q170.03 205.93 169.06 205.64Q168.04 205.31 167.00 205.03Q165.42 204.69 163.81 204.46Q162.41 204.32 161.00 204.25Q160.00 204.19 159.00 204.24Q157.58 204.31 156.16 204.44Q155.08 204.65 154.00 204.85Q152.36 205.16 150.74 205.57Q149.85 205.80 149.00 206.16Q147.35 206.85 145.73 207.62Q144.09 208.53 142.46 209.47Q140.82 210.85 139.15 212.20Q138.37 212.90 137.64 213.65Q136.04 215.55 134.50 217.51Q133.96 218.40 133.35 219.26Q132.80 220.16 132.26 221.08Q131.88 221.80 131.51 222.51Q130.98 223.92 130.44 225.33Q129.88 227.23 129.43 229.17Q129.08 231.08 128.79 233.00Q128.69 233.50 128.68 234.00Q128.63 235.00 128.63 236.00Q128.63 237.00 128.74 238.00Q128.85 239.00 129.03 240.00Q129.25 241.26 129.50 242.51Q130.01 244.42 130.57 246.31Q131.07 247.39 131.50 248.50Q132.00 249.51 132.48 250.54Q133.50 252.03 134.47 253.54Q136.23 255.77 138.21 257.82Q138.38 258.15 138.71 258.32Q139.88 259.16 140.98 260.09Q141.34 260.23 141.48 260.60Q142.71 261.41 143.96 262.18Q144.32 262.30 144.46 262.64Q145.23 262.93 146.00 263.22Q146.27 263.32 146.51 263.50Q147.24 263.82 148.00 264.08Q148.35 264.20 148.64 264.42Q148.82 264.71 149.14 264.83Q149.51 265.15 150.00 265.16Q150.44 265.09 150.81 265.34Q151.17 265.43 151.31 265.77Q151.59 266.08 152.00 266.10Q153.00 266.05 154.00 266.08Q155.00 266.22 156.00 266.39Q156.50 266.52 157.00 266.42Q157.50 266.37 158.00 266.33Q158.41 266.22 158.79 266.39Q159.37 266.64 160.00 266.71Q160.49 266.84 161.00 266.81Q161.50 266.83 162.00 266.79Q163.75 266.58 165.51 266.50Q165.71 266.26 166.01 266.14Q166.42 265.74 166.98 265.64Q167.24 265.58 167.48 265.49Q168.25 265.43 169.00 265.28Q169.98 264.98 171.00 264.80Q171.90 264.76 172.79 264.59Q174.63 264.10 176.42 263.46Q177.20 262.75 178.03 262.08Q178.30 261.74 178.71 261.58Q178.96 261.49 179.21 261.36Q179.62 261.15 180.00 260.88Q181.28 259.98 182.52 259.02ZM235.92 225.85Q235.50 225.57 235.00 225.60Q232.50 225.81 230.00 225.94Q227.00 226.09 224.00 226.20Q222.95 226.05 222.00 225.59Q221.50 225.59 221.00 225.60Q220.46 225.68 220.05 226.05Q219.69 226.18 219.55 226.54Q219.28 226.60 219.00 226.59Q218.45 226.67 218.05 227.05Q216.54 228.54 215.05 230.05Q214.68 230.46 214.60 231.00Q214.59 231.77 214.54 232.55Q214.18 232.68 214.05 233.05Q213.67 233.45 213.58 234.00Q213.57 236.27 213.53 238.54Q213.17 238.68 213.04 239.04Q212.67 239.45 212.58 240.00Q212.51 256.50 212.53 273.00Q212.63 273.56 213.01 273.99Q213.15 274.35 213.51 274.49Q213.53 276.24 213.52 278.00Q213.62 278.56 214.01 278.99Q214.15 279.35 214.51 279.49Q214.53 279.74 214.52 280.00Q214.62 280.57 215.01 280.99Q215.15 281.35 215.51 281.49Q215.53 281.74 215.52 282.00Q215.62 282.57 216.01 282.99Q216.43 283.38 217.00 283.48Q217.26 283.47 217.51 283.49Q218.15 284.35 219.01 284.99Q219.43 285.38 220.00 285.48Q227.00 285.48 234.00 285.48Q234.57 285.38 234.99 284.99Q235.35 284.85 235.49 284.49Q235.75 284.47 236.00 284.48Q236.57 284.38 236.99 283.99Q238.10 283.10 238.99 281.99Q239.38 281.57 239.48 281.00Q239.47 280.74 239.49 280.49Q239.85 280.35 239.99 279.99Q240.38 279.57 240.48 279.00Q240.47 278.24 240.49 277.49Q240.85 277.35 240.99 276.99Q241.38 276.57 241.48 276.00Q241.47 273.74 241.49 271.49Q241.85 271.35 241.99 270.99Q242.38 270.57 242.48 270.00Q242.48 268.00 242.48 266.00Q242.33 265.01 242.31 264.00Q242.43 262.42 242.48 260.84Q242.77 260.72 243.00 260.92Q244.69 262.26 246.41 263.56Q247.09 264.02 247.85 264.36Q248.09 264.46 248.35 264.55Q249.67 264.89 251.00 265.22Q251.59 265.38 252.13 265.67Q252.53 265.91 253.00 265.88Q253.50 265.92 254.00 265.96Q254.52 265.96 254.94 266.25Q255.21 266.36 255.44 266.53Q255.71 266.67 256.00 266.73Q256.47 266.96 257.00 266.94Q259.00 266.98 261.00 267.04Q262.01 266.91 263.00 266.71Q263.50 266.75 264.00 266.81Q265.00 266.79 266.00 266.71Q267.50 266.83 269.00 266.87Q269.51 267.00 270.00 266.81Q270.31 266.81 270.52 266.58Q270.68 266.28 271.02 266.24Q271.48 266.00 272.00 266.08Q272.46 266.11 272.84 265.83Q273.14 265.68 273.34 265.40Q273.63 265.14 274.00 265.03Q274.76 264.70 275.58 264.68Q275.73 264.36 276.08 264.26Q276.50 263.99 277.00 264.03Q277.41 264.04 277.70 263.76Q277.86 263.44 278.20 263.34Q278.57 263.12 279.00 263.13Q279.46 263.10 279.79 262.79Q280.04 262.58 280.29 262.37Q280.90 261.95 281.28 261.31Q281.97 261.03 282.49 260.49Q282.78 260.45 283.00 260.27Q283.47 260.15 283.77 259.77Q284.02 259.55 284.27 259.33Q284.76 258.76 285.14 258.12Q286.02 257.00 287.10 256.07Q287.70 255.63 288.22 255.08Q289.09 254.02 289.69 252.79Q289.90 252.41 290.19 252.08Q290.34 251.73 290.69 251.58Q290.99 251.37 291.01 251.00Q291.10 250.57 291.32 250.19Q291.86 248.89 292.55 247.66Q292.99 246.48 293.43 245.30Q293.87 243.65 294.33 242.00Q294.65 240.51 294.87 239.00Q294.98 238.00 295.03 237.00Q295.10 236.00 295.08 235.00Q295.01 233.49 294.81 232.00Q294.67 230.83 294.46 229.67Q294.18 228.33 293.87 227.00Q293.70 226.29 293.46 225.60Q292.93 224.19 292.37 222.78Q291.85 221.79 291.32 220.80Q290.78 219.86 290.20 218.95Q289.35 217.73 288.49 216.51Q287.62 215.38 286.68 214.31Q285.69 213.31 284.65 212.36Q283.58 211.42 282.49 210.50Q281.58 209.97 280.71 209.37Q279.38 208.59 278.00 207.91Q277.01 207.42 276.00 206.99Q275.02 206.59 274.00 206.29Q272.41 205.81 270.79 205.44Q269.90 205.24 269.00 205.13Q268.00 205.03 267.00 204.94Q266.00 204.86 265.00 204.88Q264.00 204.91 263.00 204.93Q261.50 205.07 260.00 205.25Q259.25 205.34 258.50 205.50Q256.87 205.91 255.27 206.41Q253.87 206.97 252.46 207.48Q251.48 207.99 250.52 208.51Q249.57 209.03 248.66 209.60Q247.45 210.45 246.25 211.33Q245.69 211.72 245.22 212.21Q243.50 214.01 241.73 215.76Q240.59 217.10 239.48 218.48Q238.91 219.36 238.35 220.24Q237.80 221.17 237.31 222.13Q236.65 223.55 236.07 225.00Q235.84 225.40 235.92 225.85Z" transform="scale(1)"/></clipPath><clipPath id="r5-entity-eye-0-highlight-clip"><path d="M 179.711 151.475 L 182.051 151.553 L 184.304 151.944 L 186.384 152.633 L 188.209 153.596 L 189.709 154.797 L 190.828 156.190 L 191.521 157.724 L 191.763 159.339 L 191.786 163.363 L 191.802 167.452 L 191.812 171.605 L 191.816 175.821 L 191.812 180.103 L 191.801 184.457 L 191.782 188.883 L 191.756 193.382 L 191.513 195.239 L 190.818 197.045 L 189.698 198.731 L 188.196 200.230 L 186.369 201.483 L 184.289 202.441 L 182.035 203.065 L 179.695 203.330 L 179.695 203.330 L 179.695 203.330 L 179.695 203.330 L 179.695 203.330 L 179.695 203.330 L 179.695 203.330 L 179.695 203.330 L 179.695 203.330 L 177.357 203.225 L 175.112 202.753 L 173.046 201.935 L 171.239 200.803 L 169.759 199.401 L 168.663 197.785 L 167.994 196.020 L 167.777 194.173 L 167.804 189.665 L 167.823 185.233 L 167.835 180.875 L 167.839 176.591 L 167.835 172.377 L 167.825 168.228 L 167.808 164.144 L 167.784 160.129 L 168.003 158.502 L 168.674 156.927 L 169.771 155.463 L 171.252 154.166 L 173.060 153.082 L 175.127 152.254 L 177.373 151.711 L 179.711 151.475 L 179.711 151.475 L 179.711 151.475 L 179.711 151.475 L 179.711 151.475 L 179.711 151.475 L 179.711 151.475 L 179.711 151.475 Z"/></clipPath><clipPath id="r5-entity-eye-1-highlight-clip"><path d="M 245.387 151.854 L 247.708 152.118 L 249.943 152.687 L 252.005 153.539 L 253.816 154.643 L 255.305 155.958 L 256.415 157.434 L 257.103 159.017 L 257.343 160.646 L 257.367 164.662 L 257.384 168.745 L 257.394 172.895 L 257.398 177.109 L 257.394 181.393 L 257.382 185.751 L 257.363 190.183 L 257.336 194.691 L 257.094 196.535 L 256.404 198.292 L 255.293 199.895 L 253.803 201.280 L 251.991 202.392 L 249.928 203.186 L 247.693 203.631 L 245.371 203.709 L 245.371 203.709 L 245.371 203.709 L 245.371 203.709 L 245.371 203.709 L 245.371 203.709 L 245.371 203.709 L 245.371 203.709 L 245.371 203.709 L 243.053 203.418 L 240.826 202.768 L 238.778 201.786 L 236.985 200.512 L 235.517 198.996 L 234.430 197.297 L 233.766 195.483 L 233.550 193.623 L 233.576 189.125 L 233.595 184.699 L 233.606 180.345 L 233.610 176.062 L 233.607 171.847 L 233.597 167.694 L 233.580 163.605 L 233.557 159.581 L 233.775 157.968 L 234.440 156.443 L 235.529 155.062 L 236.998 153.878 L 238.792 152.936 L 240.842 152.271 L 243.069 151.906 L 245.387 151.854 L 245.387 151.854 L 245.387 151.854 L 245.387 151.854 L 245.387 151.854 L 245.387 151.854 L 245.387 151.854 L 245.387 151.854 Z"/></clipPath></defs><g><g data-avatar-entity-part="tooth-left" data-avatar-fragment-interaction-area="1604" data-avatar-fragment-interaction-ratio="1" data-avatar-fragment-raw-visible-area="1604" data-avatar-fragment-visible-area="1604" data-avatar-part-geometry="compiled-owner"><g data-avatar-compiled-base-layer="tooth-left"><path data-avatar-compiled-base="tooth-left" d="M182.52 259.02Q182.81 249.01 183.11 239.00Q183.13 238.50 183.18 238.00Q183.14 237.64 183.36 237.35Q183.62 237.15 183.74 236.85Q184.02 236.47 183.99 236.00Q184.02 234.50 184.14 233.00Q184.11 232.62 184.35 232.33Q184.60 232.13 184.74 231.83Q185.02 231.04 185.27 230.24Q185.49 230.00 185.70 229.74Q185.93 228.96 186.25 228.21Q186.75 227.70 187.18 227.13Q187.51 226.76 188.00 226.68Q188.29 226.66 188.56 226.56Q188.70 226.11 189.09 225.85Q189.50 225.57 190.00 225.59Q190.50 225.65 191.00 225.68Q191.34 225.77 191.65 225.61Q191.82 225.31 192.15 225.20Q192.53 224.92 193.00 224.94Q196.00 225.12 199.00 225.24Q200.05 225.08 201.00 224.62Q201.54 224.69 201.94 225.06Q202.30 225.19 202.44 225.54Q203.72 225.60 205.00 225.60Q205.54 225.68 205.95 226.05Q206.31 226.18 206.45 226.54Q206.72 226.61 207.00 226.60Q207.54 226.68 207.95 227.05Q208.44 227.56 208.94 228.06Q209.32 228.46 209.40 229.00Q209.40 229.28 209.46 229.54Q209.82 229.68 209.96 230.04Q210.33 230.45 210.42 231.00Q210.41 231.77 210.47 232.54Q210.83 232.68 210.96 233.04Q211.34 233.45 211.43 234.00Q211.43 236.27 211.47 238.54Q211.83 238.68 211.96 239.04Q212.34 239.45 212.43 240.00Q212.47 253.50 212.48 267.00Q212.37 267.56 211.99 267.99Q211.85 268.35 211.49 268.49Q211.47 271.74 211.48 275.00Q211.38 275.57 210.99 275.99Q210.85 276.35 210.49 276.49Q210.47 277.74 210.48 279.00Q210.38 279.56 209.99 279.99Q209.35 280.85 208.49 281.49Q208.47 281.74 208.48 282.00Q208.38 282.57 207.99 282.99Q207.57 283.38 207.00 283.48Q206.74 283.47 206.49 283.49Q205.85 284.35 204.99 284.99Q204.57 285.38 204.00 285.48Q197.00 285.48 190.00 285.48Q189.43 285.38 189.01 284.99Q188.15 284.35 187.51 283.49Q187.26 283.47 187.00 283.48Q186.43 283.38 186.01 282.99Q185.62 282.57 185.52 282.00Q185.53 281.74 185.51 281.49Q185.15 281.35 185.01 280.99Q184.62 280.57 184.52 280.00Q184.53 279.74 184.51 279.49Q184.15 279.35 184.01 278.99Q183.62 278.57 183.52 278.00Q183.53 277.24 183.51 276.49Q183.15 276.35 183.01 275.99Q182.63 275.56 182.53 275.00Q182.52 269.50 182.52 264.00Q182.65 263.00 182.67 262.00Q182.56 260.51 182.52 259.02Z" fill="#e9deca" transform="scale(1)"/></g><g data-avatar-compiled-surface-layer="tooth-left" clip-path="url(#r5-compiled-owner-0)"><g transform="translate(-12.775350706671627 53.235924511576385)"><g/></g></g></g><g data-avatar-entity-part="tooth-right" data-avatar-fragment-interaction-area="1595" data-avatar-fragment-interaction-ratio="1" data-avatar-fragment-raw-visible-area="1595" data-avatar-fragment-visible-area="1595" data-avatar-part-geometry="compiled-owner"><g data-avatar-compiled-base-layer="tooth-right"><path data-avatar-compiled-base="tooth-right" d="M235.92 225.85Q236.31 226.10 236.44 226.55Q236.71 226.65 237.00 226.67Q237.49 226.75 237.83 227.12Q238.26 227.69 238.76 228.20Q239.09 228.94 239.30 229.73Q239.54 229.97 239.75 230.23Q240.03 231.00 240.27 231.79Q240.45 232.07 240.69 232.29Q240.96 232.60 240.92 233.00Q241.02 234.50 241.03 236.00Q241.00 236.45 241.27 236.81Q241.42 237.10 241.68 237.31Q241.93 237.61 241.89 238.00Q241.97 239.50 242.01 241.00Q242.21 250.92 242.48 260.84Q242.43 262.42 242.31 264.00Q242.33 265.01 242.48 266.00Q242.48 268.00 242.48 270.00Q242.38 270.57 241.99 270.99Q241.85 271.35 241.49 271.49Q241.47 273.74 241.48 276.00Q241.38 276.57 240.99 276.99Q240.85 277.35 240.49 277.49Q240.47 278.24 240.48 279.00Q240.38 279.57 239.99 279.99Q239.85 280.35 239.49 280.49Q239.47 280.74 239.48 281.00Q239.38 281.57 238.99 281.99Q238.10 283.10 236.99 283.99Q236.57 284.38 236.00 284.48Q235.75 284.47 235.49 284.49Q235.35 284.85 234.99 284.99Q234.57 285.38 234.00 285.48Q227.00 285.48 220.00 285.48Q219.43 285.38 219.01 284.99Q218.15 284.35 217.51 283.49Q217.26 283.47 217.00 283.48Q216.43 283.38 216.01 282.99Q215.62 282.57 215.52 282.00Q215.53 281.74 215.51 281.49Q215.15 281.35 215.01 280.99Q214.62 280.57 214.52 280.00Q214.53 279.74 214.51 279.49Q214.15 279.35 214.01 278.99Q213.62 278.56 213.52 278.00Q213.53 276.24 213.51 274.49Q213.15 274.35 213.01 273.99Q212.63 273.56 212.53 273.00Q212.51 256.50 212.58 240.00Q212.67 239.45 213.04 239.04Q213.17 238.68 213.53 238.54Q213.57 236.27 213.58 234.00Q213.67 233.45 214.05 233.05Q214.18 232.68 214.54 232.55Q214.59 231.77 214.60 231.00Q214.68 230.46 215.05 230.05Q216.54 228.54 218.05 227.05Q218.45 226.67 219.00 226.59Q219.28 226.60 219.55 226.54Q219.69 226.18 220.05 226.05Q220.46 225.68 221.00 225.60Q221.50 225.59 222.00 225.59Q222.95 226.05 224.00 226.20Q227.00 226.09 230.00 225.94Q232.50 225.81 235.00 225.60Q235.50 225.57 235.92 225.85Z" fill="#e9deca" transform="scale(1)"/></g><g data-avatar-compiled-surface-layer="tooth-right" clip-path="url(#r5-compiled-owner-1)"><g transform="translate(17.455552717865924 53.41071849435889)"><g/></g></g></g><g data-avatar-entity-part="ear-left" data-avatar-fragment-interaction-area="956" data-avatar-fragment-interaction-ratio="1" data-avatar-fragment-raw-visible-area="956" data-avatar-fragment-visible-area="956" data-avatar-part-geometry="compiled-owner"><g data-avatar-compiled-base-layer="ear-left"><path data-avatar-compiled-base="ear-left" d="M136.17 134.51Q135.52 134.61 135.01 135.01Q134.65 135.15 134.51 135.51Q133.76 135.53 133.00 135.53Q132.44 135.63 132.01 136.01Q131.65 136.15 131.51 136.51Q130.76 136.53 130.00 136.53Q129.44 136.63 129.02 137.02Q128.66 137.15 128.52 137.51Q128.26 137.54 128.00 137.53Q127.44 137.63 127.02 138.02Q126.66 138.15 126.52 138.51Q125.76 138.54 125.00 138.54Q124.44 138.64 124.02 139.02Q123.66 139.16 123.52 139.52Q123.26 139.55 123.00 139.54Q122.44 139.64 122.02 140.02Q121.66 140.16 121.52 140.52Q121.26 140.54 121.00 140.54Q120.44 140.64 120.02 141.02Q119.66 141.16 119.52 141.52Q119.26 141.54 119.00 141.54Q118.44 141.63 118.02 142.02Q117.66 142.15 117.52 142.52Q117.26 142.54 117.00 142.53Q116.44 142.63 116.02 143.02Q115.66 143.15 115.52 143.52Q114.76 143.54 114.00 143.54Q113.44 143.64 113.03 144.03Q112.66 144.16 112.53 144.52Q112.26 144.54 112.00 144.54Q111.44 144.64 111.02 145.02Q110.66 145.16 110.52 145.52Q110.26 145.54 110.00 145.54Q109.44 145.63 109.02 146.02Q108.66 146.16 108.52 146.52Q108.26 146.54 108.00 146.54Q107.44 146.64 107.02 147.02Q106.66 147.16 106.52 147.52Q106.26 147.54 106.00 147.54Q105.44 147.64 105.02 148.02Q104.16 148.65 103.52 149.52Q103.26 149.54 103.00 149.53Q102.44 149.63 102.02 150.02Q101.15 150.65 100.52 151.51Q100.26 151.53 100.00 151.53Q99.44 151.63 99.01 152.01Q98.15 152.65 97.51 153.51Q97.19 153.49 97.00 153.76Q96.45 154.04 95.83 154.00C95.82 153.62 95.88 153.22 95.79 152.85C95.71 152.50 95.46 152.21 95.32 151.87C94.70 150.41 94.30 149.40 93.92 147.87C93.04 144.29 92.76 140.79 93.15 137.11C93.72 131.77 96.24 126.02 100.34 122.43C101.06 121.80 101.80 121.18 102.56 120.57C102.73 120.43 102.91 120.30 103.11 120.20C103.57 119.96 104.06 119.78 104.52 119.53C105.43 119.04 106.23 118.48 107.20 118.10C109.58 117.16 112.51 117.06 115.03 117.20C117.43 117.34 120.18 117.64 122.37 118.75C126.89 121.05 130.60 124.27 133.21 128.66C134.24 130.37 134.70 131.46 135.41 133.25C135.87 134.44 135.42 134.02 136.17 134.51Z" fill="#45372f" transform="scale(1)"/></g><g data-avatar-compiled-surface-layer="ear-left" clip-path="url(#r5-compiled-owner-2)"><g transform="translate(-94.93959340279926 -60.19121950759874)"><g/></g></g></g><g data-avatar-entity-part="ear-right" data-avatar-fragment-interaction-area="917" data-avatar-fragment-interaction-ratio="1" data-avatar-fragment-raw-visible-area="917" data-avatar-fragment-visible-area="917" data-avatar-part-geometry="compiled-owner"><g data-avatar-compiled-base-layer="ear-right"><path data-avatar-compiled-base="ear-right" d="M323.17 154.17Q322.69 153.48 321.99 153.01Q321.56 152.63 321.00 152.53Q320.74 152.53 320.49 152.51Q319.85 151.65 318.98 151.02Q318.56 150.63 318.00 150.53Q317.74 150.53 317.48 150.51Q316.84 149.65 315.98 149.02Q315.56 148.64 315.00 148.54Q314.74 148.54 314.48 148.52Q314.34 148.15 313.98 148.02Q313.56 147.63 313.00 147.54Q312.74 147.54 312.48 147.52Q312.34 147.15 311.98 147.02Q311.56 146.63 311.00 146.53Q310.74 146.54 310.48 146.52Q310.35 146.15 309.98 146.02Q309.56 145.63 309.00 145.53Q308.74 145.54 308.48 145.52Q308.34 145.15 307.98 145.02Q307.56 144.64 307.00 144.54Q306.24 144.54 305.48 144.51Q305.35 144.15 304.98 144.02Q304.56 143.63 304.00 143.53Q303.74 143.54 303.48 143.51Q303.35 143.15 302.98 143.02Q302.56 142.63 302.00 142.53Q301.74 142.54 301.48 142.51Q301.34 142.15 300.98 142.02Q300.56 141.63 300.00 141.53Q299.74 141.54 299.48 141.52Q299.34 141.15 298.98 141.02Q298.56 140.63 298.00 140.53Q297.74 140.54 297.48 140.52Q297.34 140.15 296.98 140.02Q296.56 139.63 296.00 139.54Q295.74 139.54 295.48 139.52Q295.34 139.15 294.98 139.02Q294.56 138.64 294.00 138.54Q293.24 138.54 292.48 138.51Q292.35 138.15 291.98 138.02Q291.56 137.63 291.00 137.53Q290.74 137.53 290.48 137.51Q290.35 137.15 289.98 137.02Q289.56 136.63 289.00 136.53Q288.24 136.53 287.49 136.51Q287.35 136.15 286.99 136.01Q286.56 135.62 286.00 135.52Q285.25 135.53 284.49 135.51Q284.27 135.06 283.83 134.83C283.62 133.50 283.58 134.09 284.50 132.21C285.43 130.31 286.54 128.47 287.89 126.83C290.38 123.83 293.46 121.27 297.08 119.73C300.49 118.27 304.29 118.13 307.94 118.41C309.20 118.51 310.62 118.63 311.81 119.10C313.13 119.62 315.81 121.03 316.59 121.56C324.23 126.71 327.49 137.08 325.90 145.90C325.40 148.68 324.63 151.71 323.17 154.17Z" fill="#45372f" transform="scale(1)"/></g><g data-avatar-compiled-surface-layer="ear-right" clip-path="url(#r5-compiled-owner-3)"><g transform="translate(94.0035530005604 -59.098757115208095)"><g/></g></g></g><g data-avatar-entity-part="cheek-left" data-avatar-fragment-interaction-area="2906" data-avatar-fragment-interaction-ratio="1" data-avatar-fragment-raw-visible-area="2906" data-avatar-fragment-visible-area="2906" data-avatar-part-geometry="compiled-owner"><g data-avatar-compiled-base-layer="cheek-left"><path data-avatar-compiled-base="cheek-left" d="M189.09 225.85Q188.70 226.11 188.56 226.56Q188.29 226.66 188.00 226.68Q187.51 226.76 187.18 227.13Q186.75 227.70 186.25 228.21Q185.93 228.96 185.70 229.74Q185.49 230.00 185.27 230.24Q185.02 231.04 184.74 231.83Q184.60 232.13 184.35 232.33Q184.11 232.62 184.14 233.00Q184.02 234.50 183.99 236.00Q184.02 236.47 183.74 236.85Q183.62 237.15 183.36 237.35Q183.14 237.64 183.18 238.00Q183.13 238.50 183.11 239.00Q182.81 249.01 182.52 259.02Q181.28 259.98 180.00 260.88Q179.62 261.15 179.21 261.36Q178.96 261.49 178.71 261.58Q178.30 261.74 178.03 262.08Q177.20 262.75 176.42 263.46Q174.63 264.10 172.79 264.59Q171.90 264.76 171.00 264.80Q169.98 264.98 169.00 265.28Q168.25 265.43 167.48 265.49Q167.24 265.58 166.98 265.64Q166.42 265.74 166.01 266.14Q165.71 266.26 165.51 266.50Q163.75 266.58 162.00 266.79Q161.50 266.83 161.00 266.81Q160.49 266.84 160.00 266.71Q159.37 266.64 158.79 266.39Q158.41 266.22 158.00 266.33Q157.50 266.37 157.00 266.42Q156.50 266.52 156.00 266.39Q155.00 266.22 154.00 266.08Q153.00 266.05 152.00 266.10Q151.59 266.08 151.31 265.77Q151.17 265.43 150.81 265.34Q150.44 265.09 150.00 265.16Q149.51 265.15 149.14 264.83Q148.82 264.71 148.64 264.42Q148.35 264.20 148.00 264.08Q147.24 263.82 146.51 263.50Q146.27 263.32 146.00 263.22Q145.23 262.93 144.46 262.64Q144.32 262.30 143.96 262.18Q142.71 261.41 141.48 260.60Q141.34 260.23 140.98 260.09Q139.88 259.16 138.71 258.32Q138.38 258.15 138.21 257.82Q136.23 255.77 134.47 253.54Q133.50 252.03 132.48 250.54Q132.00 249.51 131.50 248.50Q131.07 247.39 130.57 246.31Q130.01 244.42 129.50 242.51Q129.25 241.26 129.03 240.00Q128.85 239.00 128.74 238.00Q128.63 237.00 128.63 236.00Q128.63 235.00 128.68 234.00Q128.69 233.50 128.79 233.00Q129.08 231.08 129.43 229.17Q129.88 227.23 130.44 225.33Q130.98 223.92 131.51 222.51Q131.88 221.80 132.26 221.08Q132.80 220.16 133.35 219.26Q133.96 218.40 134.50 217.51Q136.04 215.55 137.64 213.65Q138.37 212.90 139.15 212.20Q140.82 210.85 142.46 209.47Q144.09 208.53 145.73 207.62Q147.35 206.85 149.00 206.16Q149.85 205.80 150.74 205.57Q152.36 205.16 154.00 204.85Q155.08 204.65 156.16 204.44Q157.58 204.31 159.00 204.24Q160.00 204.19 161.00 204.25Q162.41 204.32 163.81 204.46Q165.42 204.69 167.00 205.03Q168.04 205.31 169.06 205.64Q170.03 205.93 170.98 206.30Q172.30 206.86 173.62 207.44Q174.80 208.16 176.00 208.86Q177.00 209.48 177.96 210.17Q178.76 210.80 179.54 211.46Q181.05 212.96 182.53 214.47Q183.48 215.54 184.38 216.65Q185.04 217.46 185.63 218.33Q186.05 218.95 186.44 219.59Q187.14 220.78 187.77 222.00Q188.44 223.47 188.96 225.00Q189.18 225.40 189.09 225.85Z" fill="#55443a" transform="scale(1)"/></g><g data-avatar-compiled-surface-layer="cheek-left" clip-path="url(#r5-compiled-owner-4)"><g transform="translate(-46.323883485163584 30.589275016043423)"><g><path data-avatar-compiled-surface-marking="beaver-cheek-left" data-avatar-surface-decal="beaver-cheek-left" data-avatar-surface-decal-renderer="compiled" d="M181.21 222.46C181.14 223.18 181.14 223.91 181.00 224.62C180.73 226.06 180.18 227.47 179.41 228.72C173.29 238.69 156.13 238.45 150.07 228.54C149.31 227.30 148.75 225.88 148.48 224.44C148.34 223.73 148.34 223.00 148.27 222.28C148.34 221.55 148.34 220.82 148.48 220.10C148.75 218.64 149.30 217.24 150.07 215.97C156.24 205.74 173.33 205.94 179.41 216.14C180.18 217.42 180.73 218.81 181.00 220.28C181.14 221.00 181.14 221.74 181.21 222.46Z" fill="#ae9779" fill-opacity="1" transform="translate(46.323883485163584 -30.589275016043423) scale(1)"/></g></g></g></g><g data-avatar-entity-part="cheek-right" data-avatar-fragment-interaction-area="2839" data-avatar-fragment-interaction-ratio="1" data-avatar-fragment-raw-visible-area="2839" data-avatar-fragment-visible-area="2839" data-avatar-part-geometry="compiled-owner"><g data-avatar-compiled-base-layer="cheek-right"><path data-avatar-compiled-base="cheek-right" d="M242.48 260.84Q242.21 250.92 242.01 241.00Q241.97 239.50 241.89 238.00Q241.93 237.61 241.68 237.31Q241.42 237.10 241.27 236.81Q241.00 236.45 241.03 236.00Q241.02 234.50 240.92 233.00Q240.96 232.60 240.69 232.29Q240.45 232.07 240.27 231.79Q240.03 231.00 239.75 230.23Q239.54 229.97 239.30 229.73Q239.09 228.94 238.76 228.20Q238.26 227.69 237.83 227.12Q237.49 226.75 237.00 226.67Q236.71 226.65 236.44 226.55Q236.31 226.10 235.92 225.85Q235.84 225.40 236.07 225.00Q236.65 223.55 237.31 222.13Q237.80 221.17 238.35 220.24Q238.91 219.36 239.48 218.48Q240.59 217.10 241.73 215.76Q243.50 214.01 245.22 212.21Q245.69 211.72 246.25 211.33Q247.45 210.45 248.66 209.60Q249.57 209.03 250.52 208.51Q251.48 207.99 252.46 207.48Q253.87 206.97 255.27 206.41Q256.87 205.91 258.50 205.50Q259.25 205.34 260.00 205.25Q261.50 205.07 263.00 204.93Q264.00 204.91 265.00 204.88Q266.00 204.86 267.00 204.94Q268.00 205.03 269.00 205.13Q269.90 205.24 270.79 205.44Q272.41 205.81 274.00 206.29Q275.02 206.59 276.00 206.99Q277.01 207.42 278.00 207.91Q279.38 208.59 280.71 209.37Q281.58 209.97 282.49 210.50Q283.58 211.42 284.65 212.36Q285.69 213.31 286.68 214.31Q287.62 215.38 288.49 216.51Q289.35 217.73 290.20 218.95Q290.78 219.86 291.32 220.80Q291.85 221.79 292.37 222.78Q292.93 224.19 293.46 225.60Q293.70 226.29 293.87 227.00Q294.18 228.33 294.46 229.67Q294.67 230.83 294.81 232.00Q295.01 233.49 295.08 235.00Q295.10 236.00 295.03 237.00Q294.98 238.00 294.87 239.00Q294.65 240.51 294.33 242.00Q293.87 243.65 293.43 245.30Q292.99 246.48 292.55 247.66Q291.86 248.89 291.32 250.19Q291.10 250.57 291.01 251.00Q290.99 251.37 290.69 251.58Q290.34 251.73 290.19 252.08Q289.90 252.41 289.69 252.79Q289.09 254.02 288.22 255.08Q287.70 255.63 287.10 256.07Q286.02 257.00 285.14 258.12Q284.76 258.76 284.27 259.33Q284.02 259.55 283.77 259.77Q283.47 260.15 283.00 260.27Q282.78 260.45 282.49 260.49Q281.97 261.03 281.28 261.31Q280.90 261.95 280.29 262.37Q280.04 262.58 279.79 262.79Q279.46 263.10 279.00 263.13Q278.57 263.12 278.20 263.34Q277.86 263.44 277.70 263.76Q277.41 264.04 277.00 264.03Q276.50 263.99 276.08 264.26Q275.73 264.36 275.58 264.68Q274.76 264.70 274.00 265.03Q273.63 265.14 273.34 265.40Q273.14 265.68 272.84 265.83Q272.46 266.11 272.00 266.08Q271.48 266.00 271.02 266.24Q270.68 266.28 270.52 266.58Q270.31 266.81 270.00 266.81Q269.51 267.00 269.00 266.87Q267.50 266.83 266.00 266.71Q265.00 266.79 264.00 266.81Q263.50 266.75 263.00 266.71Q262.01 266.91 261.00 267.04Q259.00 266.98 257.00 266.94Q256.47 266.96 256.00 266.73Q255.71 266.67 255.44 266.53Q255.21 266.36 254.94 266.25Q254.52 265.96 254.00 265.96Q253.50 265.92 253.00 265.88Q252.53 265.91 252.13 265.67Q251.59 265.38 251.00 265.22Q249.67 264.89 248.35 264.55Q248.09 264.46 247.85 264.36Q247.09 264.02 246.41 263.56Q244.69 262.26 243.00 260.92Q242.77 260.72 242.48 260.84Z" fill="#55443a" transform="scale(1)"/></g><g data-avatar-compiled-surface-layer="cheek-right" clip-path="url(#r5-compiled-owner-5)"><g transform="translate(49.40731069253865 31.142789294854687)"><g><path data-avatar-compiled-surface-marking="beaver-cheek-right" data-avatar-surface-decal="beaver-cheek-right" data-avatar-surface-decal-renderer="compiled" d="M276.94 223.02C276.87 223.74 276.87 224.46 276.73 225.17C276.46 226.61 275.91 228.02 275.14 229.27C269.02 239.24 251.86 239.01 245.80 229.10C245.04 227.85 244.48 226.43 244.21 224.99C244.07 224.28 244.07 223.55 244.01 222.83C244.07 222.11 244.07 221.37 244.21 220.65C244.49 219.19 245.04 217.79 245.80 216.52C251.97 206.30 269.07 206.49 275.14 216.69C275.91 217.97 276.46 219.37 276.74 220.83C276.87 221.55 276.87 222.29 276.94 223.02Z" fill="#ae9779" fill-opacity="1" transform="translate(-49.40731069253865 -31.142789294854687) scale(1)"/></g></g></g></g><g data-avatar-entity-part="primary" data-avatar-fragment-interaction-area="33834" data-avatar-fragment-interaction-ratio="1" data-avatar-fragment-raw-visible-area="33834" data-avatar-fragment-visible-area="33834" data-avatar-part-geometry="compiled-owner"><g data-avatar-compiled-base-layer="primary"><path data-avatar-compiled-base="primary" d="M283.83 134.83Q284.27 135.06 284.49 135.51Q285.25 135.53 286.00 135.52Q286.56 135.62 286.99 136.01Q287.35 136.15 287.49 136.51Q288.24 136.53 289.00 136.53Q289.56 136.63 289.98 137.02Q290.35 137.15 290.48 137.51Q290.74 137.53 291.00 137.53Q291.56 137.63 291.98 138.02Q292.35 138.15 292.48 138.51Q293.24 138.54 294.00 138.54Q294.56 138.64 294.98 139.02Q295.34 139.15 295.48 139.52Q295.74 139.54 296.00 139.54Q296.56 139.63 296.98 140.02Q297.34 140.15 297.48 140.52Q297.74 140.54 298.00 140.53Q298.56 140.63 298.98 141.02Q299.34 141.15 299.48 141.52Q299.74 141.54 300.00 141.53Q300.56 141.63 300.98 142.02Q301.34 142.15 301.48 142.51Q301.74 142.54 302.00 142.53Q302.56 142.63 302.98 143.02Q303.35 143.15 303.48 143.51Q303.74 143.54 304.00 143.53Q304.56 143.63 304.98 144.02Q305.35 144.15 305.48 144.51Q306.24 144.54 307.00 144.54Q307.56 144.64 307.98 145.02Q308.34 145.15 308.48 145.52Q308.74 145.54 309.00 145.53Q309.56 145.63 309.98 146.02Q310.35 146.15 310.48 146.52Q310.74 146.54 311.00 146.53Q311.56 146.63 311.98 147.02Q312.34 147.15 312.48 147.52Q312.74 147.54 313.00 147.54Q313.56 147.63 313.98 148.02Q314.34 148.15 314.48 148.52Q314.74 148.54 315.00 148.54Q315.56 148.64 315.98 149.02Q316.84 149.65 317.48 150.51Q317.74 150.53 318.00 150.53Q318.56 150.63 318.98 151.02Q319.85 151.65 320.49 152.51Q320.74 152.53 321.00 152.53Q321.56 152.63 321.99 153.01Q322.69 153.48 323.17 154.17C324.45 156.99 323.15 154.36 329.73 158.90C330.40 159.36 331.04 159.86 331.67 160.38C332.39 160.98 333.08 161.61 333.76 162.26C337.37 165.64 341.23 168.79 344.56 172.46C351.85 180.51 353.00 183.84 357.62 193.19C357.99 193.96 358.64 195.65 358.80 196.23C359.74 199.52 360.58 202.84 361.45 206.15C361.53 206.44 361.63 206.74 361.65 207.04C361.87 210.37 362.02 213.69 362.16 217.02C362.17 217.32 362.14 217.63 362.09 217.93C361.51 221.27 360.91 224.62 360.26 227.96C360.07 228.92 359.93 229.90 359.58 230.82C358.25 234.22 356.72 237.55 355.23 240.88C355.09 241.20 354.87 241.48 354.67 241.77C352.36 245.10 350.11 248.48 347.71 251.75C347.02 252.69 346.21 253.55 345.39 254.39C336.01 263.95 332.62 267.79 320.76 275.17C317.63 277.12 302.61 285.56 295.41 288.24C290.62 290.03 285.73 291.53 280.90 293.22C275.57 295.08 270.38 297.21 264.86 298.49C260.25 299.56 251.90 300.76 247.97 301.21C236.71 302.51 225.33 303.00 214.00 303.09C204.67 303.16 195.32 302.92 186.01 302.28C176.34 301.61 166.70 300.59 157.19 298.67C153.79 297.99 150.51 296.98 147.24 295.84C140.52 293.47 133.82 291.06 127.12 288.67C125.78 288.19 124.42 287.75 123.10 287.23C122.28 286.91 121.46 286.56 120.68 286.15C114.61 282.97 108.57 279.70 102.53 276.45C96.09 273.00 88.44 266.96 83.91 263.10C74.40 254.98 72.71 251.70 65.90 241.73C63.44 238.13 60.83 231.74 59.94 228.83C58.43 223.84 57.82 219.83 58.01 215.03C58.15 211.72 58.00 208.38 58.52 205.12C59.89 196.49 62.45 191.96 66.47 184.24C68.61 180.13 74.40 172.82 76.04 171.03C79.53 167.22 83.48 163.84 87.36 160.43C90.19 157.95 92.71 157.15 95.68 154.77C95.89 154.61 95.78 154.26 95.83 154.00Q96.45 154.04 97.00 153.76Q97.19 153.49 97.51 153.51Q98.15 152.65 99.01 152.01Q99.44 151.63 100.00 151.53Q100.26 151.53 100.52 151.51Q101.15 150.65 102.02 150.02Q102.44 149.63 103.00 149.53Q103.26 149.54 103.52 149.52Q104.16 148.65 105.02 148.02Q105.44 147.64 106.00 147.54Q106.26 147.54 106.52 147.52Q106.66 147.16 107.02 147.02Q107.44 146.64 108.00 146.54Q108.26 146.54 108.52 146.52Q108.66 146.16 109.02 146.02Q109.44 145.63 110.00 145.54Q110.26 145.54 110.52 145.52Q110.66 145.16 111.02 145.02Q111.44 144.64 112.00 144.54Q112.26 144.54 112.53 144.52Q112.66 144.16 113.03 144.03Q113.44 143.64 114.00 143.54Q114.76 143.54 115.52 143.52Q115.66 143.15 116.02 143.02Q116.44 142.63 117.00 142.53Q117.26 142.54 117.52 142.52Q117.66 142.15 118.02 142.02Q118.44 141.63 119.00 141.54Q119.26 141.54 119.52 141.52Q119.66 141.16 120.02 141.02Q120.44 140.64 121.00 140.54Q121.26 140.54 121.52 140.52Q121.66 140.16 122.02 140.02Q122.44 139.64 123.00 139.54Q123.26 139.55 123.52 139.52Q123.66 139.16 124.02 139.02Q124.44 138.64 125.00 138.54Q125.76 138.54 126.52 138.51Q126.66 138.15 127.02 138.02Q127.44 137.63 128.00 137.53Q128.26 137.54 128.52 137.51Q128.66 137.15 129.02 137.02Q129.44 136.63 130.00 136.53Q130.76 136.53 131.51 136.51Q131.65 136.15 132.01 136.01Q132.44 135.63 133.00 135.53Q133.76 135.53 134.51 135.51Q134.65 135.15 135.01 135.01Q135.52 134.61 136.17 134.51C137.86 135.18 136.64 134.92 139.20 134.30C142.50 133.49 145.82 132.77 149.12 131.97C153.13 131.00 157.11 129.93 161.12 128.99C162.09 128.76 163.10 128.70 164.08 128.47C166.41 127.94 168.72 127.29 171.06 126.72C171.40 126.63 171.74 126.56 172.09 126.51C176.07 125.97 180.04 125.37 184.03 124.95C194.61 123.85 205.37 123.46 216.00 123.77C219.65 123.88 223.31 124.07 226.96 124.32C228.63 124.44 230.28 124.75 231.95 124.90C232.96 124.98 233.98 124.95 234.99 125.02C239.95 125.35 245.01 126.06 249.86 127.09C260.92 129.45 271.78 132.73 282.82 135.19C283.17 135.26 283.49 134.95 283.83 134.83ZM182.52 259.02Q182.56 260.51 182.67 262.00Q182.65 263.00 182.52 264.00Q182.52 269.50 182.53 275.00Q182.63 275.56 183.01 275.99Q183.15 276.35 183.51 276.49Q183.53 277.24 183.52 278.00Q183.62 278.57 184.01 278.99Q184.15 279.35 184.51 279.49Q184.53 279.74 184.52 280.00Q184.62 280.57 185.01 280.99Q185.15 281.35 185.51 281.49Q185.53 281.74 185.52 282.00Q185.62 282.57 186.01 282.99Q186.43 283.38 187.00 283.48Q187.26 283.47 187.51 283.49Q188.15 284.35 189.01 284.99Q189.43 285.38 190.00 285.48Q197.00 285.48 204.00 285.48Q204.57 285.38 204.99 284.99Q205.85 284.35 206.49 283.49Q206.74 283.47 207.00 283.48Q207.57 283.38 207.99 282.99Q208.38 282.57 208.48 282.00Q208.47 281.74 208.49 281.49Q209.35 280.85 209.99 279.99Q210.38 279.56 210.48 279.00Q210.47 277.74 210.49 276.49Q210.85 276.35 210.99 275.99Q211.38 275.57 211.48 275.00Q211.47 271.74 211.49 268.49Q211.85 268.35 211.99 267.99Q212.37 267.56 212.48 267.00Q212.47 253.50 212.43 240.00Q212.34 239.45 211.96 239.04Q211.83 238.68 211.47 238.54Q211.43 236.27 211.43 234.00Q211.34 233.45 210.96 233.04Q210.83 232.68 210.47 232.54Q210.41 231.77 210.42 231.00Q210.33 230.45 209.96 230.04Q209.82 229.68 209.46 229.54Q209.40 229.28 209.40 229.00Q209.32 228.46 208.94 228.06Q208.44 227.56 207.95 227.05Q207.54 226.68 207.00 226.60Q206.72 226.61 206.45 226.54Q206.31 226.18 205.95 226.05Q205.54 225.68 205.00 225.60Q203.72 225.60 202.44 225.54Q202.30 225.19 201.94 225.06Q201.54 224.69 201.00 224.62Q200.05 225.08 199.00 225.24Q196.00 225.12 193.00 224.94Q192.53 224.92 192.15 225.20Q191.82 225.31 191.65 225.61Q191.34 225.77 191.00 225.68Q190.50 225.65 190.00 225.59Q189.50 225.57 189.09 225.85Q189.18 225.40 188.96 225.00Q188.44 223.47 187.77 222.00Q187.14 220.78 186.44 219.59Q186.05 218.95 185.63 218.33Q185.04 217.46 184.38 216.65Q183.48 215.54 182.53 214.47Q181.05 212.96 179.54 211.46Q178.76 210.80 177.96 210.17Q177.00 209.48 176.00 208.86Q174.80 208.16 173.62 207.44Q172.30 206.86 170.98 206.30Q170.03 205.93 169.06 205.64Q168.04 205.31 167.00 205.03Q165.42 204.69 163.81 204.46Q162.41 204.32 161.00 204.25Q160.00 204.19 159.00 204.24Q157.58 204.31 156.16 204.44Q155.08 204.65 154.00 204.85Q152.36 205.16 150.74 205.57Q149.85 205.80 149.00 206.16Q147.35 206.85 145.73 207.62Q144.09 208.53 142.46 209.47Q140.82 210.85 139.15 212.20Q138.37 212.90 137.64 213.65Q136.04 215.55 134.50 217.51Q133.96 218.40 133.35 219.26Q132.80 220.16 132.26 221.08Q131.88 221.80 131.51 222.51Q130.98 223.92 130.44 225.33Q129.88 227.23 129.43 229.17Q129.08 231.08 128.79 233.00Q128.69 233.50 128.68 234.00Q128.63 235.00 128.63 236.00Q128.63 237.00 128.74 238.00Q128.85 239.00 129.03 240.00Q129.25 241.26 129.50 242.51Q130.01 244.42 130.57 246.31Q131.07 247.39 131.50 248.50Q132.00 249.51 132.48 250.54Q133.50 252.03 134.47 253.54Q136.23 255.77 138.21 257.82Q138.38 258.15 138.71 258.32Q139.88 259.16 140.98 260.09Q141.34 260.23 141.48 260.60Q142.71 261.41 143.96 262.18Q144.32 262.30 144.46 262.64Q145.23 262.93 146.00 263.22Q146.27 263.32 146.51 263.50Q147.24 263.82 148.00 264.08Q148.35 264.20 148.64 264.42Q148.82 264.71 149.14 264.83Q149.51 265.15 150.00 265.16Q150.44 265.09 150.81 265.34Q151.17 265.43 151.31 265.77Q151.59 266.08 152.00 266.10Q153.00 266.05 154.00 266.08Q155.00 266.22 156.00 266.39Q156.50 266.52 157.00 266.42Q157.50 266.37 158.00 266.33Q158.41 266.22 158.79 266.39Q159.37 266.64 160.00 266.71Q160.49 266.84 161.00 266.81Q161.50 266.83 162.00 266.79Q163.75 266.58 165.51 266.50Q165.71 266.26 166.01 266.14Q166.42 265.74 166.98 265.64Q167.24 265.58 167.48 265.49Q168.25 265.43 169.00 265.28Q169.98 264.98 171.00 264.80Q171.90 264.76 172.79 264.59Q174.63 264.10 176.42 263.46Q177.20 262.75 178.03 262.08Q178.30 261.74 178.71 261.58Q178.96 261.49 179.21 261.36Q179.62 261.15 180.00 260.88Q181.28 259.98 182.52 259.02ZM235.92 225.85Q235.50 225.57 235.00 225.60Q232.50 225.81 230.00 225.94Q227.00 226.09 224.00 226.20Q222.95 226.05 222.00 225.59Q221.50 225.59 221.00 225.60Q220.46 225.68 220.05 226.05Q219.69 226.18 219.55 226.54Q219.28 226.60 219.00 226.59Q218.45 226.67 218.05 227.05Q216.54 228.54 215.05 230.05Q214.68 230.46 214.60 231.00Q214.59 231.77 214.54 232.55Q214.18 232.68 214.05 233.05Q213.67 233.45 213.58 234.00Q213.57 236.27 213.53 238.54Q213.17 238.68 213.04 239.04Q212.67 239.45 212.58 240.00Q212.51 256.50 212.53 273.00Q212.63 273.56 213.01 273.99Q213.15 274.35 213.51 274.49Q213.53 276.24 213.52 278.00Q213.62 278.56 214.01 278.99Q214.15 279.35 214.51 279.49Q214.53 279.74 214.52 280.00Q214.62 280.57 215.01 280.99Q215.15 281.35 215.51 281.49Q215.53 281.74 215.52 282.00Q215.62 282.57 216.01 282.99Q216.43 283.38 217.00 283.48Q217.26 283.47 217.51 283.49Q218.15 284.35 219.01 284.99Q219.43 285.38 220.00 285.48Q227.00 285.48 234.00 285.48Q234.57 285.38 234.99 284.99Q235.35 284.85 235.49 284.49Q235.75 284.47 236.00 284.48Q236.57 284.38 236.99 283.99Q238.10 283.10 238.99 281.99Q239.38 281.57 239.48 281.00Q239.47 280.74 239.49 280.49Q239.85 280.35 239.99 279.99Q240.38 279.57 240.48 279.00Q240.47 278.24 240.49 277.49Q240.85 277.35 240.99 276.99Q241.38 276.57 241.48 276.00Q241.47 273.74 241.49 271.49Q241.85 271.35 241.99 270.99Q242.38 270.57 242.48 270.00Q242.48 268.00 242.48 266.00Q242.33 265.01 242.31 264.00Q242.43 262.42 242.48 260.84Q242.77 260.72 243.00 260.92Q244.69 262.26 246.41 263.56Q247.09 264.02 247.85 264.36Q248.09 264.46 248.35 264.55Q249.67 264.89 251.00 265.22Q251.59 265.38 252.13 265.67Q252.53 265.91 253.00 265.88Q253.50 265.92 254.00 265.96Q254.52 265.96 254.94 266.25Q255.21 266.36 255.44 266.53Q255.71 266.67 256.00 266.73Q256.47 266.96 257.00 266.94Q259.00 266.98 261.00 267.04Q262.01 266.91 263.00 266.71Q263.50 266.75 264.00 266.81Q265.00 266.79 266.00 266.71Q267.50 266.83 269.00 266.87Q269.51 267.00 270.00 266.81Q270.31 266.81 270.52 266.58Q270.68 266.28 271.02 266.24Q271.48 266.00 272.00 266.08Q272.46 266.11 272.84 265.83Q273.14 265.68 273.34 265.40Q273.63 265.14 274.00 265.03Q274.76 264.70 275.58 264.68Q275.73 264.36 276.08 264.26Q276.50 263.99 277.00 264.03Q277.41 264.04 277.70 263.76Q277.86 263.44 278.20 263.34Q278.57 263.12 279.00 263.13Q279.46 263.10 279.79 262.79Q280.04 262.58 280.29 262.37Q280.90 261.95 281.28 261.31Q281.97 261.03 282.49 260.49Q282.78 260.45 283.00 260.27Q283.47 260.15 283.77 259.77Q284.02 259.55 284.27 259.33Q284.76 258.76 285.14 258.12Q286.02 257.00 287.10 256.07Q287.70 255.63 288.22 255.08Q289.09 254.02 289.69 252.79Q289.90 252.41 290.19 252.08Q290.34 251.73 290.69 251.58Q290.99 251.37 291.01 251.00Q291.10 250.57 291.32 250.19Q291.86 248.89 292.55 247.66Q292.99 246.48 293.43 245.30Q293.87 243.65 294.33 242.00Q294.65 240.51 294.87 239.00Q294.98 238.00 295.03 237.00Q295.10 236.00 295.08 235.00Q295.01 233.49 294.81 232.00Q294.67 230.83 294.46 229.67Q294.18 228.33 293.87 227.00Q293.70 226.29 293.46 225.60Q292.93 224.19 292.37 222.78Q291.85 221.79 291.32 220.80Q290.78 219.86 290.20 218.95Q289.35 217.73 288.49 216.51Q287.62 215.38 286.68 214.31Q285.69 213.31 284.65 212.36Q283.58 211.42 282.49 210.50Q281.58 209.97 280.71 209.37Q279.38 208.59 278.00 207.91Q277.01 207.42 276.00 206.99Q275.02 206.59 274.00 206.29Q272.41 205.81 270.79 205.44Q269.90 205.24 269.00 205.13Q268.00 205.03 267.00 204.94Q266.00 204.86 265.00 204.88Q264.00 204.91 263.00 204.93Q261.50 205.07 260.00 205.25Q259.25 205.34 258.50 205.50Q256.87 205.91 255.27 206.41Q253.87 206.97 252.46 207.48Q251.48 207.99 250.52 208.51Q249.57 209.03 248.66 209.60Q247.45 210.45 246.25 211.33Q245.69 211.72 245.22 212.21Q243.50 214.01 241.73 215.76Q240.59 217.10 239.48 218.48Q238.91 219.36 238.35 220.24Q237.80 221.17 237.31 222.13Q236.65 223.55 236.07 225.00Q235.84 225.40 235.92 225.85Z" fill="#55443a" transform="scale(1)"/></g><g data-avatar-compiled-surface-layer="primary" clip-path="url(#r5-compiled-owner-6)"><g transform="translate(0 12.633813732946996)"><g><path data-avatar-compiled-surface-marking="beaver-face-mask" data-avatar-surface-decal="beaver-face-mask" data-avatar-surface-decal-renderer="compiled" d="M271.56 218.25C270.83 224.26 271.12 225.71 268.51 231.33C264.09 240.85 255.84 247.96 246.72 252.78C235.96 258.46 223.92 261.10 211.78 261.04C202.66 260.99 193.49 259.43 184.97 256.10C172.86 251.35 161.23 242.92 155.89 230.69C153.41 225.01 153.74 223.59 153.14 217.57C153.86 211.71 153.57 210.15 156.17 204.70C160.55 195.50 168.87 188.88 177.84 184.47C191.35 177.82 207.08 175.86 221.95 177.53C227.75 178.18 234.03 179.51 239.55 181.46C251.47 185.68 263.38 193.48 268.79 205.35C271.28 210.81 270.97 212.41 271.56 218.25Z" fill="#ae9779" fill-opacity="1" transform="translate(0 -12.633813732946996) scale(1)"/><g data-avatar-face-surface-layer="primary"><path data-avatar-face-feature="eye-0" d="M 179.711 151.475 L 182.051 151.553 L 184.304 151.944 L 186.384 152.633 L 188.209 153.596 L 189.709 154.797 L 190.828 156.190 L 191.521 157.724 L 191.763 159.339 L 191.786 163.363 L 191.802 167.452 L 191.812 171.605 L 191.816 175.821 L 191.812 180.103 L 191.801 184.457 L 191.782 188.883 L 191.756 193.382 L 191.513 195.239 L 190.818 197.045 L 189.698 198.731 L 188.196 200.230 L 186.369 201.483 L 184.289 202.441 L 182.035 203.065 L 179.695 203.330 L 179.695 203.330 L 179.695 203.330 L 179.695 203.330 L 179.695 203.330 L 179.695 203.330 L 179.695 203.330 L 179.695 203.330 L 179.695 203.330 L 177.357 203.225 L 175.112 202.753 L 173.046 201.935 L 171.239 200.803 L 169.759 199.401 L 168.663 197.785 L 167.994 196.020 L 167.777 194.173 L 167.804 189.665 L 167.823 185.233 L 167.835 180.875 L 167.839 176.591 L 167.835 172.377 L 167.825 168.228 L 167.808 164.144 L 167.784 160.129 L 168.003 158.502 L 168.674 156.927 L 169.771 155.463 L 171.252 154.166 L 173.060 153.082 L 175.127 152.254 L 177.373 151.711 L 179.711 151.475 L 179.711 151.475 L 179.711 151.475 L 179.711 151.475 L 179.711 151.475 L 179.711 151.475 L 179.711 151.475 L 179.711 151.475 Z" fill="#ebd7b5"/><path data-avatar-face-feature="eye-1" d="M 245.387 151.854 L 247.708 152.118 L 249.943 152.687 L 252.005 153.539 L 253.816 154.643 L 255.305 155.958 L 256.415 157.434 L 257.103 159.017 L 257.343 160.646 L 257.367 164.662 L 257.384 168.745 L 257.394 172.895 L 257.398 177.109 L 257.394 181.393 L 257.382 185.751 L 257.363 190.183 L 257.336 194.691 L 257.094 196.535 L 256.404 198.292 L 255.293 199.895 L 253.803 201.280 L 251.991 202.392 L 249.928 203.186 L 247.693 203.631 L 245.371 203.709 L 245.371 203.709 L 245.371 203.709 L 245.371 203.709 L 245.371 203.709 L 245.371 203.709 L 245.371 203.709 L 245.371 203.709 L 245.371 203.709 L 243.053 203.418 L 240.826 202.768 L 238.778 201.786 L 236.985 200.512 L 235.517 198.996 L 234.430 197.297 L 233.766 195.483 L 233.550 193.623 L 233.576 189.125 L 233.595 184.699 L 233.606 180.345 L 233.610 176.062 L 233.607 171.847 L 233.597 167.694 L 233.580 163.605 L 233.557 159.581 L 233.775 157.968 L 234.440 156.443 L 235.529 155.062 L 236.998 153.878 L 238.792 152.936 L 240.842 152.271 L 243.069 151.906 L 245.387 151.854 L 245.387 151.854 L 245.387 151.854 L 245.387 151.854 L 245.387 151.854 L 245.387 151.854 L 245.387 151.854 L 245.387 151.854 Z" fill="#ebd7b5"/></g></g></g></g></g></g></g></g></g></g></svg>