<svg xmlns="http://www.w3.org/2000/svg" class="interactive-avatar__canvas" viewBox="0 0 420 420" aria-hidden="true" focusable="false" width="256" height="256"><defs><clipPath id="oneworks-avatar-export-frame"><path d="M 0 0 H 420 V 420 H 0 Z"/></clipPath></defs><g clip-path="url(#oneworks-avatar-export-frame)"><path d="M 0 0 H 420 V 420 H 0 Z" fill="transparent"/><g><defs><clipPath id="rb-clip"><path d=""/></clipPath><filter id="rb-face-shadow-blur" x="-50%" y="-50%" width="200%" height="200%"><feGaussianBlur stdDeviation="0"/></filter><filter id="rb-avatar-shadow" x="-100%" y="-100%" width="300%" height="300%"><feDropShadow dx="8.485281374238571" dy="8.48528137423857" stdDeviation="8" flood-color="#000000" flood-opacity="0.24"/></filter></defs><g transform="translate(-106.1230487935245 72) translate(210 210) rotate(7) scale(1.72) translate(-210 -210)"><g data-avatar-entity-fragment-root="true" data-avatar-entity-preset="chinchilla" data-avatar-fragment-composition="compiled-owner-partition" data-avatar-fragment-build-count="1" data-avatar-fragment-build-ms="100.557" data-avatar-fragment-compile-count="10" data-avatar-fragment-compile-ms="178.706" data-avatar-fragment-drag-build-max-ms="0.000" data-avatar-fragment-drag-build-mean-ms="0.000" data-avatar-fragment-drag-build-p95-ms="0.000" data-avatar-fragment-drag-build-samples="0" data-avatar-fragment-quality="full" data-avatar-fragment-raster-size="420" data-avatar-fragment-revision="{&quot;groups&quot;:[{&quot;id&quot;:&quot;anatomy-ear-left&quot;,&quot;primitiveIds&quot;:[&quot;ear-left&quot;],&quot;resolution&quot;:28},{&quot;id&quot;:&quot;anatomy-ear-right&quot;,&quot;primitiveIds&quot;:[&quot;ear-right&quot;],&quot;resolution&quot;:28},{&quot;id&quot;:&quot;anatomy-cheek-left&quot;,&quot;primitiveIds&quot;:[&quot;cheek-left&quot;],&quot;resolution&quot;:28},{&quot;id&quot;:&quot;anatomy-cheek-right&quot;,&quot;primitiveIds&quot;:[&quot;cheek-right&quot;],&quot;resolution&quot;:28},{&quot;id&quot;:&quot;anatomy-primary&quot;,&quot;primitiveIds&quot;:[&quot;primary&quot;],&quot;resolution&quot;:28}],&quot;id&quot;:&quot;production-chinchilla&quot;,&quot;primitives&quot;:[{&quot;id&quot;:&quot;ear-left&quot;,&quot;materialId&quot;:&quot;ear-left&quot;,&quot;position&quot;:{&quot;x&quot;:-69.12,&quot;y&quot;:-74.61,&quot;z&quot;:-13.711148748372619},&quot;productionShape&quot;:&quot;ellipse&quot;,&quot;roundness&quot;:100,&quot;rotation&quot;:{&quot;x&quot;:-0.06981317007977318,&quot;y&quot;:-0.15707963267948966,&quot;z&quot;:-0.15707963267948966},&quot;scale&quot;:{&quot;x&quot;:52.3566,&quot;y&quot;:52.8286,&quot;z&quot;:32.16846437118191},&quot;shape&quot;:&quot;ellipse&quot;},{&quot;id&quot;:&quot;ear-right&quot;,&quot;materialId&quot;:&quot;ear-right&quot;,&quot;position&quot;:{&quot;x&quot;:69.12,&quot;y&quot;:-74.61,&quot;z&quot;:-13.711148748372619},&quot;productionShape&quot;:&quot;ellipse&quot;,&quot;roundness&quot;:100,&quot;rotation&quot;:{&quot;x&quot;:-0.06981317007977318,&quot;y&quot;:0.15707963267948966,&quot;z&quot;:0.15707963267948966},&quot;scale&quot;:{&quot;x&quot;:52.3566,&quot;y&quot;:52.8286,&quot;z&quot;:32.16846437118191},&quot;shape&quot;:&quot;ellipse&quot;},{&quot;id&quot;:&quot;cheek-left&quot;,&quot;materialId&quot;:&quot;cheek-left&quot;,&quot;position&quot;:{&quot;x&quot;:-51.84,&quot;y&quot;:31.48,&quot;z&quot;:41.13344624511786},&quot;productionShape&quot;:&quot;sphere&quot;,&quot;roundness&quot;:100,&quot;rotation&quot;:{&quot;x&quot;:0,&quot;y&quot;:0,&quot;z&quot;:0},&quot;scale&quot;:{&quot;x&quot;:45.870000000000005,&quot;y&quot;:50.04,&quot;z&quot;:57.175490280713824},&quot;shape&quot;:&quot;sphere&quot;},{&quot;id&quot;:&quot;cheek-right&quot;,&quot;materialId&quot;:&quot;cheek-right&quot;,&quot;position&quot;:{&quot;x&quot;:51.84,&quot;y&quot;:31.48,&quot;z&quot;:41.13344624511786},&quot;productionShape&quot;:&quot;sphere&quot;,&quot;roundness&quot;:100,&quot;rotation&quot;:{&quot;x&quot;:0,&quot;y&quot;:0,&quot;z&quot;:0},&quot;scale&quot;:{&quot;x&quot;:45.870000000000005,&quot;y&quot;:50.04,&quot;z&quot;:57.175490280713824},&quot;shape&quot;:&quot;sphere&quot;},{&quot;bottomTaper&quot;:12,&quot;id&quot;:&quot;primary&quot;,&quot;materialId&quot;:&quot;primary&quot;,&quot;position&quot;:{&quot;x&quot;:0,&quot;y&quot;:15,&quot;z&quot;:0},&quot;productionShape&quot;:&quot;ellipse&quot;,&quot;roundness&quot;:100,&quot;rotation&quot;:{&quot;x&quot;:0,&quot;y&quot;:0,&quot;z&quot;:0},&quot;scale&quot;:{&quot;x&quot;:125.5824,&quot;y&quot;:88.7242,&quot;z&quot;:102.93908598778212},&quot;shape&quot;:&quot;ellipse&quot;}],&quot;resolution&quot;:28,&quot;smoothUnionPairs&quot;:[],&quot;smoothUnionRadius&quot;:0}:420:0.225481:-0.256933" data-avatar-fragment-release-build-ms="0.000" data-avatar-fragment-settle-build-ms="0.000" data-avatar-fragment-path-characters="76482" data-avatar-fragment-path-serialization-ms="0.002" data-avatar-fragment-candidate-tests="293287" data-avatar-fragment-contour-ms="12.361" data-avatar-fragment-curve-segments="2336" data-avatar-fragment-contour-segments="2262" data-avatar-fragment-depth-owner-ms="15.363" data-avatar-fragment-line-segments="0" data-avatar-fragment-max-curve-error="0.125" data-avatar-fragment-shared-curve-reuse="378" data-avatar-fragment-null-owner-pixels="0" data-avatar-fragment-transform-ms="0.271"><defs><filter id="rb-entity-face-shadow" x="-50%" y="-50%" width="200%" height="200%"><feGaussianBlur stdDeviation="0"/></filter><clipPath id="rb-compiled-owner-0" clipPathUnits="userSpaceOnUse"><path d="M192.33 126.83Q192.13 127.25 191.75 127.51Q187.87 127.53 184.00 127.59Q183.45 127.67 183.05 128.05Q182.69 128.17 182.55 128.52Q181.27 128.56 180.00 128.60Q179.46 128.69 179.06 129.06Q178.70 129.17 178.56 129.52Q176.78 129.53 175.00 129.59Q174.46 129.69 174.06 130.06Q173.71 130.17 173.56 130.52Q172.28 130.55 171.00 130.56Q170.45 130.65 170.03 131.03Q169.67 131.16 169.53 131.52Q167.77 131.55 166.00 131.57Q165.45 131.66 165.04 132.04Q164.68 132.17 164.54 132.52Q163.27 132.57 162.00 132.57Q161.45 132.66 161.04 133.04Q160.67 133.17 160.54 133.53Q159.27 133.57 158.00 133.59Q157.46 133.68 157.05 134.05Q156.69 134.18 156.55 134.54Q155.78 134.59 155.00 134.62Q154.47 134.70 154.07 135.07Q153.71 135.19 153.57 135.54Q152.79 135.59 152.00 135.67Q151.49 135.75 151.12 136.12Q150.76 136.21 150.62 136.54Q150.31 136.60 150.00 136.61Q149.47 136.70 149.07 137.07Q148.71 137.19 148.57 137.54Q147.78 137.58 147.00 137.70Q146.50 137.78 146.15 138.15Q145.83 138.26 145.65 138.54Q145.32 138.60 145.00 138.64Q144.47 138.72 144.09 139.09Q143.74 139.19 143.59 139.54Q143.30 139.58 143.00 139.60Q142.46 139.69 142.07 140.07Q141.71 140.18 141.57 140.53Q141.29 140.58 141.00 140.58Q140.45 140.67 140.05 141.05Q139.68 141.17 139.55 141.53Q138.77 141.58 138.00 141.62Q137.47 141.71 137.08 142.08Q136.72 142.20 136.58 142.55Q136.29 142.62 136.00 142.62Q135.46 142.70 135.07 143.07Q134.71 143.19 134.57 143.55Q134.29 143.62 134.00 143.67Q133.49 143.75 133.12 144.12Q132.21 144.70 131.52 145.52Q131.26 145.55 131.00 145.58Q130.46 145.68 130.07 146.07Q129.70 146.19 129.57 146.54Q129.27 146.58 129.00 146.69Q128.50 146.78 128.15 147.15Q127.55 147.54 127.05 148.05Q126.68 148.18 126.55 148.54Q126.27 148.58 126.00 148.62Q125.47 148.71 125.08 149.08Q124.20 149.69 123.54 150.53Q123.27 150.58 123.00 150.58Q122.46 150.67 122.05 151.05Q121.18 151.68 120.54 152.53Q120.27 152.58 120.00 152.58Q119.46 152.68 119.05 153.05Q117.18 154.68 115.53 156.53Q115.27 156.56 115.00 156.61Q114.47 156.70 114.08 157.08Q113.54 157.54 113.04 158.04Q108.32 162.49 103.83 167.18C103.69 166.97 103.58 166.74 103.41 166.55C102.94 166.05 102.40 165.63 101.94 165.12C100.67 163.71 99.38 162.32 98.23 160.81C94.93 156.46 92.34 151.64 90.50 146.50C88.39 140.57 87.22 134.28 87.32 127.97C87.41 123.06 88.30 118.28 89.66 113.56C90.57 110.41 91.79 107.12 93.43 104.27C96.43 99.08 94.81 101.65 97.80 97.72C101.20 93.25 97.65 97.48 102.88 91.83C103.20 91.49 103.45 91.07 103.80 90.76C104.87 89.85 106.03 89.05 107.13 88.16C107.68 87.71 108.19 87.22 108.73 86.76C108.89 86.63 109.04 86.51 109.22 86.41C110.53 85.72 111.90 85.14 113.20 84.42C113.87 84.05 114.44 83.53 115.11 83.15C115.55 82.89 116.07 82.77 116.52 82.52C116.72 82.41 116.85 82.20 117.04 82.08C117.88 81.57 119.20 81.07 120.07 80.80C120.38 80.70 120.70 80.67 121.02 80.61C122.68 80.30 124.33 79.92 126.00 79.69C128.28 79.37 127.39 79.89 129.02 79.44C130.23 79.10 131.64 78.42 132.66 77.85C132.93 77.71 133.07 77.35 133.36 77.29C134.56 77.02 135.81 76.90 137.04 76.89C139.30 76.85 141.57 76.92 143.82 77.13C147.63 77.50 151.32 78.54 154.92 79.75C157.57 80.64 160.40 81.35 162.85 82.75C165.05 84.02 167.20 85.39 169.36 86.73C169.55 86.84 169.74 86.96 169.91 87.11C171.73 88.60 173.62 90.03 175.34 91.64C178.33 94.46 180.99 97.71 183.23 101.15C186.01 105.43 188.21 110.22 189.64 115.12C190.71 118.78 191.01 120.47 191.47 124.08C191.78 126.54 191.12 125.48 192.33 126.83Z" transform="scale(1)"/></clipPath><clipPath id="rb-compiled-owner-1" clipPathUnits="userSpaceOnUse"><path d="M315.17 170.00Q314.77 170.03 314.49 169.75Q314.37 169.29 313.99 169.01Q313.85 168.65 313.49 168.51Q313.47 168.25 313.48 168.00Q313.38 167.43 312.99 167.01Q312.49 166.51 311.99 166.01Q311.57 165.62 311.00 165.52Q310.74 165.53 310.49 165.51Q306.35 161.15 301.98 157.02Q301.56 156.63 301.00 156.53Q300.74 156.53 300.49 156.51Q299.85 155.65 298.99 155.01Q298.56 154.63 298.00 154.53Q297.74 154.53 297.49 154.51Q296.35 153.15 294.98 152.02Q294.56 151.63 294.00 151.53Q293.74 151.53 293.48 151.51Q292.85 150.65 291.98 150.02Q291.56 149.63 291.00 149.53Q290.74 149.53 290.48 149.51Q289.85 148.65 288.98 148.02Q288.56 147.63 288.00 147.53Q287.74 147.54 287.48 147.52Q287.35 147.15 286.98 147.02Q286.56 146.63 286.00 146.53Q285.74 146.54 285.48 146.51Q285.35 146.15 284.98 146.02Q284.56 145.63 284.00 145.53Q283.74 145.54 283.48 145.51Q283.35 145.15 282.98 145.02Q282.56 144.63 282.00 144.53Q281.74 144.54 281.48 144.51Q281.35 144.15 280.98 144.02Q280.56 143.63 280.00 143.53Q279.74 143.54 279.48 143.51Q279.35 143.15 278.98 143.02Q278.56 142.63 278.00 142.53Q277.74 142.54 277.48 142.51Q277.34 142.15 276.98 142.02Q276.56 141.63 276.00 141.53Q275.74 141.54 275.48 141.52Q275.34 141.15 274.98 141.02Q274.56 140.63 274.00 140.54Q273.74 140.54 273.48 140.52Q273.34 140.15 272.98 140.02Q272.56 139.64 272.00 139.54Q271.74 139.54 271.48 139.52Q271.34 139.16 270.98 139.02Q270.56 138.64 270.00 138.54Q269.74 138.55 269.48 138.52Q269.34 138.16 268.98 138.02Q268.56 137.64 268.00 137.54Q267.24 137.54 266.48 137.52Q266.34 137.15 265.98 137.02Q265.56 136.64 265.00 136.54Q264.24 136.54 263.48 136.52Q263.34 136.15 262.98 136.02Q262.56 135.63 262.00 135.53Q261.24 135.54 260.48 135.52Q260.35 135.15 259.98 135.02Q259.56 134.63 259.00 134.53Q257.74 134.53 256.48 134.51Q256.35 134.15 255.98 134.02Q255.56 133.63 255.00 133.53Q253.74 133.53 252.48 133.51Q252.35 133.15 251.98 133.02Q251.56 132.63 251.00 132.53Q249.74 132.53 248.48 132.51Q248.35 132.15 247.98 132.02Q247.56 131.63 247.00 131.53Q246.24 131.53 245.48 131.51Q245.34 131.15 244.98 131.02Q244.56 130.64 244.00 130.54Q242.74 130.54 241.48 130.51Q241.34 130.15 240.98 130.02Q240.56 129.64 240.00 129.54Q238.74 129.54 237.48 129.51Q237.34 129.15 236.98 129.02Q236.56 128.64 236.00 128.54Q233.74 128.54 231.48 128.51Q231.35 128.15 230.98 128.02Q230.56 127.63 230.00 127.53Q227.42 127.53 224.83 127.51C224.77 126.13 225.37 124.16 225.65 123.04C226.73 118.63 228.31 114.24 230.47 110.23C234.06 103.56 239.20 97.88 245.38 93.51C247.05 92.33 250.35 90.56 251.68 89.86C252.85 89.26 254.01 88.64 255.23 88.16C258.50 86.87 262.04 86.09 265.50 85.58C266.69 85.40 267.87 85.11 269.08 84.99C272.20 84.70 275.66 84.64 278.77 85.15C279.50 85.27 280.13 85.75 280.86 85.90C281.27 85.99 281.71 85.76 282.12 85.87C282.35 85.93 282.43 86.25 282.63 86.37C283.01 86.62 283.43 86.82 283.86 86.97C284.85 87.33 285.88 87.56 286.88 87.89C287.43 88.08 287.94 88.36 288.50 88.52C288.96 88.65 289.46 88.64 289.92 88.77C291.79 89.31 293.64 89.89 295.47 90.55C295.95 90.72 296.39 90.99 296.82 91.27C298.15 92.11 299.42 93.05 300.74 93.91C301.31 94.28 303.66 95.59 304.63 96.47C308.76 100.24 310.57 101.71 313.84 106.13C318.31 112.16 321.06 118.92 322.94 126.12C324.02 130.27 324.63 134.74 324.51 139.02C324.38 143.99 323.68 148.64 322.36 153.47C321.49 156.67 320.35 159.94 318.77 162.88C318.07 164.18 317.38 165.48 316.62 166.75C314.96 169.49 315.24 167.79 315.17 170.00Z" transform="scale(1)"/></clipPath><clipPath id="rb-compiled-owner-2" clipPathUnits="userSpaceOnUse"><path d="M131.02 226.00Q131.09 224.00 131.29 222.00Q131.36 221.30 131.52 220.61Q131.74 219.80 131.95 219.00Q132.18 217.53 132.40 216.05Q132.82 214.07 133.37 212.11Q133.96 210.44 134.62 208.80Q134.95 207.52 135.42 206.29Q135.98 204.96 136.57 203.65Q136.95 202.95 137.35 202.26Q139.10 199.60 140.74 196.87Q141.54 195.62 142.45 194.45Q144.10 192.58 145.82 190.80Q148.00 189.02 150.18 187.24Q150.76 186.80 151.38 186.43Q153.04 185.48 154.76 184.63Q155.36 184.32 156.00 184.11Q157.50 183.57 159.00 183.03Q159.48 182.82 160.00 182.79Q162.00 182.52 164.00 182.31Q165.50 182.25 167.00 182.26Q167.50 182.25 168.00 182.28Q168.47 182.27 168.93 182.40Q170.95 182.84 172.95 183.35Q174.64 183.93 176.30 184.59Q177.03 184.93 177.71 185.35Q178.57 185.95 179.43 186.54Q180.35 187.10 181.24 187.69Q183.35 189.62 185.54 191.46Q186.18 192.26 186.78 193.10Q188.03 194.93 189.34 196.72Q189.93 197.61 190.50 198.50Q190.93 199.23 191.27 200.00Q191.95 201.60 192.65 203.18Q192.94 204.05 193.30 204.89Q193.92 206.19 194.50 207.51Q195.04 209.40 195.55 211.30Q195.81 212.64 196.00 214.00Q196.29 215.13 196.55 216.27Q196.69 217.13 196.77 218.00Q196.87 219.00 196.98 220.00Q197.06 220.50 197.02 221.00Q197.00 222.00 196.96 223.00Q197.08 224.50 197.12 226.00Q197.07 227.50 197.03 229.00Q197.04 229.51 196.93 230.00Q196.67 231.50 196.38 233.00Q196.24 234.00 196.09 235.00Q195.77 236.60 195.44 238.20Q195.21 239.11 194.88 240.00Q194.21 241.79 193.54 243.58Q192.74 245.28 192.00 247.00Q191.71 247.65 191.40 248.29Q191.21 248.67 190.96 249.00Q189.32 251.34 187.63 253.64Q186.61 254.62 185.54 255.54Q184.55 256.56 183.57 257.58Q182.88 258.40 182.17 259.18Q181.95 259.42 181.67 259.57Q179.81 260.09 177.95 260.62Q177.48 260.76 177.00 260.83Q175.50 261.04 174.00 261.26Q170.01 262.03 166.00 262.69Q165.51 262.83 165.00 262.81Q164.00 262.72 163.00 262.76Q162.00 262.91 161.00 263.11Q160.51 263.26 160.00 263.19Q159.00 263.11 158.00 263.16Q157.00 263.26 156.00 263.38Q155.50 263.46 155.00 263.42Q153.50 263.28 152.00 263.12Q151.48 263.11 151.00 262.92Q150.61 262.84 150.26 262.63Q150.00 262.50 149.76 262.32Q147.69 260.87 145.59 259.44Q144.93 259.05 144.26 258.65Q143.99 258.50 143.76 258.28Q141.65 256.36 139.63 254.35Q138.97 253.53 138.42 252.62Q137.32 250.80 136.20 249.00Q135.16 247.01 134.13 245.00Q133.78 244.26 133.51 243.48Q133.02 241.92 132.53 240.36Q132.07 238.02 131.45 235.70Q131.37 235.36 131.36 235.00Q131.24 233.00 131.11 231.00Q131.09 229.50 131.11 228.00Q131.04 227.00 131.02 226.00Z" transform="scale(1)"/></clipPath><clipPath id="rb-compiled-owner-3" clipPathUnits="userSpaceOnUse"><path d="M261.22 243.00Q261.37 241.00 261.60 239.00Q261.78 238.00 261.94 237.00Q262.04 235.50 262.09 234.00Q262.08 233.49 262.21 233.00Q262.60 230.99 263.10 229.00Q263.28 228.30 263.55 227.64Q263.88 225.82 264.20 224.00Q264.62 222.49 265.07 221.00Q265.59 219.48 266.21 218.00Q266.58 216.48 267.09 215.00Q267.45 213.99 267.86 213.00Q268.15 212.25 268.51 211.52Q269.03 210.56 269.56 209.61Q270.09 208.55 270.46 207.42Q270.79 206.71 271.13 206.00Q271.38 205.42 271.68 204.85Q271.91 204.41 272.18 204.00Q273.79 201.67 275.38 199.32Q276.43 197.91 277.52 196.52Q278.01 196.01 278.50 195.50Q279.05 195.04 279.61 194.59Q280.97 193.44 282.45 192.46Q284.01 191.47 285.61 190.55Q285.86 190.45 286.11 190.38Q287.56 190.05 289.00 189.70Q289.49 189.54 290.00 189.59Q291.50 189.59 293.00 189.69Q294.01 189.80 295.00 190.05Q295.78 190.24 296.56 190.47Q297.88 191.04 299.18 191.64Q299.61 191.83 300.00 192.07Q300.93 192.64 301.82 193.26Q302.60 193.94 303.47 194.52Q304.47 195.53 305.43 196.57Q306.07 197.39 306.77 198.16Q307.66 199.30 308.53 200.45Q309.56 201.96 310.47 203.56Q310.94 204.59 311.45 205.60Q311.82 206.73 312.36 207.80Q312.83 209.27 313.41 210.71Q313.91 212.61 314.53 214.47Q314.62 215.24 314.71 216.00Q315.13 218.37 315.46 220.76Q315.74 221.36 315.87 222.00Q316.04 222.49 316.00 223.00Q316.05 224.50 316.07 226.00Q316.10 226.50 316.06 227.00Q316.07 227.51 315.96 228.00Q315.88 228.80 315.51 229.51Q315.46 230.26 315.33 231.00Q315.33 233.00 315.22 235.00Q315.24 235.54 314.96 236.00Q314.68 236.55 314.42 237.12Q314.30 238.05 314.24 239.00Q314.19 239.49 313.84 239.84Q313.70 240.15 313.43 240.34Q313.32 241.17 313.28 242.00Q313.22 242.49 312.87 242.83Q312.71 243.15 312.41 243.33Q312.32 244.17 312.25 245.00Q312.18 245.49 311.83 245.83Q311.68 246.13 311.42 246.33Q311.31 246.66 311.28 247.00Q311.22 247.50 310.86 247.86Q310.74 248.20 310.43 248.36Q310.32 248.67 310.30 249.00Q310.23 249.51 309.87 249.87Q309.77 250.23 309.42 250.37Q309.33 250.69 309.22 251.00Q309.15 251.48 308.80 251.80Q308.41 252.40 307.92 252.92Q307.79 253.28 307.43 253.42Q307.34 253.70 307.31 254.00Q307.24 254.51 306.88 254.88Q305.80 256.29 304.48 257.48Q304.44 257.75 304.35 258.00Q304.25 258.51 303.87 258.87Q302.00 260.99 299.90 262.90Q299.18 263.75 298.26 264.36Q297.98 264.53 297.76 264.76Q297.45 265.10 297.00 265.15Q296.68 265.25 296.37 265.39Q295.74 266.25 294.88 266.88Q294.59 267.26 294.12 267.38Q293.84 267.43 293.62 267.62Q292.81 267.85 292.04 268.19Q291.69 268.31 291.54 268.65Q290.78 268.87 290.07 269.20Q289.71 269.34 289.57 269.70Q288.84 269.96 288.13 270.24Q287.76 270.40 287.63 270.78Q287.35 271.01 287.00 270.92Q286.52 270.70 286.00 270.80Q285.00 270.80 284.00 270.71Q283.57 270.73 283.16 270.60Q282.09 270.20 281.00 269.89Q280.19 269.75 279.39 269.54Q278.70 269.30 278.00 269.12Q276.99 268.97 276.00 268.70Q274.52 268.16 273.00 267.72Q272.02 267.28 271.00 266.92Q269.49 266.43 268.00 265.87Q267.39 265.64 266.84 265.29Q266.17 264.90 265.54 264.43Q265.15 263.75 264.91 263.00Q264.44 261.49 263.89 260.00Q263.79 259.65 263.61 259.32Q263.46 259.07 263.29 258.82Q263.02 258.45 262.95 258.00Q262.75 257.18 262.55 256.35Q262.16 255.19 261.83 254.00Q261.67 253.51 261.62 253.00Q261.52 252.50 261.55 252.00Q261.55 250.17 261.51 248.35Q261.41 246.67 261.27 245.00Q261.20 244.00 261.22 243.00Z" transform="scale(1)"/></clipPath><clipPath id="rb-compiled-owner-4" clipPathUnits="userSpaceOnUse"><path d="M192.33 126.83C192.59 127.00 192.79 127.31 193.10 127.33C194.08 127.39 195.05 127.13 196.03 127.07C198.35 126.93 200.67 126.79 203.00 126.74C210.13 126.56 212.67 126.71 219.96 127.21C221.31 127.30 222.64 127.51 223.99 127.59C224.27 127.61 224.55 127.54 224.83 127.51Q227.42 127.53 230.00 127.53Q230.56 127.63 230.98 128.02Q231.35 128.15 231.48 128.51Q233.74 128.54 236.00 128.54Q236.56 128.64 236.98 129.02Q237.34 129.15 237.48 129.51Q238.74 129.54 240.00 129.54Q240.56 129.64 240.98 130.02Q241.34 130.15 241.48 130.51Q242.74 130.54 244.00 130.54Q244.56 130.64 244.98 131.02Q245.34 131.15 245.48 131.51Q246.24 131.53 247.00 131.53Q247.56 131.63 247.98 132.02Q248.35 132.15 248.48 132.51Q249.74 132.53 251.00 132.53Q251.56 132.63 251.98 133.02Q252.35 133.15 252.48 133.51Q253.74 133.53 255.00 133.53Q255.56 133.63 255.98 134.02Q256.35 134.15 256.48 134.51Q257.74 134.53 259.00 134.53Q259.56 134.63 259.98 135.02Q260.35 135.15 260.48 135.52Q261.24 135.54 262.00 135.53Q262.56 135.63 262.98 136.02Q263.34 136.15 263.48 136.52Q264.24 136.54 265.00 136.54Q265.56 136.64 265.98 137.02Q266.34 137.15 266.48 137.52Q267.24 137.54 268.00 137.54Q268.56 137.64 268.98 138.02Q269.34 138.16 269.48 138.52Q269.74 138.55 270.00 138.54Q270.56 138.64 270.98 139.02Q271.34 139.16 271.48 139.52Q271.74 139.54 272.00 139.54Q272.56 139.64 272.98 140.02Q273.34 140.15 273.48 140.52Q273.74 140.54 274.00 140.54Q274.56 140.63 274.98 141.02Q275.34 141.15 275.48 141.52Q275.74 141.54 276.00 141.53Q276.56 141.63 276.98 142.02Q277.34 142.15 277.48 142.51Q277.74 142.54 278.00 142.53Q278.56 142.63 278.98 143.02Q279.35 143.15 279.48 143.51Q279.74 143.54 280.00 143.53Q280.56 143.63 280.98 144.02Q281.35 144.15 281.48 144.51Q281.74 144.54 282.00 144.53Q282.56 144.63 282.98 145.02Q283.35 145.15 283.48 145.51Q283.74 145.54 284.00 145.53Q284.56 145.63 284.98 146.02Q285.35 146.15 285.48 146.51Q285.74 146.54 286.00 146.53Q286.56 146.63 286.98 147.02Q287.35 147.15 287.48 147.52Q287.74 147.54 288.00 147.53Q288.56 147.63 288.98 148.02Q289.85 148.65 290.48 149.51Q290.74 149.53 291.00 149.53Q291.56 149.63 291.98 150.02Q292.85 150.65 293.48 151.51Q293.74 151.53 294.00 151.53Q294.56 151.63 294.98 152.02Q296.35 153.15 297.49 154.51Q297.74 154.53 298.00 154.53Q298.56 154.63 298.99 155.01Q299.85 155.65 300.49 156.51Q300.74 156.53 301.00 156.53Q301.56 156.63 301.98 157.02Q306.35 161.15 310.49 165.51Q310.74 165.53 311.00 165.52Q311.57 165.62 311.99 166.01Q312.49 166.51 312.99 167.01Q313.38 167.43 313.48 168.00Q313.47 168.25 313.49 168.51Q313.85 168.65 313.99 169.01Q314.37 169.29 314.49 169.75Q314.77 170.03 315.17 170.00C315.18 170.25 315.05 170.54 315.20 170.74C316.88 173.01 318.93 174.99 320.55 177.30C322.65 180.29 324.60 183.38 326.32 186.60C329.64 192.82 332.36 200.01 333.33 207.02C333.70 209.68 334.05 212.35 334.38 215.02C334.42 215.34 334.44 215.67 334.44 216.00C334.41 218.66 334.36 221.33 334.28 224.00C334.27 224.31 334.21 224.62 334.15 224.93C333.67 227.57 333.17 230.21 332.65 232.84C331.93 236.49 330.36 240.67 328.98 243.71C327.54 246.91 325.01 251.50 322.61 254.70C320.62 257.36 318.80 260.16 316.60 262.65C314.68 264.83 309.26 270.39 305.74 273.16C302.47 275.74 299.15 278.26 295.85 280.81C295.68 280.94 295.51 281.08 295.32 281.19C291.14 283.68 286.95 286.14 282.76 288.60C281.30 289.46 278.91 290.61 277.79 291.07C265.01 296.38 262.30 298.20 251.50 300.49C247.39 301.36 242.11 302.07 237.89 302.76C237.23 302.87 236.58 303.04 235.93 303.13C235.12 303.23 234.29 303.20 233.49 303.34C232.29 303.55 231.13 303.98 229.93 304.19C226.56 304.75 223.16 305.17 219.78 305.65C219.53 305.69 219.27 305.75 219.01 305.75C217.01 305.75 215.01 305.66 213.01 305.65C212.61 305.64 212.21 305.66 211.81 305.71C211.49 305.75 211.19 305.95 210.86 305.94C204.49 305.75 201.19 305.38 195.09 304.65C194.77 304.61 194.45 304.56 194.13 304.48C192.13 303.99 190.15 303.40 188.14 302.96C185.80 302.44 183.43 302.07 181.08 301.59C176.76 300.71 172.44 299.86 168.14 298.88C166.21 298.44 161.67 297.16 159.60 296.28C153.76 293.79 147.98 291.17 142.19 288.56C136.34 285.93 130.28 281.59 125.34 278.47C124.76 278.10 124.21 277.70 123.67 277.27C119.98 274.31 116.16 271.50 112.67 268.31C109.53 265.45 105.42 261.35 102.53 257.48C100.61 254.92 98.70 252.35 96.83 249.76C96.48 249.28 96.14 248.79 95.85 248.27C94.30 245.48 92.81 242.65 91.31 239.83C91.14 239.52 90.97 239.21 90.85 238.88C89.85 236.21 88.88 233.53 87.95 230.84C87.79 230.40 87.67 229.94 87.58 229.48C86.96 226.31 86.39 223.13 85.82 219.95C85.77 219.63 85.74 219.31 85.73 219.00C85.66 216.33 85.60 213.66 85.57 211.00C85.53 207.37 86.15 203.68 87.12 200.18C87.97 197.13 88.64 194.03 89.72 191.06C92.54 183.33 94.38 181.18 98.85 174.22C99.30 173.53 99.72 172.81 100.24 172.16C104.01 167.38 104.07 169.75 103.83 167.18Q108.32 162.49 113.04 158.04Q113.54 157.54 114.08 157.08Q114.47 156.70 115.00 156.61Q115.27 156.56 115.53 156.53Q117.18 154.68 119.05 153.05Q119.46 152.68 120.00 152.58Q120.27 152.58 120.54 152.53Q121.18 151.68 122.05 151.05Q122.46 150.67 123.00 150.58Q123.27 150.58 123.54 150.53Q124.20 149.69 125.08 149.08Q125.47 148.71 126.00 148.62Q126.27 148.58 126.55 148.54Q126.68 148.18 127.05 148.05Q127.55 147.54 128.15 147.15Q128.50 146.78 129.00 146.69Q129.27 146.58 129.57 146.54Q129.70 146.19 130.07 146.07Q130.46 145.68 131.00 145.58Q131.26 145.55 131.52 145.52Q132.21 144.70 133.12 144.12Q133.49 143.75 134.00 143.67Q134.29 143.62 134.57 143.55Q134.71 143.19 135.07 143.07Q135.46 142.70 136.00 142.62Q136.29 142.62 136.58 142.55Q136.72 142.20 137.08 142.08Q137.47 141.71 138.00 141.62Q138.77 141.58 139.55 141.53Q139.68 141.17 140.05 141.05Q140.45 140.67 141.00 140.58Q141.29 140.58 141.57 140.53Q141.71 140.18 142.07 140.07Q142.46 139.69 143.00 139.60Q143.30 139.58 143.59 139.54Q143.74 139.19 144.09 139.09Q144.47 138.72 145.00 138.64Q145.32 138.60 145.65 138.54Q145.83 138.26 146.15 138.15Q146.50 137.78 147.00 137.70Q147.78 137.58 148.57 137.54Q148.71 137.19 149.07 137.07Q149.47 136.70 150.00 136.61Q150.31 136.60 150.62 136.54Q150.76 136.21 151.12 136.12Q151.49 135.75 152.00 135.67Q152.79 135.59 153.57 135.54Q153.71 135.19 154.07 135.07Q154.47 134.70 155.00 134.62Q155.78 134.59 156.55 134.54Q156.69 134.18 157.05 134.05Q157.46 133.68 158.00 133.59Q159.27 133.57 160.54 133.53Q160.67 133.17 161.04 133.04Q161.45 132.66 162.00 132.57Q163.27 132.57 164.54 132.52Q164.68 132.17 165.04 132.04Q165.45 131.66 166.00 131.57Q167.77 131.55 169.53 131.52Q169.67 131.16 170.03 131.03Q170.45 130.65 171.00 130.56Q172.28 130.55 173.56 130.52Q173.71 130.17 174.06 130.06Q174.46 129.69 175.00 129.59Q176.78 129.53 178.56 129.52Q178.70 129.17 179.06 129.06Q179.46 128.69 180.00 128.60Q181.27 128.56 182.55 128.52Q182.69 128.17 183.05 128.05Q183.45 127.67 184.00 127.59Q187.87 127.53 191.75 127.51Q192.13 127.25 192.33 126.83ZM131.02 226.00Q131.04 227.00 131.11 228.00Q131.09 229.50 131.11 231.00Q131.24 233.00 131.36 235.00Q131.37 235.36 131.45 235.70Q132.07 238.02 132.53 240.36Q133.02 241.92 133.51 243.48Q133.78 244.26 134.13 245.00Q135.16 247.01 136.20 249.00Q137.32 250.80 138.42 252.62Q138.97 253.53 139.63 254.35Q141.65 256.36 143.76 258.28Q143.99 258.50 144.26 258.65Q144.93 259.05 145.59 259.44Q147.69 260.87 149.76 262.32Q150.00 262.50 150.26 262.63Q150.61 262.84 151.00 262.92Q151.48 263.11 152.00 263.12Q153.50 263.28 155.00 263.42Q155.50 263.46 156.00 263.38Q157.00 263.26 158.00 263.16Q159.00 263.11 160.00 263.19Q160.51 263.26 161.00 263.11Q162.00 262.91 163.00 262.76Q164.00 262.72 165.00 262.81Q165.51 262.83 166.00 262.69Q170.01 262.03 174.00 261.26Q175.50 261.04 177.00 260.83Q177.48 260.76 177.95 260.62Q179.81 260.09 181.67 259.57Q181.95 259.42 182.17 259.18Q182.88 258.40 183.57 257.58Q184.55 256.56 185.54 255.54Q186.61 254.62 187.63 253.64Q189.32 251.34 190.96 249.00Q191.21 248.67 191.40 248.29Q191.71 247.65 192.00 247.00Q192.74 245.28 193.54 243.58Q194.21 241.79 194.88 240.00Q195.21 239.11 195.44 238.20Q195.77 236.60 196.09 235.00Q196.24 234.00 196.38 233.00Q196.67 231.50 196.93 230.00Q197.04 229.51 197.03 229.00Q197.07 227.50 197.12 226.00Q197.08 224.50 196.96 223.00Q197.00 222.00 197.02 221.00Q197.06 220.50 196.98 220.00Q196.87 219.00 196.77 218.00Q196.69 217.13 196.55 216.27Q196.29 215.13 196.00 214.00Q195.81 212.64 195.55 211.30Q195.04 209.40 194.50 207.51Q193.92 206.19 193.30 204.89Q192.94 204.05 192.65 203.18Q191.95 201.60 191.27 200.00Q190.93 199.23 190.50 198.50Q189.93 197.61 189.34 196.72Q188.03 194.93 186.78 193.10Q186.18 192.26 185.54 191.46Q183.35 189.62 181.24 187.69Q180.35 187.10 179.43 186.54Q178.57 185.95 177.71 185.35Q177.03 184.93 176.30 184.59Q174.64 183.93 172.95 183.35Q170.95 182.84 168.93 182.40Q168.47 182.27 168.00 182.28Q167.50 182.25 167.00 182.26Q165.50 182.25 164.00 182.31Q162.00 182.52 160.00 182.79Q159.48 182.82 159.00 183.03Q157.50 183.57 156.00 184.11Q155.36 184.32 154.76 184.63Q153.04 185.48 151.38 186.43Q150.76 186.80 150.18 187.24Q148.00 189.02 145.82 190.80Q144.10 192.58 142.45 194.45Q141.54 195.62 140.74 196.87Q139.10 199.60 137.35 202.26Q136.95 202.95 136.57 203.65Q135.98 204.96 135.42 206.29Q134.95 207.52 134.62 208.80Q133.96 210.44 133.37 212.11Q132.82 214.07 132.40 216.05Q132.18 217.53 131.95 219.00Q131.74 219.80 131.52 220.61Q131.36 221.30 131.29 222.00Q131.09 224.00 131.02 226.00ZM261.22 243.00Q261.20 244.00 261.27 245.00Q261.41 246.67 261.51 248.35Q261.55 250.17 261.55 252.00Q261.52 252.50 261.62 253.00Q261.67 253.51 261.83 254.00Q262.16 255.19 262.55 256.35Q262.75 257.18 262.95 258.00Q263.02 258.45 263.29 258.82Q263.46 259.07 263.61 259.32Q263.79 259.65 263.89 260.00Q264.44 261.49 264.91 263.00Q265.15 263.75 265.54 264.43Q266.17 264.90 266.84 265.29Q267.39 265.64 268.00 265.87Q269.49 266.43 271.00 266.92Q272.02 267.28 273.00 267.72Q274.52 268.16 276.00 268.70Q276.99 268.97 278.00 269.12Q278.70 269.30 279.39 269.54Q280.19 269.75 281.00 269.89Q282.09 270.20 283.16 270.60Q283.57 270.73 284.00 270.71Q285.00 270.80 286.00 270.80Q286.52 270.70 287.00 270.92Q287.35 271.01 287.63 270.78Q287.76 270.40 288.13 270.24Q288.84 269.96 289.57 269.70Q289.71 269.34 290.07 269.20Q290.78 268.87 291.54 268.65Q291.69 268.31 292.04 268.19Q292.81 267.85 293.62 267.62Q293.84 267.43 294.12 267.38Q294.59 267.26 294.88 266.88Q295.74 266.25 296.37 265.39Q296.68 265.25 297.00 265.15Q297.45 265.10 297.76 264.76Q297.98 264.53 298.26 264.36Q299.18 263.75 299.90 262.90Q302.00 260.99 303.87 258.87Q304.25 258.51 304.35 258.00Q304.44 257.75 304.48 257.48Q305.80 256.29 306.88 254.88Q307.24 254.51 307.31 254.00Q307.34 253.70 307.43 253.42Q307.79 253.28 307.92 252.92Q308.41 252.40 308.80 251.80Q309.15 251.48 309.22 251.00Q309.33 250.69 309.42 250.37Q309.77 250.23 309.87 249.87Q310.23 249.51 310.30 249.00Q310.32 248.67 310.43 248.36Q310.74 248.20 310.86 247.86Q311.22 247.50 311.28 247.00Q311.31 246.66 311.42 246.33Q311.68 246.13 311.83 245.83Q312.18 245.49 312.25 245.00Q312.32 244.17 312.41 243.33Q312.71 243.15 312.87 242.83Q313.22 242.49 313.28 242.00Q313.32 241.17 313.43 240.34Q313.70 240.15 313.84 239.84Q314.19 239.49 314.24 239.00Q314.30 238.05 314.42 237.12Q314.68 236.55 314.96 236.00Q315.24 235.54 315.22 235.00Q315.33 233.00 315.33 231.00Q315.46 230.26 315.51 229.51Q315.88 228.80 315.96 228.00Q316.07 227.51 316.06 227.00Q316.10 226.50 316.07 226.00Q316.05 224.50 316.00 223.00Q316.04 222.49 315.87 222.00Q315.74 221.36 315.46 220.76Q315.13 218.37 314.71 216.00Q314.62 215.24 314.53 214.47Q313.91 212.61 313.41 210.71Q312.83 209.27 312.36 207.80Q311.82 206.73 311.45 205.60Q310.94 204.59 310.47 203.56Q309.56 201.96 308.53 200.45Q307.66 199.30 306.77 198.16Q306.07 197.39 305.43 196.57Q304.47 195.53 303.47 194.52Q302.60 193.94 301.82 193.26Q300.93 192.64 300.00 192.07Q299.61 191.83 299.18 191.64Q297.88 191.04 296.56 190.47Q295.78 190.24 295.00 190.05Q294.01 189.80 293.00 189.69Q291.50 189.59 290.00 189.59Q289.49 189.54 289.00 189.70Q287.56 190.05 286.11 190.38Q285.86 190.45 285.61 190.55Q284.01 191.47 282.45 192.46Q280.97 193.44 279.61 194.59Q279.05 195.04 278.50 195.50Q278.01 196.01 277.52 196.52Q276.43 197.91 275.38 199.32Q273.79 201.67 272.18 204.00Q271.91 204.41 271.68 204.85Q271.38 205.42 271.13 206.00Q270.79 206.71 270.46 207.42Q270.09 208.55 269.56 209.61Q269.03 210.56 268.51 211.52Q268.15 212.25 267.86 213.00Q267.45 213.99 267.09 215.00Q266.58 216.48 266.21 218.00Q265.59 219.48 265.07 221.00Q264.62 222.49 264.20 224.00Q263.88 225.82 263.55 227.64Q263.28 228.30 263.10 229.00Q262.60 230.99 262.21 233.00Q262.08 233.49 262.09 234.00Q262.04 235.50 261.94 237.00Q261.78 238.00 261.60 239.00Q261.37 241.00 261.22 243.00Z" transform="scale(1)"/></clipPath><clipPath id="rb-entity-eye-0-highlight-clip"><path d="M 205.161 151.122 L 207.127 151.296 L 209.039 151.774 L 210.823 152.539 L 212.410 153.563 L 213.737 154.808 L 214.752 156.226 L 215.416 157.766 L 215.702 159.366 L 215.898 163.331 L 216.037 167.358 L 216.120 171.448 L 216.147 175.599 L 216.116 179.815 L 216.020 184.102 L 215.861 188.460 L 215.637 192.890 L 215.338 194.709 L 214.660 196.459 L 213.631 198.074 L 212.291 199.488 L 210.693 200.648 L 208.900 201.505 L 206.982 202.026 L 205.014 202.190 L 205.014 202.190 L 205.014 202.190 L 205.014 202.190 L 205.014 202.190 L 205.014 202.190 L 205.014 202.190 L 205.014 202.190 L 205.014 202.190 L 203.071 201.990 L 201.230 201.433 L 199.560 200.542 L 198.124 199.351 L 196.975 197.909 L 196.157 196.272 L 195.699 194.506 L 195.617 192.678 L 195.850 188.239 L 196.015 183.875 L 196.114 179.584 L 196.147 175.366 L 196.118 171.216 L 196.032 167.130 L 195.888 163.108 L 195.684 159.152 L 195.779 157.559 L 196.252 156.036 L 197.084 154.639 L 198.246 153.422 L 199.693 152.430 L 201.372 151.700 L 203.218 151.258 L 205.161 151.122 L 205.161 151.122 L 205.161 151.122 L 205.161 151.122 L 205.161 151.122 L 205.161 151.122 L 205.161 151.122 L 205.161 151.122 Z"/></clipPath><clipPath id="rb-entity-eye-1-highlight-clip"><path d="M 257.963 154.199 L 259.765 154.554 L 261.521 155.206 L 263.162 156.130 L 264.624 157.291 L 265.851 158.648 L 266.792 160.147 L 267.413 161.735 L 267.686 163.349 L 267.890 167.305 L 268.034 171.327 L 268.120 175.413 L 268.149 179.563 L 268.116 183.781 L 268.017 188.072 L 267.852 192.436 L 267.619 196.875 L 267.332 198.681 L 266.697 200.384 L 265.741 201.917 L 264.502 203.220 L 263.029 204.241 L 261.379 204.939 L 259.619 205.286 L 257.815 205.268 L 257.815 205.268 L 257.815 205.268 L 257.815 205.268 L 257.815 205.268 L 257.815 205.268 L 257.815 205.268 L 257.815 205.268 L 257.815 205.268 L 256.037 204.886 L 254.353 204.155 L 252.827 203.104 L 251.516 201.775 L 250.468 200.221 L 249.723 198.503 L 249.308 196.689 L 249.238 194.848 L 249.462 190.419 L 249.621 186.061 L 249.717 181.774 L 249.748 177.557 L 249.721 173.406 L 249.638 169.317 L 249.499 165.289 L 249.302 161.325 L 249.385 159.746 L 249.815 158.270 L 250.574 156.955 L 251.635 155.849 L 252.958 154.995 L 254.493 154.423 L 256.183 154.155 L 257.963 154.199 L 257.963 154.199 L 257.963 154.199 L 257.963 154.199 L 257.963 154.199 L 257.963 154.199 L 257.963 154.199 L 257.963 154.199 Z"/></clipPath></defs><g><g data-avatar-entity-part="ear-left" data-avatar-fragment-interaction-area="5721" data-avatar-fragment-interaction-ratio="1" data-avatar-fragment-raw-visible-area="5721" data-avatar-fragment-visible-area="5721" data-avatar-part-geometry="compiled-owner"><g data-avatar-compiled-base-layer="ear-left"><path data-avatar-compiled-base="ear-left" d="M192.33 126.83Q192.13 127.25 191.75 127.51Q187.87 127.53 184.00 127.59Q183.45 127.67 183.05 128.05Q182.69 128.17 182.55 128.52Q181.27 128.56 180.00 128.60Q179.46 128.69 179.06 129.06Q178.70 129.17 178.56 129.52Q176.78 129.53 175.00 129.59Q174.46 129.69 174.06 130.06Q173.71 130.17 173.56 130.52Q172.28 130.55 171.00 130.56Q170.45 130.65 170.03 131.03Q169.67 131.16 169.53 131.52Q167.77 131.55 166.00 131.57Q165.45 131.66 165.04 132.04Q164.68 132.17 164.54 132.52Q163.27 132.57 162.00 132.57Q161.45 132.66 161.04 133.04Q160.67 133.17 160.54 133.53Q159.27 133.57 158.00 133.59Q157.46 133.68 157.05 134.05Q156.69 134.18 156.55 134.54Q155.78 134.59 155.00 134.62Q154.47 134.70 154.07 135.07Q153.71 135.19 153.57 135.54Q152.79 135.59 152.00 135.67Q151.49 135.75 151.12 136.12Q150.76 136.21 150.62 136.54Q150.31 136.60 150.00 136.61Q149.47 136.70 149.07 137.07Q148.71 137.19 148.57 137.54Q147.78 137.58 147.00 137.70Q146.50 137.78 146.15 138.15Q145.83 138.26 145.65 138.54Q145.32 138.60 145.00 138.64Q144.47 138.72 144.09 139.09Q143.74 139.19 143.59 139.54Q143.30 139.58 143.00 139.60Q142.46 139.69 142.07 140.07Q141.71 140.18 141.57 140.53Q141.29 140.58 141.00 140.58Q140.45 140.67 140.05 141.05Q139.68 141.17 139.55 141.53Q138.77 141.58 138.00 141.62Q137.47 141.71 137.08 142.08Q136.72 142.20 136.58 142.55Q136.29 142.62 136.00 142.62Q135.46 142.70 135.07 143.07Q134.71 143.19 134.57 143.55Q134.29 143.62 134.00 143.67Q133.49 143.75 133.12 144.12Q132.21 144.70 131.52 145.52Q131.26 145.55 131.00 145.58Q130.46 145.68 130.07 146.07Q129.70 146.19 129.57 146.54Q129.27 146.58 129.00 146.69Q128.50 146.78 128.15 147.15Q127.55 147.54 127.05 148.05Q126.68 148.18 126.55 148.54Q126.27 148.58 126.00 148.62Q125.47 148.71 125.08 149.08Q124.20 149.69 123.54 150.53Q123.27 150.58 123.00 150.58Q122.46 150.67 122.05 151.05Q121.18 151.68 120.54 152.53Q120.27 152.58 120.00 152.58Q119.46 152.68 119.05 153.05Q117.18 154.68 115.53 156.53Q115.27 156.56 115.00 156.61Q114.47 156.70 114.08 157.08Q113.54 157.54 113.04 158.04Q108.32 162.49 103.83 167.18C103.69 166.97 103.58 166.74 103.41 166.55C102.94 166.05 102.40 165.63 101.94 165.12C100.67 163.71 99.38 162.32 98.23 160.81C94.93 156.46 92.34 151.64 90.50 146.50C88.39 140.57 87.22 134.28 87.32 127.97C87.41 123.06 88.30 118.28 89.66 113.56C90.57 110.41 91.79 107.12 93.43 104.27C96.43 99.08 94.81 101.65 97.80 97.72C101.20 93.25 97.65 97.48 102.88 91.83C103.20 91.49 103.45 91.07 103.80 90.76C104.87 89.85 106.03 89.05 107.13 88.16C107.68 87.71 108.19 87.22 108.73 86.76C108.89 86.63 109.04 86.51 109.22 86.41C110.53 85.72 111.90 85.14 113.20 84.42C113.87 84.05 114.44 83.53 115.11 83.15C115.55 82.89 116.07 82.77 116.52 82.52C116.72 82.41 116.85 82.20 117.04 82.08C117.88 81.57 119.20 81.07 120.07 80.80C120.38 80.70 120.70 80.67 121.02 80.61C122.68 80.30 124.33 79.92 126.00 79.69C128.28 79.37 127.39 79.89 129.02 79.44C130.23 79.10 131.64 78.42 132.66 77.85C132.93 77.71 133.07 77.35 133.36 77.29C134.56 77.02 135.81 76.90 137.04 76.89C139.30 76.85 141.57 76.92 143.82 77.13C147.63 77.50 151.32 78.54 154.92 79.75C157.57 80.64 160.40 81.35 162.85 82.75C165.05 84.02 167.20 85.39 169.36 86.73C169.55 86.84 169.74 86.96 169.91 87.11C171.73 88.60 173.62 90.03 175.34 91.64C178.33 94.46 180.99 97.71 183.23 101.15C186.01 105.43 188.21 110.22 189.64 115.12C190.71 118.78 191.01 120.47 191.47 124.08C191.78 126.54 191.12 125.48 192.33 126.83Z" fill="#6a656d" transform="scale(1)"/></g><g data-avatar-compiled-surface-layer="ear-left" clip-path="url(#rb-compiled-owner-0)"><g transform="translate(-70.43581619489694 -72.69181080836101)"><g><path data-avatar-compiled-surface-marking="chinchilla-inner-ear-left" data-avatar-surface-decal="chinchilla-inner-ear-left" data-avatar-surface-decal-renderer="compiled" d="M155.56 122.47C155.88 125.61 156.08 126.48 155.94 129.63C155.89 130.78 155.78 131.93 155.61 133.08C155.44 134.17 155.22 135.25 154.94 136.32C153.68 141.00 150.69 146.69 145.32 147.41C144.61 147.50 143.88 147.49 143.17 147.40C142.43 147.30 141.69 147.10 140.99 146.82C136.52 145.04 133.48 140.52 131.56 136.32C128.25 129.07 127.05 120.27 129.07 112.50C129.76 109.86 130.07 109.54 131.25 107.17C132.46 105.50 132.82 104.74 134.48 103.52C135.07 103.08 135.72 102.71 136.40 102.43C137.06 102.16 137.76 101.97 138.46 101.88C143.78 101.16 148.28 105.44 150.91 109.56C151.49 110.48 152.02 111.43 152.50 112.40C153.00 113.43 153.44 114.48 153.83 115.55C154.88 118.47 154.95 119.43 155.56 122.47Z" fill="#b68089" fill-opacity="1" transform="translate(70.43581619489694 72.69181080836101) scale(1)"/></g></g></g></g><g data-avatar-entity-part="ear-right" data-avatar-fragment-interaction-area="4778" data-avatar-fragment-interaction-ratio="1" data-avatar-fragment-raw-visible-area="4778" data-avatar-fragment-visible-area="4778" data-avatar-part-geometry="compiled-owner"><g data-avatar-compiled-base-layer="ear-right"><path data-avatar-compiled-base="ear-right" d="M315.17 170.00Q314.77 170.03 314.49 169.75Q314.37 169.29 313.99 169.01Q313.85 168.65 313.49 168.51Q313.47 168.25 313.48 168.00Q313.38 167.43 312.99 167.01Q312.49 166.51 311.99 166.01Q311.57 165.62 311.00 165.52Q310.74 165.53 310.49 165.51Q306.35 161.15 301.98 157.02Q301.56 156.63 301.00 156.53Q300.74 156.53 300.49 156.51Q299.85 155.65 298.99 155.01Q298.56 154.63 298.00 154.53Q297.74 154.53 297.49 154.51Q296.35 153.15 294.98 152.02Q294.56 151.63 294.00 151.53Q293.74 151.53 293.48 151.51Q292.85 150.65 291.98 150.02Q291.56 149.63 291.00 149.53Q290.74 149.53 290.48 149.51Q289.85 148.65 288.98 148.02Q288.56 147.63 288.00 147.53Q287.74 147.54 287.48 147.52Q287.35 147.15 286.98 147.02Q286.56 146.63 286.00 146.53Q285.74 146.54 285.48 146.51Q285.35 146.15 284.98 146.02Q284.56 145.63 284.00 145.53Q283.74 145.54 283.48 145.51Q283.35 145.15 282.98 145.02Q282.56 144.63 282.00 144.53Q281.74 144.54 281.48 144.51Q281.35 144.15 280.98 144.02Q280.56 143.63 280.00 143.53Q279.74 143.54 279.48 143.51Q279.35 143.15 278.98 143.02Q278.56 142.63 278.00 142.53Q277.74 142.54 277.48 142.51Q277.34 142.15 276.98 142.02Q276.56 141.63 276.00 141.53Q275.74 141.54 275.48 141.52Q275.34 141.15 274.98 141.02Q274.56 140.63 274.00 140.54Q273.74 140.54 273.48 140.52Q273.34 140.15 272.98 140.02Q272.56 139.64 272.00 139.54Q271.74 139.54 271.48 139.52Q271.34 139.16 270.98 139.02Q270.56 138.64 270.00 138.54Q269.74 138.55 269.48 138.52Q269.34 138.16 268.98 138.02Q268.56 137.64 268.00 137.54Q267.24 137.54 266.48 137.52Q266.34 137.15 265.98 137.02Q265.56 136.64 265.00 136.54Q264.24 136.54 263.48 136.52Q263.34 136.15 262.98 136.02Q262.56 135.63 262.00 135.53Q261.24 135.54 260.48 135.52Q260.35 135.15 259.98 135.02Q259.56 134.63 259.00 134.53Q257.74 134.53 256.48 134.51Q256.35 134.15 255.98 134.02Q255.56 133.63 255.00 133.53Q253.74 133.53 252.48 133.51Q252.35 133.15 251.98 133.02Q251.56 132.63 251.00 132.53Q249.74 132.53 248.48 132.51Q248.35 132.15 247.98 132.02Q247.56 131.63 247.00 131.53Q246.24 131.53 245.48 131.51Q245.34 131.15 244.98 131.02Q244.56 130.64 244.00 130.54Q242.74 130.54 241.48 130.51Q241.34 130.15 240.98 130.02Q240.56 129.64 240.00 129.54Q238.74 129.54 237.48 129.51Q237.34 129.15 236.98 129.02Q236.56 128.64 236.00 128.54Q233.74 128.54 231.48 128.51Q231.35 128.15 230.98 128.02Q230.56 127.63 230.00 127.53Q227.42 127.53 224.83 127.51C224.77 126.13 225.37 124.16 225.65 123.04C226.73 118.63 228.31 114.24 230.47 110.23C234.06 103.56 239.20 97.88 245.38 93.51C247.05 92.33 250.35 90.56 251.68 89.86C252.85 89.26 254.01 88.64 255.23 88.16C258.50 86.87 262.04 86.09 265.50 85.58C266.69 85.40 267.87 85.11 269.08 84.99C272.20 84.70 275.66 84.64 278.77 85.15C279.50 85.27 280.13 85.75 280.86 85.90C281.27 85.99 281.71 85.76 282.12 85.87C282.35 85.93 282.43 86.25 282.63 86.37C283.01 86.62 283.43 86.82 283.86 86.97C284.85 87.33 285.88 87.56 286.88 87.89C287.43 88.08 287.94 88.36 288.50 88.52C288.96 88.65 289.46 88.64 289.92 88.77C291.79 89.31 293.64 89.89 295.47 90.55C295.95 90.72 296.39 90.99 296.82 91.27C298.15 92.11 299.42 93.05 300.74 93.91C301.31 94.28 303.66 95.59 304.63 96.47C308.76 100.24 310.57 101.71 313.84 106.13C318.31 112.16 321.06 118.92 322.94 126.12C324.02 130.27 324.63 134.74 324.51 139.02C324.38 143.99 323.68 148.64 322.36 153.47C321.49 156.67 320.35 159.94 318.77 162.88C318.07 164.18 317.38 165.48 316.62 166.75C314.96 169.49 315.24 167.79 315.17 170.00Z" fill="#6a656d" transform="scale(1)"/></g><g data-avatar-compiled-surface-layer="ear-right" clip-path="url(#rb-compiled-owner-1)"><g transform="translate(64.30486856309878 -64.83786258779277)"><g><path data-avatar-compiled-surface-marking="chinchilla-inner-ear-right" data-avatar-surface-decal="chinchilla-inner-ear-right" data-avatar-surface-decal-renderer="compiled" d="M298.00 135.98C297.29 139.02 297.22 139.85 296.04 142.74C295.61 143.79 295.13 144.82 294.59 145.82C294.08 146.76 293.53 147.69 292.91 148.57C290.26 152.37 285.61 156.63 280.53 155.29C279.87 155.11 279.23 154.83 278.64 154.48C278.02 154.11 277.45 153.65 276.93 153.13C273.60 149.76 272.53 144.42 272.24 139.88C271.88 134.06 272.74 128.07 274.76 122.60C276.08 119.01 277.97 115.37 280.93 112.84C281.52 112.33 282.21 111.94 282.85 111.49C284.50 110.80 285.01 110.40 286.83 110.39C291.88 110.35 295.28 115.13 296.88 119.37C297.24 120.34 297.54 121.33 297.78 122.33C298.04 123.39 298.23 124.46 298.37 125.54C298.50 126.67 298.58 127.81 298.59 128.95C298.64 132.07 298.42 132.88 298.00 135.98Z" fill="#b68089" fill-opacity="1" transform="translate(-64.30486856309878 64.83786258779277) scale(1)"/></g></g></g></g><g data-avatar-entity-part="cheek-left" data-avatar-fragment-interaction-area="4277" data-avatar-fragment-interaction-ratio="1" data-avatar-fragment-raw-visible-area="4277" data-avatar-fragment-visible-area="4277" data-avatar-part-geometry="compiled-owner"><g data-avatar-compiled-base-layer="cheek-left"><path data-avatar-compiled-base="cheek-left" d="M131.02 226.00Q131.09 224.00 131.29 222.00Q131.36 221.30 131.52 220.61Q131.74 219.80 131.95 219.00Q132.18 217.53 132.40 216.05Q132.82 214.07 133.37 212.11Q133.96 210.44 134.62 208.80Q134.95 207.52 135.42 206.29Q135.98 204.96 136.57 203.65Q136.95 202.95 137.35 202.26Q139.10 199.60 140.74 196.87Q141.54 195.62 142.45 194.45Q144.10 192.58 145.82 190.80Q148.00 189.02 150.18 187.24Q150.76 186.80 151.38 186.43Q153.04 185.48 154.76 184.63Q155.36 184.32 156.00 184.11Q157.50 183.57 159.00 183.03Q159.48 182.82 160.00 182.79Q162.00 182.52 164.00 182.31Q165.50 182.25 167.00 182.26Q167.50 182.25 168.00 182.28Q168.47 182.27 168.93 182.40Q170.95 182.84 172.95 183.35Q174.64 183.93 176.30 184.59Q177.03 184.93 177.71 185.35Q178.57 185.95 179.43 186.54Q180.35 187.10 181.24 187.69Q183.35 189.62 185.54 191.46Q186.18 192.26 186.78 193.10Q188.03 194.93 189.34 196.72Q189.93 197.61 190.50 198.50Q190.93 199.23 191.27 200.00Q191.95 201.60 192.65 203.18Q192.94 204.05 193.30 204.89Q193.92 206.19 194.50 207.51Q195.04 209.40 195.55 211.30Q195.81 212.64 196.00 214.00Q196.29 215.13 196.55 216.27Q196.69 217.13 196.77 218.00Q196.87 219.00 196.98 220.00Q197.06 220.50 197.02 221.00Q197.00 222.00 196.96 223.00Q197.08 224.50 197.12 226.00Q197.07 227.50 197.03 229.00Q197.04 229.51 196.93 230.00Q196.67 231.50 196.38 233.00Q196.24 234.00 196.09 235.00Q195.77 236.60 195.44 238.20Q195.21 239.11 194.88 240.00Q194.21 241.79 193.54 243.58Q192.74 245.28 192.00 247.00Q191.71 247.65 191.40 248.29Q191.21 248.67 190.96 249.00Q189.32 251.34 187.63 253.64Q186.61 254.62 185.54 255.54Q184.55 256.56 183.57 257.58Q182.88 258.40 182.17 259.18Q181.95 259.42 181.67 259.57Q179.81 260.09 177.95 260.62Q177.48 260.76 177.00 260.83Q175.50 261.04 174.00 261.26Q170.01 262.03 166.00 262.69Q165.51 262.83 165.00 262.81Q164.00 262.72 163.00 262.76Q162.00 262.91 161.00 263.11Q160.51 263.26 160.00 263.19Q159.00 263.11 158.00 263.16Q157.00 263.26 156.00 263.38Q155.50 263.46 155.00 263.42Q153.50 263.28 152.00 263.12Q151.48 263.11 151.00 262.92Q150.61 262.84 150.26 262.63Q150.00 262.50 149.76 262.32Q147.69 260.87 145.59 259.44Q144.93 259.05 144.26 258.65Q143.99 258.50 143.76 258.28Q141.65 256.36 139.63 254.35Q138.97 253.53 138.42 252.62Q137.32 250.80 136.20 249.00Q135.16 247.01 134.13 245.00Q133.78 244.26 133.51 243.48Q133.02 241.92 132.53 240.36Q132.07 238.02 131.45 235.70Q131.37 235.36 131.36 235.00Q131.24 233.00 131.11 231.00Q131.09 229.50 131.11 228.00Q131.04 227.00 131.02 226.00Z" fill="#828186" transform="scale(1)"/></g><g data-avatar-compiled-surface-layer="cheek-left" clip-path="url(#rb-compiled-owner-2)"><g transform="translate(-41.331335336551156 17.313365628281378)"><g><path data-avatar-compiled-surface-marking="chinchilla-cheek-left" data-avatar-surface-decal="chinchilla-cheek-left" data-avatar-surface-decal-renderer="compiled" d="M200.03 207.82C199.95 208.92 199.95 210.04 199.79 211.13C199.47 213.26 198.82 215.39 197.87 217.32C196.94 219.23 195.71 220.97 194.21 222.48C192.75 223.95 191.05 225.16 189.19 226.07C182.34 229.37 174.16 227.90 168.40 223.12C164.09 219.54 161.22 214.38 160.39 208.83C159.95 205.88 160.18 205.13 160.40 202.18C160.65 201.11 160.82 200.02 161.14 198.97C161.79 196.90 162.71 194.99 163.97 193.22C165.19 191.50 166.68 190.00 168.40 188.76C170.11 187.54 171.94 186.64 173.97 186.06C181.33 183.93 189.22 186.79 194.22 192.43C197.19 195.78 199.15 200.05 199.79 204.48C199.96 205.58 199.95 206.71 200.03 207.82Z" fill="#dcd6ce" fill-opacity="1" transform="translate(41.331335336551156 -17.313365628281378) scale(1)"/></g></g></g></g><g data-avatar-entity-part="cheek-right" data-avatar-fragment-interaction-area="3367" data-avatar-fragment-interaction-ratio="1" data-avatar-fragment-raw-visible-area="3367" data-avatar-fragment-visible-area="3367" data-avatar-part-geometry="compiled-owner"><g data-avatar-compiled-base-layer="cheek-right"><path data-avatar-compiled-base="cheek-right" d="M261.22 243.00Q261.37 241.00 261.60 239.00Q261.78 238.00 261.94 237.00Q262.04 235.50 262.09 234.00Q262.08 233.49 262.21 233.00Q262.60 230.99 263.10 229.00Q263.28 228.30 263.55 227.64Q263.88 225.82 264.20 224.00Q264.62 222.49 265.07 221.00Q265.59 219.48 266.21 218.00Q266.58 216.48 267.09 215.00Q267.45 213.99 267.86 213.00Q268.15 212.25 268.51 211.52Q269.03 210.56 269.56 209.61Q270.09 208.55 270.46 207.42Q270.79 206.71 271.13 206.00Q271.38 205.42 271.68 204.85Q271.91 204.41 272.18 204.00Q273.79 201.67 275.38 199.32Q276.43 197.91 277.52 196.52Q278.01 196.01 278.50 195.50Q279.05 195.04 279.61 194.59Q280.97 193.44 282.45 192.46Q284.01 191.47 285.61 190.55Q285.86 190.45 286.11 190.38Q287.56 190.05 289.00 189.70Q289.49 189.54 290.00 189.59Q291.50 189.59 293.00 189.69Q294.01 189.80 295.00 190.05Q295.78 190.24 296.56 190.47Q297.88 191.04 299.18 191.64Q299.61 191.83 300.00 192.07Q300.93 192.64 301.82 193.26Q302.60 193.94 303.47 194.52Q304.47 195.53 305.43 196.57Q306.07 197.39 306.77 198.16Q307.66 199.30 308.53 200.45Q309.56 201.96 310.47 203.56Q310.94 204.59 311.45 205.60Q311.82 206.73 312.36 207.80Q312.83 209.27 313.41 210.71Q313.91 212.61 314.53 214.47Q314.62 215.24 314.71 216.00Q315.13 218.37 315.46 220.76Q315.74 221.36 315.87 222.00Q316.04 222.49 316.00 223.00Q316.05 224.50 316.07 226.00Q316.10 226.50 316.06 227.00Q316.07 227.51 315.96 228.00Q315.88 228.80 315.51 229.51Q315.46 230.26 315.33 231.00Q315.33 233.00 315.22 235.00Q315.24 235.54 314.96 236.00Q314.68 236.55 314.42 237.12Q314.30 238.05 314.24 239.00Q314.19 239.49 313.84 239.84Q313.70 240.15 313.43 240.34Q313.32 241.17 313.28 242.00Q313.22 242.49 312.87 242.83Q312.71 243.15 312.41 243.33Q312.32 244.17 312.25 245.00Q312.18 245.49 311.83 245.83Q311.68 246.13 311.42 246.33Q311.31 246.66 311.28 247.00Q311.22 247.50 310.86 247.86Q310.74 248.20 310.43 248.36Q310.32 248.67 310.30 249.00Q310.23 249.51 309.87 249.87Q309.77 250.23 309.42 250.37Q309.33 250.69 309.22 251.00Q309.15 251.48 308.80 251.80Q308.41 252.40 307.92 252.92Q307.79 253.28 307.43 253.42Q307.34 253.70 307.31 254.00Q307.24 254.51 306.88 254.88Q305.80 256.29 304.48 257.48Q304.44 257.75 304.35 258.00Q304.25 258.51 303.87 258.87Q302.00 260.99 299.90 262.90Q299.18 263.75 298.26 264.36Q297.98 264.53 297.76 264.76Q297.45 265.10 297.00 265.15Q296.68 265.25 296.37 265.39Q295.74 266.25 294.88 266.88Q294.59 267.26 294.12 267.38Q293.84 267.43 293.62 267.62Q292.81 267.85 292.04 268.19Q291.69 268.31 291.54 268.65Q290.78 268.87 290.07 269.20Q289.71 269.34 289.57 269.70Q288.84 269.96 288.13 270.24Q287.76 270.40 287.63 270.78Q287.35 271.01 287.00 270.92Q286.52 270.70 286.00 270.80Q285.00 270.80 284.00 270.71Q283.57 270.73 283.16 270.60Q282.09 270.20 281.00 269.89Q280.19 269.75 279.39 269.54Q278.70 269.30 278.00 269.12Q276.99 268.97 276.00 268.70Q274.52 268.16 273.00 267.72Q272.02 267.28 271.00 266.92Q269.49 266.43 268.00 265.87Q267.39 265.64 266.84 265.29Q266.17 264.90 265.54 264.43Q265.15 263.75 264.91 263.00Q264.44 261.49 263.89 260.00Q263.79 259.65 263.61 259.32Q263.46 259.07 263.29 258.82Q263.02 258.45 262.95 258.00Q262.75 257.18 262.55 256.35Q262.16 255.19 261.83 254.00Q261.67 253.51 261.62 253.00Q261.52 252.50 261.55 252.00Q261.55 250.17 261.51 248.35Q261.41 246.67 261.27 245.00Q261.20 244.00 261.22 243.00Z" fill="#828186" transform="scale(1)"/></g><g data-avatar-compiled-surface-layer="cheek-right" clip-path="url(#rb-compiled-owner-3)"><g transform="translate(59.72417823194565 23.203826793707556)"><g><path data-avatar-compiled-surface-marking="chinchilla-cheek-right" data-avatar-surface-decal="chinchilla-cheek-right" data-avatar-surface-decal-renderer="compiled" d="M301.09 213.71C301.01 214.82 301.01 215.93 300.84 217.02C300.52 219.15 299.88 221.28 298.93 223.21C297.99 225.12 296.76 226.86 295.27 228.37C293.80 229.84 292.11 231.05 290.24 231.96C283.40 235.26 275.22 233.79 269.46 229.01C265.14 225.43 262.28 220.27 261.45 214.72C261.01 211.77 261.23 211.02 261.46 208.07C261.70 207.00 261.87 205.91 262.20 204.86C262.84 202.79 263.77 200.88 265.02 199.11C266.25 197.39 267.73 195.89 269.45 194.65C271.17 193.43 273.00 192.53 275.02 191.95C282.39 189.82 290.28 192.68 295.28 198.32C298.25 201.67 300.20 205.94 300.85 210.37C301.01 211.47 301.01 212.60 301.09 213.71Z" fill="#dcd6ce" fill-opacity="1" transform="translate(-59.72417823194565 -23.203826793707556) scale(1)"/></g></g></g></g><g data-avatar-entity-part="primary" data-avatar-fragment-interaction-area="26955" data-avatar-fragment-interaction-ratio="1" data-avatar-fragment-raw-visible-area="26955" data-avatar-fragment-visible-area="26955" data-avatar-part-geometry="compiled-owner"><g data-avatar-compiled-base-layer="primary"><path data-avatar-compiled-base="primary" d="M192.33 126.83C192.59 127.00 192.79 127.31 193.10 127.33C194.08 127.39 195.05 127.13 196.03 127.07C198.35 126.93 200.67 126.79 203.00 126.74C210.13 126.56 212.67 126.71 219.96 127.21C221.31 127.30 222.64 127.51 223.99 127.59C224.27 127.61 224.55 127.54 224.83 127.51Q227.42 127.53 230.00 127.53Q230.56 127.63 230.98 128.02Q231.35 128.15 231.48 128.51Q233.74 128.54 236.00 128.54Q236.56 128.64 236.98 129.02Q237.34 129.15 237.48 129.51Q238.74 129.54 240.00 129.54Q240.56 129.64 240.98 130.02Q241.34 130.15 241.48 130.51Q242.74 130.54 244.00 130.54Q244.56 130.64 244.98 131.02Q245.34 131.15 245.48 131.51Q246.24 131.53 247.00 131.53Q247.56 131.63 247.98 132.02Q248.35 132.15 248.48 132.51Q249.74 132.53 251.00 132.53Q251.56 132.63 251.98 133.02Q252.35 133.15 252.48 133.51Q253.74 133.53 255.00 133.53Q255.56 133.63 255.98 134.02Q256.35 134.15 256.48 134.51Q257.74 134.53 259.00 134.53Q259.56 134.63 259.98 135.02Q260.35 135.15 260.48 135.52Q261.24 135.54 262.00 135.53Q262.56 135.63 262.98 136.02Q263.34 136.15 263.48 136.52Q264.24 136.54 265.00 136.54Q265.56 136.64 265.98 137.02Q266.34 137.15 266.48 137.52Q267.24 137.54 268.00 137.54Q268.56 137.64 268.98 138.02Q269.34 138.16 269.48 138.52Q269.74 138.55 270.00 138.54Q270.56 138.64 270.98 139.02Q271.34 139.16 271.48 139.52Q271.74 139.54 272.00 139.54Q272.56 139.64 272.98 140.02Q273.34 140.15 273.48 140.52Q273.74 140.54 274.00 140.54Q274.56 140.63 274.98 141.02Q275.34 141.15 275.48 141.52Q275.74 141.54 276.00 141.53Q276.56 141.63 276.98 142.02Q277.34 142.15 277.48 142.51Q277.74 142.54 278.00 142.53Q278.56 142.63 278.98 143.02Q279.35 143.15 279.48 143.51Q279.74 143.54 280.00 143.53Q280.56 143.63 280.98 144.02Q281.35 144.15 281.48 144.51Q281.74 144.54 282.00 144.53Q282.56 144.63 282.98 145.02Q283.35 145.15 283.48 145.51Q283.74 145.54 284.00 145.53Q284.56 145.63 284.98 146.02Q285.35 146.15 285.48 146.51Q285.74 146.54 286.00 146.53Q286.56 146.63 286.98 147.02Q287.35 147.15 287.48 147.52Q287.74 147.54 288.00 147.53Q288.56 147.63 288.98 148.02Q289.85 148.65 290.48 149.51Q290.74 149.53 291.00 149.53Q291.56 149.63 291.98 150.02Q292.85 150.65 293.48 151.51Q293.74 151.53 294.00 151.53Q294.56 151.63 294.98 152.02Q296.35 153.15 297.49 154.51Q297.74 154.53 298.00 154.53Q298.56 154.63 298.99 155.01Q299.85 155.65 300.49 156.51Q300.74 156.53 301.00 156.53Q301.56 156.63 301.98 157.02Q306.35 161.15 310.49 165.51Q310.74 165.53 311.00 165.52Q311.57 165.62 311.99 166.01Q312.49 166.51 312.99 167.01Q313.38 167.43 313.48 168.00Q313.47 168.25 313.49 168.51Q313.85 168.65 313.99 169.01Q314.37 169.29 314.49 169.75Q314.77 170.03 315.17 170.00C315.18 170.25 315.05 170.54 315.20 170.74C316.88 173.01 318.93 174.99 320.55 177.30C322.65 180.29 324.60 183.38 326.32 186.60C329.64 192.82 332.36 200.01 333.33 207.02C333.70 209.68 334.05 212.35 334.38 215.02C334.42 215.34 334.44 215.67 334.44 216.00C334.41 218.66 334.36 221.33 334.28 224.00C334.27 224.31 334.21 224.62 334.15 224.93C333.67 227.57 333.17 230.21 332.65 232.84C331.93 236.49 330.36 240.67 328.98 243.71C327.54 246.91 325.01 251.50 322.61 254.70C320.62 257.36 318.80 260.16 316.60 262.65C314.68 264.83 309.26 270.39 305.74 273.16C302.47 275.74 299.15 278.26 295.85 280.81C295.68 280.94 295.51 281.08 295.32 281.19C291.14 283.68 286.95 286.14 282.76 288.60C281.30 289.46 278.91 290.61 277.79 291.07C265.01 296.38 262.30 298.20 251.50 300.49C247.39 301.36 242.11 302.07 237.89 302.76C237.23 302.87 236.58 303.04 235.93 303.13C235.12 303.23 234.29 303.20 233.49 303.34C232.29 303.55 231.13 303.98 229.93 304.19C226.56 304.75 223.16 305.17 219.78 305.65C219.53 305.69 219.27 305.75 219.01 305.75C217.01 305.75 215.01 305.66 213.01 305.65C212.61 305.64 212.21 305.66 211.81 305.71C211.49 305.75 211.19 305.95 210.86 305.94C204.49 305.75 201.19 305.38 195.09 304.65C194.77 304.61 194.45 304.56 194.13 304.48C192.13 303.99 190.15 303.40 188.14 302.96C185.80 302.44 183.43 302.07 181.08 301.59C176.76 300.71 172.44 299.86 168.14 298.88C166.21 298.44 161.67 297.16 159.60 296.28C153.76 293.79 147.98 291.17 142.19 288.56C136.34 285.93 130.28 281.59 125.34 278.47C124.76 278.10 124.21 277.70 123.67 277.27C119.98 274.31 116.16 271.50 112.67 268.31C109.53 265.45 105.42 261.35 102.53 257.48C100.61 254.92 98.70 252.35 96.83 249.76C96.48 249.28 96.14 248.79 95.85 248.27C94.30 245.48 92.81 242.65 91.31 239.83C91.14 239.52 90.97 239.21 90.85 238.88C89.85 236.21 88.88 233.53 87.95 230.84C87.79 230.40 87.67 229.94 87.58 229.48C86.96 226.31 86.39 223.13 85.82 219.95C85.77 219.63 85.74 219.31 85.73 219.00C85.66 216.33 85.60 213.66 85.57 211.00C85.53 207.37 86.15 203.68 87.12 200.18C87.97 197.13 88.64 194.03 89.72 191.06C92.54 183.33 94.38 181.18 98.85 174.22C99.30 173.53 99.72 172.81 100.24 172.16C104.01 167.38 104.07 169.75 103.83 167.18Q108.32 162.49 113.04 158.04Q113.54 157.54 114.08 157.08Q114.47 156.70 115.00 156.61Q115.27 156.56 115.53 156.53Q117.18 154.68 119.05 153.05Q119.46 152.68 120.00 152.58Q120.27 152.58 120.54 152.53Q121.18 151.68 122.05 151.05Q122.46 150.67 123.00 150.58Q123.27 150.58 123.54 150.53Q124.20 149.69 125.08 149.08Q125.47 148.71 126.00 148.62Q126.27 148.58 126.55 148.54Q126.68 148.18 127.05 148.05Q127.55 147.54 128.15 147.15Q128.50 146.78 129.00 146.69Q129.27 146.58 129.57 146.54Q129.70 146.19 130.07 146.07Q130.46 145.68 131.00 145.58Q131.26 145.55 131.52 145.52Q132.21 144.70 133.12 144.12Q133.49 143.75 134.00 143.67Q134.29 143.62 134.57 143.55Q134.71 143.19 135.07 143.07Q135.46 142.70 136.00 142.62Q136.29 142.62 136.58 142.55Q136.72 142.20 137.08 142.08Q137.47 141.71 138.00 141.62Q138.77 141.58 139.55 141.53Q139.68 141.17 140.05 141.05Q140.45 140.67 141.00 140.58Q141.29 140.58 141.57 140.53Q141.71 140.18 142.07 140.07Q142.46 139.69 143.00 139.60Q143.30 139.58 143.59 139.54Q143.74 139.19 144.09 139.09Q144.47 138.72 145.00 138.64Q145.32 138.60 145.65 138.54Q145.83 138.26 146.15 138.15Q146.50 137.78 147.00 137.70Q147.78 137.58 148.57 137.54Q148.71 137.19 149.07 137.07Q149.47 136.70 150.00 136.61Q150.31 136.60 150.62 136.54Q150.76 136.21 151.12 136.12Q151.49 135.75 152.00 135.67Q152.79 135.59 153.57 135.54Q153.71 135.19 154.07 135.07Q154.47 134.70 155.00 134.62Q155.78 134.59 156.55 134.54Q156.69 134.18 157.05 134.05Q157.46 133.68 158.00 133.59Q159.27 133.57 160.54 133.53Q160.67 133.17 161.04 133.04Q161.45 132.66 162.00 132.57Q163.27 132.57 164.54 132.52Q164.68 132.17 165.04 132.04Q165.45 131.66 166.00 131.57Q167.77 131.55 169.53 131.52Q169.67 131.16 170.03 131.03Q170.45 130.65 171.00 130.56Q172.28 130.55 173.56 130.52Q173.71 130.17 174.06 130.06Q174.46 129.69 175.00 129.59Q176.78 129.53 178.56 129.52Q178.70 129.17 179.06 129.06Q179.46 128.69 180.00 128.60Q181.27 128.56 182.55 128.52Q182.69 128.17 183.05 128.05Q183.45 127.67 184.00 127.59Q187.87 127.53 191.75 127.51Q192.13 127.25 192.33 126.83ZM131.02 226.00Q131.04 227.00 131.11 228.00Q131.09 229.50 131.11 231.00Q131.24 233.00 131.36 235.00Q131.37 235.36 131.45 235.70Q132.07 238.02 132.53 240.36Q133.02 241.92 133.51 243.48Q133.78 244.26 134.13 245.00Q135.16 247.01 136.20 249.00Q137.32 250.80 138.42 252.62Q138.97 253.53 139.63 254.35Q141.65 256.36 143.76 258.28Q143.99 258.50 144.26 258.65Q144.93 259.05 145.59 259.44Q147.69 260.87 149.76 262.32Q150.00 262.50 150.26 262.63Q150.61 262.84 151.00 262.92Q151.48 263.11 152.00 263.12Q153.50 263.28 155.00 263.42Q155.50 263.46 156.00 263.38Q157.00 263.26 158.00 263.16Q159.00 263.11 160.00 263.19Q160.51 263.26 161.00 263.11Q162.00 262.91 163.00 262.76Q164.00 262.72 165.00 262.81Q165.51 262.83 166.00 262.69Q170.01 262.03 174.00 261.26Q175.50 261.04 177.00 260.83Q177.48 260.76 177.95 260.62Q179.81 260.09 181.67 259.57Q181.95 259.42 182.17 259.18Q182.88 258.40 183.57 257.58Q184.55 256.56 185.54 255.54Q186.61 254.62 187.63 253.64Q189.32 251.34 190.96 249.00Q191.21 248.67 191.40 248.29Q191.71 247.65 192.00 247.00Q192.74 245.28 193.54 243.58Q194.21 241.79 194.88 240.00Q195.21 239.11 195.44 238.20Q195.77 236.60 196.09 235.00Q196.24 234.00 196.38 233.00Q196.67 231.50 196.93 230.00Q197.04 229.51 197.03 229.00Q197.07 227.50 197.12 226.00Q197.08 224.50 196.96 223.00Q197.00 222.00 197.02 221.00Q197.06 220.50 196.98 220.00Q196.87 219.00 196.77 218.00Q196.69 217.13 196.55 216.27Q196.29 215.13 196.00 214.00Q195.81 212.64 195.55 211.30Q195.04 209.40 194.50 207.51Q193.92 206.19 193.30 204.89Q192.94 204.05 192.65 203.18Q191.95 201.60 191.27 200.00Q190.93 199.23 190.50 198.50Q189.93 197.61 189.34 196.72Q188.03 194.93 186.78 193.10Q186.18 192.26 185.54 191.46Q183.35 189.62 181.24 187.69Q180.35 187.10 179.43 186.54Q178.57 185.95 177.71 185.35Q177.03 184.93 176.30 184.59Q174.64 183.93 172.95 183.35Q170.95 182.84 168.93 182.40Q168.47 182.27 168.00 182.28Q167.50 182.25 167.00 182.26Q165.50 182.25 164.00 182.31Q162.00 182.52 160.00 182.79Q159.48 182.82 159.00 183.03Q157.50 183.57 156.00 184.11Q155.36 184.32 154.76 184.63Q153.04 185.48 151.38 186.43Q150.76 186.80 150.18 187.24Q148.00 189.02 145.82 190.80Q144.10 192.58 142.45 194.45Q141.54 195.62 140.74 196.87Q139.10 199.60 137.35 202.26Q136.95 202.95 136.57 203.65Q135.98 204.96 135.42 206.29Q134.95 207.52 134.62 208.80Q133.96 210.44 133.37 212.11Q132.82 214.07 132.40 216.05Q132.18 217.53 131.95 219.00Q131.74 219.80 131.52 220.61Q131.36 221.30 131.29 222.00Q131.09 224.00 131.02 226.00ZM261.22 243.00Q261.20 244.00 261.27 245.00Q261.41 246.67 261.51 248.35Q261.55 250.17 261.55 252.00Q261.52 252.50 261.62 253.00Q261.67 253.51 261.83 254.00Q262.16 255.19 262.55 256.35Q262.75 257.18 262.95 258.00Q263.02 258.45 263.29 258.82Q263.46 259.07 263.61 259.32Q263.79 259.65 263.89 260.00Q264.44 261.49 264.91 263.00Q265.15 263.75 265.54 264.43Q266.17 264.90 266.84 265.29Q267.39 265.64 268.00 265.87Q269.49 266.43 271.00 266.92Q272.02 267.28 273.00 267.72Q274.52 268.16 276.00 268.70Q276.99 268.97 278.00 269.12Q278.70 269.30 279.39 269.54Q280.19 269.75 281.00 269.89Q282.09 270.20 283.16 270.60Q283.57 270.73 284.00 270.71Q285.00 270.80 286.00 270.80Q286.52 270.70 287.00 270.92Q287.35 271.01 287.63 270.78Q287.76 270.40 288.13 270.24Q288.84 269.96 289.57 269.70Q289.71 269.34 290.07 269.20Q290.78 268.87 291.54 268.65Q291.69 268.31 292.04 268.19Q292.81 267.85 293.62 267.62Q293.84 267.43 294.12 267.38Q294.59 267.26 294.88 266.88Q295.74 266.25 296.37 265.39Q296.68 265.25 297.00 265.15Q297.45 265.10 297.76 264.76Q297.98 264.53 298.26 264.36Q299.18 263.75 299.90 262.90Q302.00 260.99 303.87 258.87Q304.25 258.51 304.35 258.00Q304.44 257.75 304.48 257.48Q305.80 256.29 306.88 254.88Q307.24 254.51 307.31 254.00Q307.34 253.70 307.43 253.42Q307.79 253.28 307.92 252.92Q308.41 252.40 308.80 251.80Q309.15 251.48 309.22 251.00Q309.33 250.69 309.42 250.37Q309.77 250.23 309.87 249.87Q310.23 249.51 310.30 249.00Q310.32 248.67 310.43 248.36Q310.74 248.20 310.86 247.86Q311.22 247.50 311.28 247.00Q311.31 246.66 311.42 246.33Q311.68 246.13 311.83 245.83Q312.18 245.49 312.25 245.00Q312.32 244.17 312.41 243.33Q312.71 243.15 312.87 242.83Q313.22 242.49 313.28 242.00Q313.32 241.17 313.43 240.34Q313.70 240.15 313.84 239.84Q314.19 239.49 314.24 239.00Q314.30 238.05 314.42 237.12Q314.68 236.55 314.96 236.00Q315.24 235.54 315.22 235.00Q315.33 233.00 315.33 231.00Q315.46 230.26 315.51 229.51Q315.88 228.80 315.96 228.00Q316.07 227.51 316.06 227.00Q316.10 226.50 316.07 226.00Q316.05 224.50 316.00 223.00Q316.04 222.49 315.87 222.00Q315.74 221.36 315.46 220.76Q315.13 218.37 314.71 216.00Q314.62 215.24 314.53 214.47Q313.91 212.61 313.41 210.71Q312.83 209.27 312.36 207.80Q311.82 206.73 311.45 205.60Q310.94 204.59 310.47 203.56Q309.56 201.96 308.53 200.45Q307.66 199.30 306.77 198.16Q306.07 197.39 305.43 196.57Q304.47 195.53 303.47 194.52Q302.60 193.94 301.82 193.26Q300.93 192.64 300.00 192.07Q299.61 191.83 299.18 191.64Q297.88 191.04 296.56 190.47Q295.78 190.24 295.00 190.05Q294.01 189.80 293.00 189.69Q291.50 189.59 290.00 189.59Q289.49 189.54 289.00 189.70Q287.56 190.05 286.11 190.38Q285.86 190.45 285.61 190.55Q284.01 191.47 282.45 192.46Q280.97 193.44 279.61 194.59Q279.05 195.04 278.50 195.50Q278.01 196.01 277.52 196.52Q276.43 197.91 275.38 199.32Q273.79 201.67 272.18 204.00Q271.91 204.41 271.68 204.85Q271.38 205.42 271.13 206.00Q270.79 206.71 270.46 207.42Q270.09 208.55 269.56 209.61Q269.03 210.56 268.51 211.52Q268.15 212.25 267.86 213.00Q267.45 213.99 267.09 215.00Q266.58 216.48 266.21 218.00Q265.59 219.48 265.07 221.00Q264.62 222.49 264.20 224.00Q263.88 225.82 263.55 227.64Q263.28 228.30 263.10 229.00Q262.60 230.99 262.21 233.00Q262.08 233.49 262.09 234.00Q262.04 235.50 261.94 237.00Q261.78 238.00 261.60 239.00Q261.37 241.00 261.22 243.00Z" fill="#828186" transform="scale(1)"/></g><g data-avatar-compiled-surface-layer="primary" clip-path="url(#rb-compiled-owner-4)"><g transform="translate(0 14.507609608778495)"><g><path data-avatar-compiled-surface-marking="chinchilla-face-mask" data-avatar-surface-decal="chinchilla-face-mask" data-avatar-surface-decal-renderer="compiled" d="M275.19 223.18C274.78 225.46 274.57 227.78 273.97 230.02C270.78 241.95 262.53 252.23 252.15 258.74C247.78 261.49 243.48 263.43 238.49 264.76C227.10 267.78 214.41 266.40 204.41 259.94C200.90 257.67 196.85 253.90 194.26 250.62C191.56 247.19 189.01 242.58 187.48 238.49C185.88 234.19 184.92 229.42 184.66 224.84C184.53 222.54 184.74 220.22 184.78 217.92C185.17 215.65 185.38 213.36 185.95 211.13C188.19 202.30 193.18 194.28 200.22 188.48C218.57 173.36 247.61 175.21 264.15 192.21C267.33 195.47 269.91 199.19 271.84 203.32C273.85 207.64 274.88 211.57 275.25 216.32C275.42 218.60 275.21 220.90 275.19 223.18Z" fill="#dcd6ce" fill-opacity="1" transform="translate(0 -14.507609608778495) scale(1)"/><g data-avatar-face-surface-layer="primary"><path data-avatar-face-feature="eye-0" d="M 205.161 151.122 L 207.127 151.296 L 209.039 151.774 L 210.823 152.539 L 212.410 153.563 L 213.737 154.808 L 214.752 156.226 L 215.416 157.766 L 215.702 159.366 L 215.898 163.331 L 216.037 167.358 L 216.120 171.448 L 216.147 175.599 L 216.116 179.815 L 216.020 184.102 L 215.861 188.460 L 215.637 192.890 L 215.338 194.709 L 214.660 196.459 L 213.631 198.074 L 212.291 199.488 L 210.693 200.648 L 208.900 201.505 L 206.982 202.026 L 205.014 202.190 L 205.014 202.190 L 205.014 202.190 L 205.014 202.190 L 205.014 202.190 L 205.014 202.190 L 205.014 202.190 L 205.014 202.190 L 205.014 202.190 L 203.071 201.990 L 201.230 201.433 L 199.560 200.542 L 198.124 199.351 L 196.975 197.909 L 196.157 196.272 L 195.699 194.506 L 195.617 192.678 L 195.850 188.239 L 196.015 183.875 L 196.114 179.584 L 196.147 175.366 L 196.118 171.216 L 196.032 167.130 L 195.888 163.108 L 195.684 159.152 L 195.779 157.559 L 196.252 156.036 L 197.084 154.639 L 198.246 153.422 L 199.693 152.430 L 201.372 151.700 L 203.218 151.258 L 205.161 151.122 L 205.161 151.122 L 205.161 151.122 L 205.161 151.122 L 205.161 151.122 L 205.161 151.122 L 205.161 151.122 L 205.161 151.122 Z" fill="#302e34"/><path data-avatar-face-feature="eye-1" d="M 257.963 154.199 L 259.765 154.554 L 261.521 155.206 L 263.162 156.130 L 264.624 157.291 L 265.851 158.648 L 266.792 160.147 L 267.413 161.735 L 267.686 163.349 L 267.890 167.305 L 268.034 171.327 L 268.120 175.413 L 268.149 179.563 L 268.116 183.781 L 268.017 188.072 L 267.852 192.436 L 267.619 196.875 L 267.332 198.681 L 266.697 200.384 L 265.741 201.917 L 264.502 203.220 L 263.029 204.241 L 261.379 204.939 L 259.619 205.286 L 257.815 205.268 L 257.815 205.268 L 257.815 205.268 L 257.815 205.268 L 257.815 205.268 L 257.815 205.268 L 257.815 205.268 L 257.815 205.268 L 257.815 205.268 L 256.037 204.886 L 254.353 204.155 L 252.827 203.104 L 251.516 201.775 L 250.468 200.221 L 249.723 198.503 L 249.308 196.689 L 249.238 194.848 L 249.462 190.419 L 249.621 186.061 L 249.717 181.774 L 249.748 177.557 L 249.721 173.406 L 249.638 169.317 L 249.499 165.289 L 249.302 161.325 L 249.385 159.746 L 249.815 158.270 L 250.574 156.955 L 251.635 155.849 L 252.958 154.995 L 254.493 154.423 L 256.183 154.155 L 257.963 154.199 L 257.963 154.199 L 257.963 154.199 L 257.963 154.199 L 257.963 154.199 L 257.963 154.199 L 257.963 154.199 L 257.963 154.199 Z" fill="#302e34"/></g></g></g></g></g></g></g></g></g></g></svg>