<svg xmlns="http://www.w3.org/2000/svg" class="interactive-avatar__canvas" viewBox="0 0 420 420" aria-hidden="true" focusable="false" width="256" height="256"><defs><clipPath id="oneworks-avatar-export-frame"><path d="M 0 0 H 420 V 420 H 0 Z"/></clipPath></defs><g clip-path="url(#oneworks-avatar-export-frame)"><path d="M 0 0 H 420 V 420 H 0 Z" fill="transparent"/><g><defs><clipPath id="r3-clip"><path d=""/></clipPath><filter id="r3-face-shadow-blur" x="-50%" y="-50%" width="200%" height="200%"><feGaussianBlur stdDeviation="0"/></filter><filter id="r3-avatar-shadow" x="-100%" y="-100%" width="300%" height="300%"><feDropShadow dx="8.485281374238571" dy="8.48528137423857" stdDeviation="8" flood-color="#000000" flood-opacity="0.24"/></filter></defs><g transform="translate(0.9954626485705376 72) translate(210 210) rotate(-7) scale(1.72) translate(-210 -210)"><g data-avatar-entity-fragment-root="true" data-avatar-entity-preset="dog" data-avatar-fragment-composition="compiled-owner-partition" data-avatar-fragment-build-count="1" data-avatar-fragment-build-ms="91.589" data-avatar-fragment-compile-count="3" data-avatar-fragment-compile-ms="136.788" data-avatar-fragment-drag-build-max-ms="0.000" data-avatar-fragment-drag-build-mean-ms="0.000" data-avatar-fragment-drag-build-p95-ms="0.000" data-avatar-fragment-drag-build-samples="0" data-avatar-fragment-quality="full" data-avatar-fragment-raster-size="420" data-avatar-fragment-revision="{&quot;groups&quot;:[{&quot;id&quot;:&quot;anatomy-ear-left&quot;,&quot;primitiveIds&quot;:[&quot;ear-left&quot;],&quot;resolution&quot;:28},{&quot;id&quot;:&quot;anatomy-ear-right&quot;,&quot;primitiveIds&quot;:[&quot;ear-right&quot;],&quot;resolution&quot;:28},{&quot;id&quot;:&quot;anatomy-primary&quot;,&quot;primitiveIds&quot;:[&quot;primary&quot;],&quot;resolution&quot;:28}],&quot;id&quot;:&quot;production-dog&quot;,&quot;primitives&quot;:[{&quot;id&quot;:&quot;ear-left&quot;,&quot;materialId&quot;:&quot;ear-left&quot;,&quot;position&quot;:{&quot;x&quot;:-60,&quot;y&quot;:-73.35,&quot;z&quot;:-10},&quot;productionShape&quot;:&quot;cone&quot;,&quot;roundness&quot;:50,&quot;rotation&quot;:{&quot;x&quot;:-0.06981317007977318,&quot;y&quot;:-0.17453292519943295,&quot;z&quot;:-0.13962634015954636},&quot;scale&quot;:{&quot;x&quot;:26.521199999999997,&quot;y&quot;:56.712,&quot;z&quot;:22.32},&quot;shape&quot;:&quot;cone&quot;},{&quot;id&quot;:&quot;ear-right&quot;,&quot;materialId&quot;:&quot;ear-right&quot;,&quot;position&quot;:{&quot;x&quot;:60,&quot;y&quot;:-73.35,&quot;z&quot;:-10},&quot;productionShape&quot;:&quot;cone&quot;,&quot;roundness&quot;:50,&quot;rotation&quot;:{&quot;x&quot;:-0.06981317007977318,&quot;y&quot;:0.17453292519943295,&quot;z&quot;:0.13962634015954636},&quot;scale&quot;:{&quot;x&quot;:26.521199999999997,&quot;y&quot;:56.712,&quot;z&quot;:22.32},&quot;shape&quot;:&quot;cone&quot;},{&quot;id&quot;:&quot;primary&quot;,&quot;materialId&quot;:&quot;primary&quot;,&quot;position&quot;:{&quot;x&quot;:0,&quot;y&quot;:15,&quot;z&quot;:0},&quot;productionShape&quot;:&quot;trapezoid&quot;,&quot;roundness&quot;:84,&quot;rotation&quot;:{&quot;x&quot;:0,&quot;y&quot;:0,&quot;z&quot;:0},&quot;scale&quot;:{&quot;x&quot;:102.24,&quot;y&quot;:100.32000000000001,&quot;z&quot;:83.52},&quot;shape&quot;:&quot;trapezoid&quot;,&quot;topScale&quot;:0.68}],&quot;resolution&quot;:28,&quot;smoothUnionPairs&quot;:[],&quot;smoothUnionRadius&quot;:0}:420:-0.055990:-0.150947" data-avatar-fragment-release-build-ms="0.000" data-avatar-fragment-settle-build-ms="0.000" data-avatar-fragment-path-characters="27583" data-avatar-fragment-path-serialization-ms="0.007" data-avatar-fragment-candidate-tests="154546" data-avatar-fragment-contour-ms="15.079" data-avatar-fragment-curve-segments="735" data-avatar-fragment-contour-segments="723" data-avatar-fragment-depth-owner-ms="17.980" data-avatar-fragment-line-segments="0" data-avatar-fragment-max-curve-error="0.125" data-avatar-fragment-shared-curve-reuse="88" data-avatar-fragment-null-owner-pixels="0" data-avatar-fragment-transform-ms="2.328"><defs><filter id="r3-entity-face-shadow" x="-50%" y="-50%" width="200%" height="200%"><feGaussianBlur stdDeviation="0"/></filter><clipPath id="r3-compiled-owner-0" clipPathUnits="userSpaceOnUse"><path d="M164.33 124.83Q164.13 125.25 163.75 125.51Q163.29 125.63 163.01 126.01Q162.15 126.65 161.51 127.51Q161.26 127.53 161.00 127.53Q160.44 127.63 160.02 128.02Q158.65 129.15 157.51 130.51Q157.26 130.53 157.00 130.53Q156.44 130.63 156.02 131.02Q154.52 132.52 153.02 134.02Q152.63 134.44 152.53 135.00Q152.53 135.26 152.51 135.51Q149.65 138.15 147.02 141.02Q146.63 141.44 146.53 142.00Q146.54 142.26 146.51 142.51Q145.15 143.65 144.02 145.02Q143.63 145.44 143.53 146.00Q143.53 146.26 143.51 146.52Q142.65 147.15 142.02 148.02Q141.63 148.44 141.53 149.00Q141.54 149.26 141.51 149.52Q141.15 149.65 141.02 150.02Q140.63 150.44 140.53 151.00Q140.53 151.26 140.51 151.51Q139.65 152.15 139.02 153.02Q138.63 153.44 138.53 154.00Q138.53 154.26 138.51 154.51Q138.15 154.65 138.01 155.01Q137.63 155.44 137.53 156.00Q137.53 156.26 137.51 156.51Q137.15 156.65 137.01 157.01Q136.63 157.44 136.53 158.00Q136.53 158.26 136.51 158.51Q136.15 158.65 136.01 159.01Q135.63 159.44 135.53 160.00Q135.53 160.26 135.51 160.51Q135.15 160.65 135.01 161.01Q134.63 161.44 134.52 162.00Q134.53 162.26 134.51 162.51Q134.10 162.53 133.83 162.84C133.98 162.57 134.25 162.34 134.28 162.03C134.55 158.36 134.54 154.68 134.70 151.01C134.88 147.02 135.07 143.03 135.31 139.05C135.56 134.71 135.92 130.39 136.19 126.05C136.84 115.55 136.85 112.49 137.66 103.01C138.17 97.03 138.72 90.98 139.80 85.06C140.02 83.87 140.22 82.67 140.58 81.52C140.65 81.29 140.84 81.05 141.07 81.00C142.32 80.77 144.29 81.20 145.41 81.76C145.56 81.84 145.62 82.01 145.71 82.16C146.30 83.20 146.88 84.25 147.42 85.31C148.27 86.96 149.10 88.61 149.88 90.29C153.05 97.12 155.97 104.09 158.74 111.11C164.09 124.69 160.72 120.71 164.33 124.83Z" transform="scale(1)"/></clipPath><clipPath id="r3-compiled-owner-1" clipPathUnits="userSpaceOnUse"><path d="M287.17 168.84Q286.89 168.54 286.48 168.52Q286.46 167.76 286.46 167.00Q286.36 166.44 285.98 166.02Q285.84 165.66 285.48 165.52Q285.46 165.26 285.46 165.00Q285.36 164.44 284.98 164.02Q284.84 163.66 284.48 163.52Q284.46 163.26 284.46 163.00Q284.36 162.44 283.98 162.02Q283.84 161.66 283.48 161.52Q283.46 161.26 283.46 161.00Q283.36 160.44 282.98 160.02Q282.84 159.66 282.48 159.52Q282.46 159.26 282.46 159.00Q282.36 158.44 281.98 158.02Q281.84 157.66 281.48 157.52Q281.45 157.26 281.46 157.00Q281.36 156.44 280.98 156.02Q280.84 155.66 280.48 155.52Q280.45 155.26 280.46 155.00Q280.36 154.44 279.98 154.02Q279.84 153.66 279.48 153.52Q279.45 153.26 279.45 153.00Q279.35 152.44 278.97 152.03Q278.34 151.16 277.48 150.52Q277.45 150.26 277.46 150.00Q277.36 149.44 276.98 149.02Q276.84 148.66 276.48 148.52Q276.45 148.26 276.45 148.00Q276.35 147.44 275.97 147.03Q274.84 145.66 273.48 144.52Q273.45 144.26 273.46 144.00Q273.36 143.44 272.97 143.03Q272.34 142.16 271.48 141.52Q271.45 141.26 271.44 141.00Q271.35 140.45 270.97 140.03Q265.49 134.51 259.98 129.02Q259.56 128.64 259.00 128.54Q258.74 128.54 258.48 128.51Q257.85 127.65 256.98 127.02Q256.71 126.63 256.25 126.52Q255.87 126.25 255.67 125.83C259.45 122.15 256.08 125.62 260.94 113.17C264.36 104.42 267.88 95.69 271.93 87.21C272.60 85.80 273.18 84.33 274.04 83.02C274.42 82.44 275.16 82.16 275.60 81.62C275.94 81.19 276.04 80.62 276.35 80.17C276.76 79.55 277.78 78.42 278.48 78.02C278.60 77.95 278.83 77.93 278.91 78.05C280.15 79.80 279.82 79.84 280.28 81.55C280.51 82.42 280.85 83.26 281.04 84.14C281.98 88.70 282.42 93.43 282.84 98.06C283.26 102.71 283.52 107.38 283.92 112.04C284.27 116.04 284.74 120.03 285.07 124.04C285.58 130.22 286.16 139.45 286.45 146.00C286.69 151.34 286.85 156.68 287.09 162.01C287.37 168.49 287.98 166.06 287.17 168.84ZM287.49 169.83C287.55 170.37 287.47 169.97 288.17 170.84Q287.90 170.54 287.49 170.52Q287.47 170.17 287.49 169.83Z" transform="scale(1)"/></clipPath><clipPath id="r3-compiled-owner-2" clipPathUnits="userSpaceOnUse"><path d="M255.67 125.83Q255.87 126.25 256.25 126.52Q256.71 126.63 256.98 127.02Q257.85 127.65 258.48 128.51Q258.74 128.54 259.00 128.54Q259.56 128.64 259.98 129.02Q265.49 134.51 270.97 140.03Q271.35 140.45 271.44 141.00Q271.45 141.26 271.48 141.52Q272.34 142.16 272.97 143.03Q273.36 143.44 273.46 144.00Q273.45 144.26 273.48 144.52Q274.84 145.66 275.97 147.03Q276.35 147.44 276.45 148.00Q276.45 148.26 276.48 148.52Q276.84 148.66 276.98 149.02Q277.36 149.44 277.46 150.00Q277.45 150.26 277.48 150.52Q278.34 151.16 278.97 152.03Q279.35 152.44 279.45 153.00Q279.45 153.26 279.48 153.52Q279.84 153.66 279.98 154.02Q280.36 154.44 280.46 155.00Q280.45 155.26 280.48 155.52Q280.84 155.66 280.98 156.02Q281.36 156.44 281.46 157.00Q281.45 157.26 281.48 157.52Q281.84 157.66 281.98 158.02Q282.36 158.44 282.46 159.00Q282.46 159.26 282.48 159.52Q282.84 159.66 282.98 160.02Q283.36 160.44 283.46 161.00Q283.46 161.26 283.48 161.52Q283.84 161.66 283.98 162.02Q284.36 162.44 284.46 163.00Q284.46 163.26 284.48 163.52Q284.84 163.66 284.98 164.02Q285.36 164.44 285.46 165.00Q285.46 165.26 285.48 165.52Q285.84 165.66 285.98 166.02Q286.36 166.44 286.46 167.00Q286.46 167.76 286.48 168.52Q286.89 168.54 287.17 168.84C287.27 169.17 287.38 169.50 287.49 169.83Q287.47 170.17 287.49 170.52Q287.90 170.54 288.17 170.84C287.68 174.72 287.89 171.36 290.54 179.16C292.99 186.39 295.01 193.75 296.75 201.17C298.31 207.85 300.21 217.11 301.44 223.12C303.91 235.21 306.23 247.58 306.11 259.98C306.07 264.73 305.87 266.72 305.26 270.97C304.88 273.56 304.75 274.65 304.12 276.90C303.59 278.77 303.19 280.68 302.48 282.49C299.71 289.52 298.54 290.79 293.84 296.87C293.41 297.42 292.92 297.92 292.40 298.38C290.08 300.40 287.70 302.34 285.33 304.30C284.82 304.72 284.34 305.20 283.75 305.50C280.50 307.16 277.17 308.65 273.85 310.18C271.86 311.10 269.87 312.04 267.83 312.84C267.23 313.08 266.59 313.16 265.96 313.30C263.41 313.87 262.13 314.13 259.49 314.42C245.07 316.05 230.50 316.15 216.00 316.27C203.34 316.38 190.67 316.54 178.01 316.07C170.74 315.80 163.24 315.54 156.10 313.95C153.59 313.39 151.59 312.57 149.25 311.46C145.55 309.70 141.87 307.93 138.18 306.15C134.63 304.43 130.72 300.19 128.61 298.37C123.57 294.01 120.98 287.74 118.31 281.88C118.07 281.34 117.72 280.38 117.55 279.81C116.16 275.02 115.78 274.45 115.23 270.90C114.26 264.60 113.92 263.37 113.87 256.98C113.79 246.98 115.24 236.89 117.11 227.10C118.06 222.10 119.09 217.12 120.10 212.13C120.91 208.10 122.18 202.14 123.12 198.13C124.86 190.71 126.85 183.34 129.33 176.13C130.14 173.78 130.99 171.45 131.90 169.14C134.17 163.41 134.32 166.11 133.83 162.84Q134.10 162.53 134.51 162.51Q134.53 162.26 134.52 162.00Q134.63 161.44 135.01 161.01Q135.15 160.65 135.51 160.51Q135.53 160.26 135.53 160.00Q135.63 159.44 136.01 159.01Q136.15 158.65 136.51 158.51Q136.53 158.26 136.53 158.00Q136.63 157.44 137.01 157.01Q137.15 156.65 137.51 156.51Q137.53 156.26 137.53 156.00Q137.63 155.44 138.01 155.01Q138.15 154.65 138.51 154.51Q138.53 154.26 138.53 154.00Q138.63 153.44 139.02 153.02Q139.65 152.15 140.51 151.51Q140.53 151.26 140.53 151.00Q140.63 150.44 141.02 150.02Q141.15 149.65 141.51 149.52Q141.54 149.26 141.53 149.00Q141.63 148.44 142.02 148.02Q142.65 147.15 143.51 146.52Q143.53 146.26 143.53 146.00Q143.63 145.44 144.02 145.02Q145.15 143.65 146.51 142.51Q146.54 142.26 146.53 142.00Q146.63 141.44 147.02 141.02Q149.65 138.15 152.51 135.51Q152.53 135.26 152.53 135.00Q152.63 134.44 153.02 134.02Q154.52 132.52 156.02 131.02Q156.44 130.63 157.00 130.53Q157.26 130.53 157.51 130.51Q158.65 129.15 160.02 128.02Q160.44 127.63 161.00 127.53Q161.26 127.53 161.51 127.51Q162.15 126.65 163.01 126.01Q163.29 125.63 163.75 125.51Q164.13 125.25 164.33 124.83C164.64 124.84 164.95 124.94 165.24 124.85C165.58 124.75 165.81 124.45 166.13 124.30C166.80 123.97 167.49 123.69 168.18 123.41C169.84 122.73 171.52 122.11 173.17 121.42C173.87 121.13 174.53 120.77 175.23 120.47C175.48 120.36 175.74 120.24 176.01 120.19C176.96 120.04 177.41 120.43 178.37 119.88C178.87 119.60 179.18 119.06 179.62 118.69C180.47 117.96 182.10 117.67 183.08 117.47C188.02 116.50 192.96 116.32 198.01 116.24C205.00 116.13 211.99 116.08 218.98 116.05C221.32 116.05 223.65 116.03 225.98 116.14C227.33 116.20 228.67 116.36 229.99 116.56C230.67 116.66 231.32 116.97 232.00 117.05C232.66 117.13 233.34 116.99 234.00 117.06C234.84 117.15 235.66 117.36 236.49 117.52C236.65 117.55 236.81 117.58 236.96 117.65C238.89 118.47 240.78 119.38 242.71 120.19C243.40 120.47 244.13 120.64 244.82 120.93C247.16 121.91 249.47 122.95 251.78 123.99C252.45 124.29 253.12 124.57 253.74 124.94C255.55 126.01 254.47 126.12 255.67 125.83Z" transform="scale(1)"/></clipPath><clipPath id="r3-entity-eye-0-highlight-clip"><path d="M 181.943 147.745 L 183.612 147.865 L 185.212 148.316 L 186.682 149.081 L 187.967 150.131 L 189.017 151.425 L 189.791 152.915 L 190.260 154.543 L 190.405 156.247 L 190.362 160.452 L 190.325 164.674 L 190.295 168.912 L 190.270 173.167 L 190.252 177.437 L 190.239 181.722 L 190.231 186.023 L 190.230 190.338 L 190.065 192.103 L 189.578 193.809 L 188.787 195.390 L 187.722 196.786 L 186.424 197.944 L 184.943 198.818 L 183.336 199.375 L 181.665 199.593 L 181.665 199.593 L 181.665 199.593 L 181.665 199.593 L 181.665 199.593 L 181.665 199.593 L 181.665 199.593 L 181.665 199.593 L 181.665 199.593 L 179.993 199.465 L 178.386 198.994 L 176.904 198.200 L 175.606 197.112 L 174.540 195.773 L 173.747 194.234 L 173.259 192.555 L 173.094 190.799 L 173.096 186.484 L 173.104 182.184 L 173.117 177.900 L 173.137 173.632 L 173.162 169.381 L 173.194 165.146 L 173.233 160.928 L 173.278 156.729 L 173.462 155.019 L 173.969 153.365 L 174.778 151.832 L 175.859 150.478 L 177.169 149.355 L 178.659 148.505 L 180.271 147.962 L 181.943 147.745 L 181.943 147.745 L 181.943 147.745 L 181.943 147.745 L 181.943 147.745 L 181.943 147.745 L 181.943 147.745 L 181.943 147.745 Z"/></clipPath><clipPath id="r3-entity-eye-1-highlight-clip"><path d="M 229.389 147.346 L 231.083 147.533 L 232.707 148.049 L 234.200 148.874 L 235.504 149.975 L 236.569 151.312 L 237.354 152.831 L 237.829 154.476 L 237.976 156.184 L 237.931 160.383 L 237.893 164.600 L 237.861 168.835 L 237.835 173.087 L 237.816 177.355 L 237.802 181.639 L 237.794 185.938 L 237.793 190.254 L 237.626 192.012 L 237.132 193.700 L 236.330 195.253 L 235.251 196.610 L 233.935 197.719 L 232.434 198.539 L 230.805 199.037 L 229.111 199.193 L 229.111 199.193 L 229.111 199.193 L 229.111 199.193 L 229.111 199.193 L 229.111 199.193 L 229.111 199.193 L 229.111 199.193 L 229.111 199.193 L 227.416 199.003 L 225.786 198.474 L 224.285 197.625 L 222.968 196.489 L 221.887 195.111 L 221.084 193.543 L 220.589 191.846 L 220.422 190.084 L 220.424 185.768 L 220.431 181.468 L 220.444 177.182 L 220.463 172.912 L 220.488 168.658 L 220.518 164.419 L 220.555 160.197 L 220.598 155.992 L 220.784 154.286 L 221.297 152.650 L 222.117 151.146 L 223.213 149.834 L 224.543 148.762 L 226.055 147.971 L 227.691 147.493 L 229.389 147.346 L 229.389 147.346 L 229.389 147.346 L 229.389 147.346 L 229.389 147.346 L 229.389 147.346 L 229.389 147.346 L 229.389 147.346 Z"/></clipPath></defs><g><g data-avatar-entity-part="ear-left" data-avatar-fragment-interaction-area="1206" data-avatar-fragment-interaction-ratio="1" data-avatar-fragment-raw-visible-area="1206" data-avatar-fragment-visible-area="1206" data-avatar-part-geometry="compiled-owner"><g data-avatar-compiled-base-layer="ear-left"><path data-avatar-compiled-base="ear-left" d="M164.33 124.83Q164.13 125.25 163.75 125.51Q163.29 125.63 163.01 126.01Q162.15 126.65 161.51 127.51Q161.26 127.53 161.00 127.53Q160.44 127.63 160.02 128.02Q158.65 129.15 157.51 130.51Q157.26 130.53 157.00 130.53Q156.44 130.63 156.02 131.02Q154.52 132.52 153.02 134.02Q152.63 134.44 152.53 135.00Q152.53 135.26 152.51 135.51Q149.65 138.15 147.02 141.02Q146.63 141.44 146.53 142.00Q146.54 142.26 146.51 142.51Q145.15 143.65 144.02 145.02Q143.63 145.44 143.53 146.00Q143.53 146.26 143.51 146.52Q142.65 147.15 142.02 148.02Q141.63 148.44 141.53 149.00Q141.54 149.26 141.51 149.52Q141.15 149.65 141.02 150.02Q140.63 150.44 140.53 151.00Q140.53 151.26 140.51 151.51Q139.65 152.15 139.02 153.02Q138.63 153.44 138.53 154.00Q138.53 154.26 138.51 154.51Q138.15 154.65 138.01 155.01Q137.63 155.44 137.53 156.00Q137.53 156.26 137.51 156.51Q137.15 156.65 137.01 157.01Q136.63 157.44 136.53 158.00Q136.53 158.26 136.51 158.51Q136.15 158.65 136.01 159.01Q135.63 159.44 135.53 160.00Q135.53 160.26 135.51 160.51Q135.15 160.65 135.01 161.01Q134.63 161.44 134.52 162.00Q134.53 162.26 134.51 162.51Q134.10 162.53 133.83 162.84C133.98 162.57 134.25 162.34 134.28 162.03C134.55 158.36 134.54 154.68 134.70 151.01C134.88 147.02 135.07 143.03 135.31 139.05C135.56 134.71 135.92 130.39 136.19 126.05C136.84 115.55 136.85 112.49 137.66 103.01C138.17 97.03 138.72 90.98 139.80 85.06C140.02 83.87 140.22 82.67 140.58 81.52C140.65 81.29 140.84 81.05 141.07 81.00C142.32 80.77 144.29 81.20 145.41 81.76C145.56 81.84 145.62 82.01 145.71 82.16C146.30 83.20 146.88 84.25 147.42 85.31C148.27 86.96 149.10 88.61 149.88 90.29C153.05 97.12 155.97 104.09 158.74 111.11C164.09 124.69 160.72 120.71 164.33 124.83Z" fill="#9d4920" transform="scale(1)"/></g><g data-avatar-compiled-surface-layer="ear-left" clip-path="url(#r3-compiled-owner-0)"><g transform="translate(-59.346370237180736 -70.50966359903069)"><g/></g></g></g><g data-avatar-entity-part="ear-right" data-avatar-fragment-interaction-area="1354" data-avatar-fragment-interaction-ratio="1" data-avatar-fragment-raw-visible-area="1354" data-avatar-fragment-visible-area="1354" data-avatar-part-geometry="compiled-owner"><g data-avatar-compiled-base-layer="ear-right"><path data-avatar-compiled-base="ear-right" d="M287.17 168.84Q286.89 168.54 286.48 168.52Q286.46 167.76 286.46 167.00Q286.36 166.44 285.98 166.02Q285.84 165.66 285.48 165.52Q285.46 165.26 285.46 165.00Q285.36 164.44 284.98 164.02Q284.84 163.66 284.48 163.52Q284.46 163.26 284.46 163.00Q284.36 162.44 283.98 162.02Q283.84 161.66 283.48 161.52Q283.46 161.26 283.46 161.00Q283.36 160.44 282.98 160.02Q282.84 159.66 282.48 159.52Q282.46 159.26 282.46 159.00Q282.36 158.44 281.98 158.02Q281.84 157.66 281.48 157.52Q281.45 157.26 281.46 157.00Q281.36 156.44 280.98 156.02Q280.84 155.66 280.48 155.52Q280.45 155.26 280.46 155.00Q280.36 154.44 279.98 154.02Q279.84 153.66 279.48 153.52Q279.45 153.26 279.45 153.00Q279.35 152.44 278.97 152.03Q278.34 151.16 277.48 150.52Q277.45 150.26 277.46 150.00Q277.36 149.44 276.98 149.02Q276.84 148.66 276.48 148.52Q276.45 148.26 276.45 148.00Q276.35 147.44 275.97 147.03Q274.84 145.66 273.48 144.52Q273.45 144.26 273.46 144.00Q273.36 143.44 272.97 143.03Q272.34 142.16 271.48 141.52Q271.45 141.26 271.44 141.00Q271.35 140.45 270.97 140.03Q265.49 134.51 259.98 129.02Q259.56 128.64 259.00 128.54Q258.74 128.54 258.48 128.51Q257.85 127.65 256.98 127.02Q256.71 126.63 256.25 126.52Q255.87 126.25 255.67 125.83C259.45 122.15 256.08 125.62 260.94 113.17C264.36 104.42 267.88 95.69 271.93 87.21C272.60 85.80 273.18 84.33 274.04 83.02C274.42 82.44 275.16 82.16 275.60 81.62C275.94 81.19 276.04 80.62 276.35 80.17C276.76 79.55 277.78 78.42 278.48 78.02C278.60 77.95 278.83 77.93 278.91 78.05C280.15 79.80 279.82 79.84 280.28 81.55C280.51 82.42 280.85 83.26 281.04 84.14C281.98 88.70 282.42 93.43 282.84 98.06C283.26 102.71 283.52 107.38 283.92 112.04C284.27 116.04 284.74 120.03 285.07 124.04C285.58 130.22 286.16 139.45 286.45 146.00C286.69 151.34 286.85 156.68 287.09 162.01C287.37 168.49 287.98 166.06 287.17 168.84ZM287.49 169.83C287.55 170.37 287.47 169.97 288.17 170.84Q287.90 170.54 287.49 170.52Q287.47 170.17 287.49 169.83Z" fill="#9d4920" transform="scale(1)"/></g><g data-avatar-compiled-surface-layer="ear-right" clip-path="url(#r3-compiled-owner-1)"><g transform="translate(60.465585879344275 -71.51946934326985)"><g/></g></g></g><g data-avatar-entity-part="primary" data-avatar-fragment-interaction-area="31916" data-avatar-fragment-interaction-ratio="1" data-avatar-fragment-raw-visible-area="31916" data-avatar-fragment-visible-area="31916" data-avatar-part-geometry="compiled-owner"><g data-avatar-compiled-base-layer="primary"><path data-avatar-compiled-base="primary" d="M255.67 125.83Q255.87 126.25 256.25 126.52Q256.71 126.63 256.98 127.02Q257.85 127.65 258.48 128.51Q258.74 128.54 259.00 128.54Q259.56 128.64 259.98 129.02Q265.49 134.51 270.97 140.03Q271.35 140.45 271.44 141.00Q271.45 141.26 271.48 141.52Q272.34 142.16 272.97 143.03Q273.36 143.44 273.46 144.00Q273.45 144.26 273.48 144.52Q274.84 145.66 275.97 147.03Q276.35 147.44 276.45 148.00Q276.45 148.26 276.48 148.52Q276.84 148.66 276.98 149.02Q277.36 149.44 277.46 150.00Q277.45 150.26 277.48 150.52Q278.34 151.16 278.97 152.03Q279.35 152.44 279.45 153.00Q279.45 153.26 279.48 153.52Q279.84 153.66 279.98 154.02Q280.36 154.44 280.46 155.00Q280.45 155.26 280.48 155.52Q280.84 155.66 280.98 156.02Q281.36 156.44 281.46 157.00Q281.45 157.26 281.48 157.52Q281.84 157.66 281.98 158.02Q282.36 158.44 282.46 159.00Q282.46 159.26 282.48 159.52Q282.84 159.66 282.98 160.02Q283.36 160.44 283.46 161.00Q283.46 161.26 283.48 161.52Q283.84 161.66 283.98 162.02Q284.36 162.44 284.46 163.00Q284.46 163.26 284.48 163.52Q284.84 163.66 284.98 164.02Q285.36 164.44 285.46 165.00Q285.46 165.26 285.48 165.52Q285.84 165.66 285.98 166.02Q286.36 166.44 286.46 167.00Q286.46 167.76 286.48 168.52Q286.89 168.54 287.17 168.84C287.27 169.17 287.38 169.50 287.49 169.83Q287.47 170.17 287.49 170.52Q287.90 170.54 288.17 170.84C287.68 174.72 287.89 171.36 290.54 179.16C292.99 186.39 295.01 193.75 296.75 201.17C298.31 207.85 300.21 217.11 301.44 223.12C303.91 235.21 306.23 247.58 306.11 259.98C306.07 264.73 305.87 266.72 305.26 270.97C304.88 273.56 304.75 274.65 304.12 276.90C303.59 278.77 303.19 280.68 302.48 282.49C299.71 289.52 298.54 290.79 293.84 296.87C293.41 297.42 292.92 297.92 292.40 298.38C290.08 300.40 287.70 302.34 285.33 304.30C284.82 304.72 284.34 305.20 283.75 305.50C280.50 307.16 277.17 308.65 273.85 310.18C271.86 311.10 269.87 312.04 267.83 312.84C267.23 313.08 266.59 313.16 265.96 313.30C263.41 313.87 262.13 314.13 259.49 314.42C245.07 316.05 230.50 316.15 216.00 316.27C203.34 316.38 190.67 316.54 178.01 316.07C170.74 315.80 163.24 315.54 156.10 313.95C153.59 313.39 151.59 312.57 149.25 311.46C145.55 309.70 141.87 307.93 138.18 306.15C134.63 304.43 130.72 300.19 128.61 298.37C123.57 294.01 120.98 287.74 118.31 281.88C118.07 281.34 117.72 280.38 117.55 279.81C116.16 275.02 115.78 274.45 115.23 270.90C114.26 264.60 113.92 263.37 113.87 256.98C113.79 246.98 115.24 236.89 117.11 227.10C118.06 222.10 119.09 217.12 120.10 212.13C120.91 208.10 122.18 202.14 123.12 198.13C124.86 190.71 126.85 183.34 129.33 176.13C130.14 173.78 130.99 171.45 131.90 169.14C134.17 163.41 134.32 166.11 133.83 162.84Q134.10 162.53 134.51 162.51Q134.53 162.26 134.52 162.00Q134.63 161.44 135.01 161.01Q135.15 160.65 135.51 160.51Q135.53 160.26 135.53 160.00Q135.63 159.44 136.01 159.01Q136.15 158.65 136.51 158.51Q136.53 158.26 136.53 158.00Q136.63 157.44 137.01 157.01Q137.15 156.65 137.51 156.51Q137.53 156.26 137.53 156.00Q137.63 155.44 138.01 155.01Q138.15 154.65 138.51 154.51Q138.53 154.26 138.53 154.00Q138.63 153.44 139.02 153.02Q139.65 152.15 140.51 151.51Q140.53 151.26 140.53 151.00Q140.63 150.44 141.02 150.02Q141.15 149.65 141.51 149.52Q141.54 149.26 141.53 149.00Q141.63 148.44 142.02 148.02Q142.65 147.15 143.51 146.52Q143.53 146.26 143.53 146.00Q143.63 145.44 144.02 145.02Q145.15 143.65 146.51 142.51Q146.54 142.26 146.53 142.00Q146.63 141.44 147.02 141.02Q149.65 138.15 152.51 135.51Q152.53 135.26 152.53 135.00Q152.63 134.44 153.02 134.02Q154.52 132.52 156.02 131.02Q156.44 130.63 157.00 130.53Q157.26 130.53 157.51 130.51Q158.65 129.15 160.02 128.02Q160.44 127.63 161.00 127.53Q161.26 127.53 161.51 127.51Q162.15 126.65 163.01 126.01Q163.29 125.63 163.75 125.51Q164.13 125.25 164.33 124.83C164.64 124.84 164.95 124.94 165.24 124.85C165.58 124.75 165.81 124.45 166.13 124.30C166.80 123.97 167.49 123.69 168.18 123.41C169.84 122.73 171.52 122.11 173.17 121.42C173.87 121.13 174.53 120.77 175.23 120.47C175.48 120.36 175.74 120.24 176.01 120.19C176.96 120.04 177.41 120.43 178.37 119.88C178.87 119.60 179.18 119.06 179.62 118.69C180.47 117.96 182.10 117.67 183.08 117.47C188.02 116.50 192.96 116.32 198.01 116.24C205.00 116.13 211.99 116.08 218.98 116.05C221.32 116.05 223.65 116.03 225.98 116.14C227.33 116.20 228.67 116.36 229.99 116.56C230.67 116.66 231.32 116.97 232.00 117.05C232.66 117.13 233.34 116.99 234.00 117.06C234.84 117.15 235.66 117.36 236.49 117.52C236.65 117.55 236.81 117.58 236.96 117.65C238.89 118.47 240.78 119.38 242.71 120.19C243.40 120.47 244.13 120.64 244.82 120.93C247.16 121.91 249.47 122.95 251.78 123.99C252.45 124.29 253.12 124.57 253.74 124.94C255.55 126.01 254.47 126.12 255.67 125.83Z" fill="#c76e32" transform="scale(1)"/></g><g data-avatar-compiled-surface-layer="primary" clip-path="url(#r3-compiled-owner-2)"><g transform="translate(0 14.829437684981709)"><g><path data-avatar-compiled-surface-marking="coat-dog-muzzle-muzzle" data-avatar-surface-decal="coat-dog-muzzle-muzzle" data-avatar-surface-decal-renderer="compiled" d="M243.25 236.02C242.83 239.57 243.03 240.43 241.42 243.74C239.40 247.87 236.01 251.20 232.23 253.75C222.86 260.08 210.83 262.22 199.70 261.12C195.88 260.75 192.08 259.97 188.44 258.76C180.95 256.27 173.26 251.66 169.63 244.35C168.00 241.06 168.20 240.20 167.77 236.66C168.18 233.06 167.98 232.26 169.59 228.91C172.36 223.18 177.63 218.99 183.24 216.22C191.83 211.98 201.81 210.60 211.31 211.51C215.12 211.88 218.90 212.63 222.54 213.83C230.08 216.32 237.74 220.96 241.38 228.30C243.01 231.61 242.81 232.45 243.25 236.02Z" fill="#f4dcb9" fill-opacity="1" transform="translate(0 -14.829437684981709) scale(1)"/><g data-avatar-face-surface-layer="primary"><path data-avatar-face-feature="eye-0" d="M 181.943 147.745 L 183.612 147.865 L 185.212 148.316 L 186.682 149.081 L 187.967 150.131 L 189.017 151.425 L 189.791 152.915 L 190.260 154.543 L 190.405 156.247 L 190.362 160.452 L 190.325 164.674 L 190.295 168.912 L 190.270 173.167 L 190.252 177.437 L 190.239 181.722 L 190.231 186.023 L 190.230 190.338 L 190.065 192.103 L 189.578 193.809 L 188.787 195.390 L 187.722 196.786 L 186.424 197.944 L 184.943 198.818 L 183.336 199.375 L 181.665 199.593 L 181.665 199.593 L 181.665 199.593 L 181.665 199.593 L 181.665 199.593 L 181.665 199.593 L 181.665 199.593 L 181.665 199.593 L 181.665 199.593 L 179.993 199.465 L 178.386 198.994 L 176.904 198.200 L 175.606 197.112 L 174.540 195.773 L 173.747 194.234 L 173.259 192.555 L 173.094 190.799 L 173.096 186.484 L 173.104 182.184 L 173.117 177.900 L 173.137 173.632 L 173.162 169.381 L 173.194 165.146 L 173.233 160.928 L 173.278 156.729 L 173.462 155.019 L 173.969 153.365 L 174.778 151.832 L 175.859 150.478 L 177.169 149.355 L 178.659 148.505 L 180.271 147.962 L 181.943 147.745 L 181.943 147.745 L 181.943 147.745 L 181.943 147.745 L 181.943 147.745 L 181.943 147.745 L 181.943 147.745 L 181.943 147.745 Z" fill="#322017"/><path data-avatar-face-feature="eye-1" d="M 229.389 147.346 L 231.083 147.533 L 232.707 148.049 L 234.200 148.874 L 235.504 149.975 L 236.569 151.312 L 237.354 152.831 L 237.829 154.476 L 237.976 156.184 L 237.931 160.383 L 237.893 164.600 L 237.861 168.835 L 237.835 173.087 L 237.816 177.355 L 237.802 181.639 L 237.794 185.938 L 237.793 190.254 L 237.626 192.012 L 237.132 193.700 L 236.330 195.253 L 235.251 196.610 L 233.935 197.719 L 232.434 198.539 L 230.805 199.037 L 229.111 199.193 L 229.111 199.193 L 229.111 199.193 L 229.111 199.193 L 229.111 199.193 L 229.111 199.193 L 229.111 199.193 L 229.111 199.193 L 229.111 199.193 L 227.416 199.003 L 225.786 198.474 L 224.285 197.625 L 222.968 196.489 L 221.887 195.111 L 221.084 193.543 L 220.589 191.846 L 220.422 190.084 L 220.424 185.768 L 220.431 181.468 L 220.444 177.182 L 220.463 172.912 L 220.488 168.658 L 220.518 164.419 L 220.555 160.197 L 220.598 155.992 L 220.784 154.286 L 221.297 152.650 L 222.117 151.146 L 223.213 149.834 L 224.543 148.762 L 226.055 147.971 L 227.691 147.493 L 229.389 147.346 L 229.389 147.346 L 229.389 147.346 L 229.389 147.346 L 229.389 147.346 L 229.389 147.346 L 229.389 147.346 L 229.389 147.346 Z" fill="#322017"/></g></g></g></g></g></g></g></g></g></g></svg>