<svg xmlns="http://www.w3.org/2000/svg" class="interactive-avatar__canvas" viewBox="0 0 420 420" aria-hidden="true" focusable="false" width="256" height="256"><defs><clipPath id="oneworks-avatar-export-frame"><path d="M 0 0 H 420 V 420 H 0 Z"/></clipPath></defs><g clip-path="url(#oneworks-avatar-export-frame)"><path d="M 0 0 H 420 V 420 H 0 Z" fill="transparent"/><g><defs><clipPath id="r5-clip"><path d=""/></clipPath><filter id="r5-face-shadow-blur" x="-50%" y="-50%" width="200%" height="200%"><feGaussianBlur stdDeviation="0"/></filter><filter id="r5-avatar-shadow" x="-100%" y="-100%" width="300%" height="300%"><feDropShadow dx="8.485281374238571" dy="8.48528137423857" stdDeviation="8" flood-color="#000000" flood-opacity="0.24"/></filter></defs><g transform="translate(-60.927638076245785 72) translate(210 210) rotate(7) scale(1.72) translate(-210 -210)"><g data-avatar-entity-fragment-root="true" data-avatar-entity-preset="rabbit" data-avatar-fragment-composition="compiled-owner-partition" data-avatar-fragment-build-count="1" data-avatar-fragment-build-ms="83.720" data-avatar-fragment-compile-count="5" data-avatar-fragment-compile-ms="122.623" data-avatar-fragment-drag-build-max-ms="0.000" data-avatar-fragment-drag-build-mean-ms="0.000" data-avatar-fragment-drag-build-p95-ms="0.000" data-avatar-fragment-drag-build-samples="0" data-avatar-fragment-quality="full" data-avatar-fragment-raster-size="420" data-avatar-fragment-revision="{&quot;groups&quot;:[{&quot;id&quot;:&quot;anatomy-ear-left&quot;,&quot;primitiveIds&quot;:[&quot;ear-left&quot;],&quot;resolution&quot;:28},{&quot;id&quot;:&quot;anatomy-ear-right&quot;,&quot;primitiveIds&quot;:[&quot;ear-right&quot;],&quot;resolution&quot;:28},{&quot;id&quot;:&quot;anatomy-primary&quot;,&quot;primitiveIds&quot;:[&quot;primary&quot;],&quot;resolution&quot;:28}],&quot;id&quot;:&quot;production-rabbit&quot;,&quot;primitives&quot;:[{&quot;id&quot;:&quot;ear-left&quot;,&quot;materialId&quot;:&quot;ear-left&quot;,&quot;position&quot;:{&quot;x&quot;:-82.68,&quot;y&quot;:-32,&quot;z&quot;:-8},&quot;productionShape&quot;:&quot;teardrop&quot;,&quot;roundness&quot;:92,&quot;rotation&quot;:{&quot;x&quot;:-0.05235987755982988,&quot;y&quot;:-0.08726646259971647,&quot;z&quot;:0.8377580409572781},&quot;scale&quot;:{&quot;x&quot;:27.7992,&quot;y&quot;:117.21600000000001,&quot;z&quot;:23.5872},&quot;shape&quot;:&quot;teardrop&quot;,&quot;topScale&quot;:0.9},{&quot;id&quot;:&quot;ear-right&quot;,&quot;materialId&quot;:&quot;ear-right&quot;,&quot;position&quot;:{&quot;x&quot;:82.68,&quot;y&quot;:-32,&quot;z&quot;:-8},&quot;productionShape&quot;:&quot;teardrop&quot;,&quot;roundness&quot;:92,&quot;rotation&quot;:{&quot;x&quot;:-0.06981317007977318,&quot;y&quot;:0.12217304763960307,&quot;z&quot;:-0.8377580409572781},&quot;scale&quot;:{&quot;x&quot;:26.2548,&quot;y&quot;:121.1232,&quot;z&quot;:22.276799999999998},&quot;shape&quot;:&quot;teardrop&quot;,&quot;topScale&quot;:0.9},{&quot;id&quot;:&quot;primary&quot;,&quot;materialId&quot;:&quot;primary&quot;,&quot;position&quot;:{&quot;x&quot;:0,&quot;y&quot;:20,&quot;z&quot;:0},&quot;productionShape&quot;:&quot;trapezoid&quot;,&quot;roundness&quot;:100,&quot;rotation&quot;:{&quot;x&quot;:0,&quot;y&quot;:0,&quot;z&quot;:0},&quot;scale&quot;:{&quot;x&quot;:108.3744,&quot;y&quot;:101.58720000000001,&quot;z&quot;:88.5312},&quot;shape&quot;:&quot;trapezoid&quot;,&quot;topScale&quot;:0.94}],&quot;resolution&quot;:28,&quot;smoothUnionPairs&quot;:[],&quot;smoothUnionRadius&quot;:0}:420:0.233599:-0.228395" data-avatar-fragment-release-build-ms="0.000" data-avatar-fragment-settle-build-ms="0.000" data-avatar-fragment-path-characters="47049" data-avatar-fragment-path-serialization-ms="0.003" data-avatar-fragment-candidate-tests="205943" data-avatar-fragment-contour-ms="10.055" data-avatar-fragment-curve-segments="1265" data-avatar-fragment-contour-segments="1253" data-avatar-fragment-depth-owner-ms="16.100" data-avatar-fragment-line-segments="0" data-avatar-fragment-max-curve-error="0.124" data-avatar-fragment-shared-curve-reuse="167" data-avatar-fragment-null-owner-pixels="0" data-avatar-fragment-transform-ms="2.145"><defs><filter id="r5-entity-face-shadow" x="-50%" y="-50%" width="200%" height="200%"><feGaussianBlur stdDeviation="0"/></filter><clipPath id="r5-compiled-owner-0" clipPathUnits="userSpaceOnUse"><path d="M206.83 96.67Q207.38 96.96 208.00 96.93Q208.40 96.90 208.68 97.17Q208.92 97.58 209.15 98.00Q209.46 98.41 209.46 98.92Q209.48 100.46 209.54 102.00Q209.50 102.52 209.69 103.00Q210.06 103.97 210.14 105.00Q210.25 106.00 210.28 107.00Q210.24 107.51 209.91 107.91Q209.44 108.62 208.80 109.17C208.37 109.61 207.87 110.00 207.50 110.50C207.19 110.92 207.13 111.51 206.77 111.89C206.58 112.10 206.23 112.08 205.94 112.15C205.78 112.20 205.57 112.12 205.46 112.23C205.25 112.45 205.14 112.76 205.08 113.05C205.04 113.29 205.25 113.54 205.17 113.77C205.04 114.10 204.67 114.28 204.49 114.58C204.34 114.84 204.35 115.18 204.18 115.41C203.79 115.94 203.26 116.35 202.84 116.84C202.68 117.03 202.60 117.28 202.43 117.45C202.36 117.52 202.25 117.49 202.17 117.51Q197.58 117.54 193.00 117.55Q192.44 117.64 192.02 118.02Q191.66 118.16 191.52 118.52Q186.76 118.56 182.00 118.57Q181.45 118.66 181.03 119.03Q180.67 119.17 180.53 119.53Q178.77 119.55 177.00 119.61Q176.46 119.69 176.06 120.06Q175.71 120.17 175.56 120.52Q174.78 120.55 174.00 120.57Q173.45 120.66 173.04 121.04Q172.68 121.17 172.54 121.52Q171.27 121.55 170.00 121.55Q169.44 121.65 169.03 122.03Q168.67 122.16 168.53 122.52Q167.26 122.54 166.00 122.55Q165.44 122.65 165.03 123.03Q164.67 123.16 164.53 123.52Q163.26 123.55 162.00 123.55Q161.45 123.65 161.03 124.03Q160.67 124.16 160.53 124.52Q159.77 124.56 159.00 124.55Q158.44 124.65 158.03 125.03Q157.67 125.16 157.53 125.53Q156.76 125.57 156.00 125.57Q155.45 125.66 155.04 126.04Q154.68 126.17 154.54 126.53Q154.27 126.57 154.00 126.57Q153.45 126.66 153.04 127.04Q152.68 127.17 152.54 127.53Q152.27 127.57 152.00 127.57Q151.45 127.67 151.05 128.05Q150.18 128.67 149.53 129.52Q149.27 129.56 149.00 129.56Q148.45 129.65 148.03 130.03Q147.67 130.17 147.53 130.53Q147.27 130.57 147.00 130.56Q146.45 130.66 146.04 131.04Q145.68 131.17 145.54 131.53Q145.27 131.57 145.00 131.57Q144.45 131.67 144.05 132.05Q143.18 132.67 142.53 133.53Q142.27 133.58 142.00 133.57Q141.45 133.66 141.04 134.04Q140.18 134.67 139.54 135.54Q139.27 135.58 139.00 135.63Q138.47 135.72 138.09 136.09Q135.21 138.71 132.54 141.54Q132.27 141.60 132.00 141.65Q131.48 141.74 131.11 142.11Q130.62 142.62 130.17 143.17Q129.80 143.51 129.70 144.00Q129.56 144.25 129.53 144.54Q128.98 145.03 128.69 145.71Q127.24 147.28 125.90 148.94Q125.63 149.32 125.17 149.44Q124.82 149.62 124.71 150.00Q124.61 150.28 124.54 150.57Q124.06 151.20 123.79 151.93Q123.27 152.85 122.61 153.67Q121.65 155.24 120.65 156.80Q119.05 160.02 117.36 163.20Q115.94 166.85 114.49 170.47Q113.32 174.24 112.12 178.00Q111.14 182.00 110.18 186.00Q109.56 189.51 108.84 193.00Q107.94 198.50 107.07 204.00Q106.48 206.99 106.01 210.00Q105.36 212.99 104.78 216.00Q104.27 218.00 103.76 220.00Q103.67 220.34 103.57 220.67Q103.04 222.10 102.51 223.53Q102.09 224.58 101.55 225.58Q100.89 226.43 100.46 227.42Q100.32 227.80 99.96 227.96Q99.70 228.34 99.25 228.46Q98.88 228.75 98.67 229.17C96.11 229.22 98.51 229.09 93.20 233.11C91.32 234.54 87.51 237.21 85.63 238.44C83.48 239.84 80.24 241.84 77.85 243.05C77.14 243.41 76.33 243.54 75.63 243.92C73.95 244.84 72.37 245.96 70.50 246.49C68.62 247.01 66.71 247.44 64.83 247.93C63.67 248.24 62.31 248.87 61.08 248.77C58.74 248.58 56.38 248.46 54.06 248.04C51.85 247.64 49.69 247.00 47.55 246.32C45.54 245.68 42.48 241.69 41.92 241.11C41.24 240.40 40.37 239.97 39.62 239.33C39.47 239.21 39.38 239.02 39.29 238.85C38.55 237.43 38.33 237.20 38.12 235.91C37.80 233.90 37.47 231.90 37.21 229.89C37.12 229.25 37.04 228.61 37.08 227.97C37.20 226.08 37.42 221.49 38.44 219.13C39.10 217.58 39.89 216.09 40.66 214.60C40.69 214.53 40.80 214.53 40.84 214.47C41.06 214.05 41.17 213.59 41.41 213.18C44.53 207.86 48.44 203.12 52.59 198.59C55.30 195.64 58.14 192.80 61.11 190.12C66.91 184.89 71.62 180.70 77.69 175.73C88.01 167.29 98.88 159.55 109.78 151.88C120.54 144.30 131.31 136.72 142.38 129.58C147.08 126.54 151.78 123.50 156.52 120.53C160.08 118.31 163.72 116.20 167.29 113.98C168.43 113.27 169.50 112.45 170.64 111.75C172.11 110.86 173.65 110.09 175.13 109.23C176.17 108.63 177.17 107.95 178.22 107.37C178.73 107.09 179.33 107.01 179.83 106.71C180.69 106.20 181.38 105.45 182.23 104.94C183.48 104.19 184.71 103.39 186.08 102.90C186.43 102.77 189.71 102.57 190.55 102.06C191.05 101.76 191.37 101.23 191.80 100.84C192.32 100.36 192.81 99.84 193.39 99.45C193.70 99.23 194.12 99.23 194.45 99.03C194.76 98.85 194.94 98.46 195.28 98.33C196.55 97.86 197.90 97.63 199.20 97.24C199.54 97.14 199.86 96.99 200.17 96.85C200.45 96.73 200.67 96.42 200.97 96.44C202.62 96.57 204.21 97.21 205.87 97.27C206.25 97.28 206.51 96.87 206.83 96.67Z" transform="scale(1)"/></clipPath><clipPath id="r5-compiled-owner-1" clipPathUnits="userSpaceOnUse"><path d="M264.17 126.51Q262.83 126.54 261.49 126.51Q261.35 126.15 260.99 126.01Q260.56 125.63 260.00 125.53Q259.24 125.53 258.48 125.51Q258.35 125.15 257.98 125.02Q257.56 124.63 257.00 124.53Q256.24 124.53 255.48 124.51Q255.34 124.15 254.98 124.02Q254.56 123.64 254.00 123.54Q252.74 123.54 251.47 123.52Q251.34 123.16 250.97 123.03Q250.56 122.64 250.00 122.54Q249.23 122.54 248.47 122.52Q248.33 122.16 247.97 122.03Q247.55 121.65 247.00 121.55Q245.24 121.54 243.47 121.52Q243.34 121.16 242.97 121.03Q242.56 120.64 242.00 120.55Q240.24 120.54 238.48 120.52Q238.34 120.16 237.98 120.02Q237.56 119.64 237.00 119.55Q232.74 119.54 228.48 119.52Q228.34 119.15 227.98 119.02Q227.56 118.64 227.00 118.54Q220.92 118.53 214.83 118.51C212.02 116.77 214.68 118.44 209.56 110.64C208.88 109.60 209.07 110.06 208.80 109.17Q209.44 108.62 209.91 107.91Q210.24 107.51 210.28 107.00Q210.25 106.00 210.14 105.00Q210.06 103.97 209.69 103.00Q209.50 102.52 209.54 102.00Q209.48 100.46 209.46 98.92Q209.46 98.41 209.15 98.00Q208.92 97.58 208.68 97.17Q208.40 96.90 208.00 96.93Q207.38 96.96 206.83 96.67C206.88 96.42 206.99 96.16 206.96 95.91C206.85 95.01 205.82 93.92 206.42 93.24C207.41 92.15 209.23 92.33 210.62 91.85C211.03 91.70 211.45 91.15 211.85 91.35C214.18 92.53 216.05 94.47 218.33 95.75C220.37 96.89 222.63 97.58 224.75 98.56C225.14 98.74 225.46 99.04 225.84 99.23C226.19 99.42 226.60 99.48 226.93 99.69C229.26 101.18 231.49 102.82 233.81 104.32C234.82 104.98 235.91 105.48 236.91 106.15C237.29 106.41 237.57 106.78 237.92 107.08C238.10 107.24 238.29 107.38 238.48 107.52C239.45 108.24 240.40 108.97 241.38 109.67C243.89 111.49 246.44 113.25 248.94 115.10C251.43 116.94 253.85 118.88 256.32 120.73C257.29 121.45 258.31 122.10 259.26 122.84C264.10 126.58 261.79 126.04 264.17 126.51ZM306.49 161.83C306.86 162.49 306.62 162.17 307.24 162.76Q306.91 162.48 306.49 162.51Q306.48 162.17 306.49 161.83ZM307.24 162.76C313.40 167.93 319.22 173.46 325.13 178.92C326.00 179.72 326.98 180.40 327.83 181.21C329.02 182.35 330.10 183.60 331.31 184.72C333.03 186.33 334.88 187.79 336.60 189.40C342.20 194.63 348.89 201.19 354.13 206.83C359.42 212.53 364.63 218.54 368.82 225.12C369.91 226.83 371.10 228.49 372.05 230.28C373.41 232.84 374.51 235.52 375.73 238.14C376.09 238.93 376.20 239.18 376.34 240.01C376.67 242.00 377.05 243.97 377.28 245.97C377.35 246.56 377.37 247.18 377.24 247.76C377.15 248.19 376.73 248.50 376.64 248.93C376.43 249.93 376.46 250.96 376.34 251.97C376.26 252.60 376.17 253.22 376.02 253.83C375.95 254.14 375.73 254.40 375.71 254.72C375.66 255.24 375.82 255.75 375.82 256.27C375.82 256.39 375.79 256.54 375.69 256.62C374.98 257.26 374.27 257.94 373.43 258.41C372.64 258.85 370.97 258.75 370.40 259.80C369.95 260.63 369.89 261.63 369.49 262.49C369.09 263.34 367.66 264.77 366.85 265.16C366.63 265.26 366.38 265.12 366.15 265.07C365.75 264.99 365.37 264.78 364.96 264.77C363.63 264.76 362.30 264.88 360.97 265.01C360.68 265.04 360.37 265.06 360.14 265.23C359.27 265.90 359.30 266.89 358.03 266.85C356.70 266.81 351.87 266.67 350.09 266.02C344.37 263.90 339.69 260.73 334.67 257.27C333.25 256.29 328.50 252.53 327.35 251.56C325.73 250.21 324.20 248.75 322.57 247.41C322.41 247.28 322.19 247.25 322.00 247.17Q322.40 246.12 322.48 245.00Q322.47 237.50 322.47 230.00Q322.37 229.44 321.98 229.02Q321.85 228.65 321.49 228.52Q321.46 222.26 321.46 216.00Q321.37 215.44 320.98 215.02Q320.85 214.66 320.49 214.52Q320.46 210.76 320.46 207.00Q320.37 206.44 319.98 206.02Q319.85 205.66 319.49 205.52Q319.46 202.76 319.46 200.00Q319.37 199.44 318.98 199.02Q318.85 198.66 318.49 198.52Q318.46 196.26 318.46 194.00Q318.36 193.44 317.98 193.02Q317.85 192.66 317.49 192.52Q317.47 191.26 317.47 190.00Q317.37 189.44 316.98 189.02Q316.85 188.65 316.49 188.52Q316.47 187.26 316.47 186.00Q316.37 185.44 315.98 185.02Q315.85 184.66 315.49 184.52Q315.47 183.76 315.47 183.00Q315.37 182.44 314.98 182.02Q314.85 181.65 314.49 181.52Q314.47 180.76 314.47 180.00Q314.37 179.44 313.98 179.02Q313.85 178.65 313.49 178.52Q313.47 177.76 313.47 177.00Q313.37 176.44 312.98 176.02Q312.85 175.65 312.49 175.52Q312.47 175.26 312.47 175.00Q312.37 174.44 311.99 174.01Q311.85 173.65 311.49 173.51Q311.47 172.76 311.47 172.00Q311.37 171.44 310.98 171.02Q310.85 170.65 310.49 170.52Q310.47 170.26 310.47 170.00Q310.37 169.44 309.99 169.01Q309.85 168.65 309.49 168.51Q309.47 168.26 309.47 168.00Q309.37 167.44 308.99 167.01Q308.85 166.65 308.49 166.51Q308.47 166.26 308.47 166.00Q308.37 165.44 307.99 165.01Q307.85 164.65 307.49 164.51Q307.47 164.26 307.47 164.00Q307.52 163.35 307.24 162.76Z" transform="scale(1)"/></clipPath><clipPath id="r5-compiled-owner-2" clipPathUnits="userSpaceOnUse"><path d="M202.17 117.51C203.95 119.27 202.54 118.25 206.96 118.40C214.51 118.65 211.67 119.18 214.83 118.51Q220.92 118.53 227.00 118.54Q227.56 118.64 227.98 119.02Q228.34 119.15 228.48 119.52Q232.74 119.54 237.00 119.55Q237.56 119.64 237.98 120.02Q238.34 120.16 238.48 120.52Q240.24 120.54 242.00 120.55Q242.56 120.64 242.97 121.03Q243.34 121.16 243.47 121.52Q245.24 121.54 247.00 121.55Q247.55 121.65 247.97 122.03Q248.33 122.16 248.47 122.52Q249.23 122.54 250.00 122.54Q250.56 122.64 250.97 123.03Q251.34 123.16 251.47 123.52Q252.74 123.54 254.00 123.54Q254.56 123.64 254.98 124.02Q255.34 124.15 255.48 124.51Q256.24 124.53 257.00 124.53Q257.56 124.63 257.98 125.02Q258.35 125.15 258.48 125.51Q259.24 125.53 260.00 125.53Q260.56 125.63 260.99 126.01Q261.35 126.15 261.49 126.51Q262.83 126.54 264.17 126.51C264.39 126.86 264.47 127.35 264.83 127.58C265.39 127.94 266.11 127.96 266.75 128.18C267.99 128.60 269.66 129.19 270.81 129.84C274.51 131.93 278.17 134.12 281.84 136.28C284.76 138.00 285.73 139.17 288.78 141.76C290.13 142.91 291.52 144.01 292.86 145.17C293.03 145.31 293.17 145.49 293.32 145.66C295.52 148.13 297.86 150.48 299.89 153.10C301.93 155.72 303.49 158.69 305.50 161.35C305.72 161.64 306.16 161.67 306.49 161.83Q306.48 162.17 306.49 162.51Q306.91 162.48 307.24 162.76Q307.52 163.35 307.47 164.00Q307.47 164.26 307.49 164.51Q307.85 164.65 307.99 165.01Q308.37 165.44 308.47 166.00Q308.47 166.26 308.49 166.51Q308.85 166.65 308.99 167.01Q309.37 167.44 309.47 168.00Q309.47 168.26 309.49 168.51Q309.85 168.65 309.99 169.01Q310.37 169.44 310.47 170.00Q310.47 170.26 310.49 170.52Q310.85 170.65 310.98 171.02Q311.37 171.44 311.47 172.00Q311.47 172.76 311.49 173.51Q311.85 173.65 311.99 174.01Q312.37 174.44 312.47 175.00Q312.47 175.26 312.49 175.52Q312.85 175.65 312.98 176.02Q313.37 176.44 313.47 177.00Q313.47 177.76 313.49 178.52Q313.85 178.65 313.98 179.02Q314.37 179.44 314.47 180.00Q314.47 180.76 314.49 181.52Q314.85 181.65 314.98 182.02Q315.37 182.44 315.47 183.00Q315.47 183.76 315.49 184.52Q315.85 184.66 315.98 185.02Q316.37 185.44 316.47 186.00Q316.47 187.26 316.49 188.52Q316.85 188.65 316.98 189.02Q317.37 189.44 317.47 190.00Q317.47 191.26 317.49 192.52Q317.85 192.66 317.98 193.02Q318.36 193.44 318.46 194.00Q318.46 196.26 318.49 198.52Q318.85 198.66 318.98 199.02Q319.37 199.44 319.46 200.00Q319.46 202.76 319.49 205.52Q319.85 205.66 319.98 206.02Q320.37 206.44 320.46 207.00Q320.46 210.76 320.49 214.52Q320.85 214.66 320.98 215.02Q321.37 215.44 321.46 216.00Q321.46 222.26 321.49 228.52Q321.85 228.65 321.98 229.02Q322.37 229.44 322.47 230.00Q322.47 237.50 322.48 245.00Q322.40 246.12 322.00 247.17C321.83 247.28 321.52 247.30 321.49 247.50C321.15 249.63 321.20 251.80 320.92 253.94C320.22 259.33 319.24 264.66 317.56 269.84C316.68 272.53 315.61 275.15 314.46 277.74C313.68 279.50 312.67 281.16 311.76 282.87C309.11 287.82 307.28 290.03 303.13 295.22C302.56 295.93 301.86 296.55 301.20 297.18C299.07 299.22 296.91 301.23 294.75 303.23C293.81 304.11 292.88 305.02 291.89 305.84C291.17 306.44 290.41 306.99 289.62 307.49C285.93 309.84 282.22 312.19 278.44 314.40C273.92 317.04 264.43 319.56 261.50 320.49C260.64 320.76 259.74 320.87 258.88 321.14C257.53 321.56 256.24 322.12 254.89 322.54C254.24 322.74 253.57 322.84 252.90 322.98C251.23 323.31 249.57 323.67 247.89 323.93C244.43 324.47 237.74 324.95 234.99 325.09C225.36 325.57 215.66 325.27 206.03 324.75C196.71 324.25 187.35 323.85 178.06 322.89C171.78 322.23 165.18 321.56 159.16 319.53C152.83 317.39 146.51 315.23 140.21 313.01C139.51 312.77 138.81 312.50 138.17 312.13C135.14 310.38 132.19 308.50 129.21 306.66C127.88 305.84 126.55 305.00 125.24 304.14C124.51 303.65 122.47 301.69 122.37 301.60C120.30 299.68 118.06 297.93 116.18 295.84C110.93 289.98 109.47 287.04 105.87 280.33C105.60 279.82 105.39 279.27 105.18 278.73C104.27 276.45 103.26 274.21 102.50 271.87C101.66 269.25 101.08 266.56 100.40 263.89C100.31 263.56 100.24 263.23 100.18 262.89C99.07 256.39 98.70 254.79 98.35 247.99C98.02 241.71 98.25 235.43 98.67 229.17Q98.88 228.75 99.25 228.46Q99.70 228.34 99.96 227.96Q100.32 227.80 100.46 227.42Q100.89 226.43 101.55 225.58Q102.09 224.58 102.51 223.53Q103.04 222.10 103.57 220.67Q103.67 220.34 103.76 220.00Q104.27 218.00 104.78 216.00Q105.36 212.99 106.01 210.00Q106.48 206.99 107.07 204.00Q107.94 198.50 108.84 193.00Q109.56 189.51 110.18 186.00Q111.14 182.00 112.12 178.00Q113.32 174.24 114.49 170.47Q115.94 166.85 117.36 163.20Q119.05 160.02 120.65 156.80Q121.65 155.24 122.61 153.67Q123.27 152.85 123.79 151.93Q124.06 151.20 124.54 150.57Q124.61 150.28 124.71 150.00Q124.82 149.62 125.17 149.44Q125.63 149.32 125.90 148.94Q127.24 147.28 128.69 145.71Q128.98 145.03 129.53 144.54Q129.56 144.25 129.70 144.00Q129.80 143.51 130.17 143.17Q130.62 142.62 131.11 142.11Q131.48 141.74 132.00 141.65Q132.27 141.60 132.54 141.54Q135.21 138.71 138.09 136.09Q138.47 135.72 139.00 135.63Q139.27 135.58 139.54 135.54Q140.18 134.67 141.04 134.04Q141.45 133.66 142.00 133.57Q142.27 133.58 142.53 133.53Q143.18 132.67 144.05 132.05Q144.45 131.67 145.00 131.57Q145.27 131.57 145.54 131.53Q145.68 131.17 146.04 131.04Q146.45 130.66 147.00 130.56Q147.27 130.57 147.53 130.53Q147.67 130.17 148.03 130.03Q148.45 129.65 149.00 129.56Q149.27 129.56 149.53 129.52Q150.18 128.67 151.05 128.05Q151.45 127.67 152.00 127.57Q152.27 127.57 152.54 127.53Q152.68 127.17 153.04 127.04Q153.45 126.66 154.00 126.57Q154.27 126.57 154.54 126.53Q154.68 126.17 155.04 126.04Q155.45 125.66 156.00 125.57Q156.76 125.57 157.53 125.53Q157.67 125.16 158.03 125.03Q158.44 124.65 159.00 124.55Q159.77 124.56 160.53 124.52Q160.67 124.16 161.03 124.03Q161.45 123.65 162.00 123.55Q163.26 123.55 164.53 123.52Q164.67 123.16 165.03 123.03Q165.44 122.65 166.00 122.55Q167.26 122.54 168.53 122.52Q168.67 122.16 169.03 122.03Q169.44 121.65 170.00 121.55Q171.27 121.55 172.54 121.52Q172.68 121.17 173.04 121.04Q173.45 120.66 174.00 120.57Q174.78 120.55 175.56 120.52Q175.71 120.17 176.06 120.06Q176.46 119.69 177.00 119.61Q178.77 119.55 180.53 119.53Q180.67 119.17 181.03 119.03Q181.45 118.66 182.00 118.57Q186.76 118.56 191.52 118.52Q191.66 118.16 192.02 118.02Q192.44 117.64 193.00 117.55Q197.58 117.54 202.17 117.51Z" transform="scale(1)"/></clipPath><clipPath id="r5-entity-eye-0-highlight-clip"><path d="M 205.317 155.585 L 207.112 155.798 L 208.846 156.340 L 210.452 157.191 L 211.870 158.319 L 213.043 159.679 L 213.928 161.220 L 214.490 162.883 L 214.706 164.604 L 214.793 168.832 L 214.854 173.084 L 214.891 177.359 L 214.903 181.658 L 214.891 185.980 L 214.854 190.325 L 214.793 194.694 L 214.706 199.086 L 214.490 200.875 L 213.928 202.587 L 213.043 204.157 L 211.870 205.522 L 210.452 206.633 L 208.846 207.444 L 207.112 207.925 L 205.317 208.058 L 205.317 208.058 L 205.317 208.058 L 205.317 208.058 L 205.317 208.058 L 205.317 208.058 L 205.317 208.058 L 205.317 208.058 L 205.317 208.058 L 203.531 207.837 L 201.823 207.270 L 200.257 206.380 L 198.895 205.201 L 197.787 203.777 L 196.978 202.164 L 196.497 200.424 L 196.363 198.625 L 196.454 194.229 L 196.518 189.857 L 196.556 185.511 L 196.568 181.188 L 196.556 176.890 L 196.518 172.616 L 196.454 168.367 L 196.363 164.142 L 196.497 162.432 L 196.978 160.797 L 197.787 159.299 L 198.895 157.997 L 200.257 156.939 L 201.823 156.167 L 203.531 155.710 L 205.317 155.585 L 205.317 155.585 L 205.317 155.585 L 205.317 155.585 L 205.317 155.585 L 205.317 155.585 L 205.317 155.585 L 205.317 155.585 Z"/></clipPath><clipPath id="r5-entity-eye-1-highlight-clip"><path d="M 254.320 158.225 L 256.011 158.537 L 257.645 159.174 L 259.160 160.112 L 260.498 161.316 L 261.607 162.738 L 262.444 164.324 L 262.977 166.014 L 263.186 167.742 L 263.276 171.967 L 263.340 176.216 L 263.378 180.490 L 263.391 184.788 L 263.378 189.111 L 263.340 193.457 L 263.276 197.829 L 263.186 202.225 L 262.977 204.006 L 262.444 205.691 L 261.607 207.215 L 260.498 208.519 L 259.160 209.554 L 257.645 210.278 L 256.011 210.664 L 254.320 210.698 L 254.320 210.698 L 254.320 210.698 L 254.320 210.698 L 254.320 210.698 L 254.320 210.698 L 254.320 210.698 L 254.320 210.698 L 254.320 210.698 L 252.638 210.378 L 251.029 209.717 L 249.556 208.739 L 248.273 207.484 L 247.230 205.998 L 246.468 204.340 L 246.016 202.574 L 245.890 200.766 L 245.977 196.374 L 246.038 192.005 L 246.075 187.660 L 246.087 183.338 L 246.075 179.039 L 246.038 174.764 L 245.977 170.512 L 245.890 166.284 L 246.016 164.582 L 246.468 162.973 L 247.230 161.521 L 248.273 160.280 L 249.556 159.298 L 251.029 158.613 L 252.638 158.251 L 254.320 158.225 L 254.320 158.225 L 254.320 158.225 L 254.320 158.225 L 254.320 158.225 L 254.320 158.225 L 254.320 158.225 L 254.320 158.225 Z"/></clipPath></defs><g><g data-avatar-entity-part="ear-left" data-avatar-fragment-interaction-area="5309" data-avatar-fragment-interaction-ratio="1" data-avatar-fragment-raw-visible-area="5309" data-avatar-fragment-visible-area="5309" data-avatar-part-geometry="compiled-owner"><g data-avatar-compiled-base-layer="ear-left"><path data-avatar-compiled-base="ear-left" d="M206.83 96.67Q207.38 96.96 208.00 96.93Q208.40 96.90 208.68 97.17Q208.92 97.58 209.15 98.00Q209.46 98.41 209.46 98.92Q209.48 100.46 209.54 102.00Q209.50 102.52 209.69 103.00Q210.06 103.97 210.14 105.00Q210.25 106.00 210.28 107.00Q210.24 107.51 209.91 107.91Q209.44 108.62 208.80 109.17C208.37 109.61 207.87 110.00 207.50 110.50C207.19 110.92 207.13 111.51 206.77 111.89C206.58 112.10 206.23 112.08 205.94 112.15C205.78 112.20 205.57 112.12 205.46 112.23C205.25 112.45 205.14 112.76 205.08 113.05C205.04 113.29 205.25 113.54 205.17 113.77C205.04 114.10 204.67 114.28 204.49 114.58C204.34 114.84 204.35 115.18 204.18 115.41C203.79 115.94 203.26 116.35 202.84 116.84C202.68 117.03 202.60 117.28 202.43 117.45C202.36 117.52 202.25 117.49 202.17 117.51Q197.58 117.54 193.00 117.55Q192.44 117.64 192.02 118.02Q191.66 118.16 191.52 118.52Q186.76 118.56 182.00 118.57Q181.45 118.66 181.03 119.03Q180.67 119.17 180.53 119.53Q178.77 119.55 177.00 119.61Q176.46 119.69 176.06 120.06Q175.71 120.17 175.56 120.52Q174.78 120.55 174.00 120.57Q173.45 120.66 173.04 121.04Q172.68 121.17 172.54 121.52Q171.27 121.55 170.00 121.55Q169.44 121.65 169.03 122.03Q168.67 122.16 168.53 122.52Q167.26 122.54 166.00 122.55Q165.44 122.65 165.03 123.03Q164.67 123.16 164.53 123.52Q163.26 123.55 162.00 123.55Q161.45 123.65 161.03 124.03Q160.67 124.16 160.53 124.52Q159.77 124.56 159.00 124.55Q158.44 124.65 158.03 125.03Q157.67 125.16 157.53 125.53Q156.76 125.57 156.00 125.57Q155.45 125.66 155.04 126.04Q154.68 126.17 154.54 126.53Q154.27 126.57 154.00 126.57Q153.45 126.66 153.04 127.04Q152.68 127.17 152.54 127.53Q152.27 127.57 152.00 127.57Q151.45 127.67 151.05 128.05Q150.18 128.67 149.53 129.52Q149.27 129.56 149.00 129.56Q148.45 129.65 148.03 130.03Q147.67 130.17 147.53 130.53Q147.27 130.57 147.00 130.56Q146.45 130.66 146.04 131.04Q145.68 131.17 145.54 131.53Q145.27 131.57 145.00 131.57Q144.45 131.67 144.05 132.05Q143.18 132.67 142.53 133.53Q142.27 133.58 142.00 133.57Q141.45 133.66 141.04 134.04Q140.18 134.67 139.54 135.54Q139.27 135.58 139.00 135.63Q138.47 135.72 138.09 136.09Q135.21 138.71 132.54 141.54Q132.27 141.60 132.00 141.65Q131.48 141.74 131.11 142.11Q130.62 142.62 130.17 143.17Q129.80 143.51 129.70 144.00Q129.56 144.25 129.53 144.54Q128.98 145.03 128.69 145.71Q127.24 147.28 125.90 148.94Q125.63 149.32 125.17 149.44Q124.82 149.62 124.71 150.00Q124.61 150.28 124.54 150.57Q124.06 151.20 123.79 151.93Q123.27 152.85 122.61 153.67Q121.65 155.24 120.65 156.80Q119.05 160.02 117.36 163.20Q115.94 166.85 114.49 170.47Q113.32 174.24 112.12 178.00Q111.14 182.00 110.18 186.00Q109.56 189.51 108.84 193.00Q107.94 198.50 107.07 204.00Q106.48 206.99 106.01 210.00Q105.36 212.99 104.78 216.00Q104.27 218.00 103.76 220.00Q103.67 220.34 103.57 220.67Q103.04 222.10 102.51 223.53Q102.09 224.58 101.55 225.58Q100.89 226.43 100.46 227.42Q100.32 227.80 99.96 227.96Q99.70 228.34 99.25 228.46Q98.88 228.75 98.67 229.17C96.11 229.22 98.51 229.09 93.20 233.11C91.32 234.54 87.51 237.21 85.63 238.44C83.48 239.84 80.24 241.84 77.85 243.05C77.14 243.41 76.33 243.54 75.63 243.92C73.95 244.84 72.37 245.96 70.50 246.49C68.62 247.01 66.71 247.44 64.83 247.93C63.67 248.24 62.31 248.87 61.08 248.77C58.74 248.58 56.38 248.46 54.06 248.04C51.85 247.64 49.69 247.00 47.55 246.32C45.54 245.68 42.48 241.69 41.92 241.11C41.24 240.40 40.37 239.97 39.62 239.33C39.47 239.21 39.38 239.02 39.29 238.85C38.55 237.43 38.33 237.20 38.12 235.91C37.80 233.90 37.47 231.90 37.21 229.89C37.12 229.25 37.04 228.61 37.08 227.97C37.20 226.08 37.42 221.49 38.44 219.13C39.10 217.58 39.89 216.09 40.66 214.60C40.69 214.53 40.80 214.53 40.84 214.47C41.06 214.05 41.17 213.59 41.41 213.18C44.53 207.86 48.44 203.12 52.59 198.59C55.30 195.64 58.14 192.80 61.11 190.12C66.91 184.89 71.62 180.70 77.69 175.73C88.01 167.29 98.88 159.55 109.78 151.88C120.54 144.30 131.31 136.72 142.38 129.58C147.08 126.54 151.78 123.50 156.52 120.53C160.08 118.31 163.72 116.20 167.29 113.98C168.43 113.27 169.50 112.45 170.64 111.75C172.11 110.86 173.65 110.09 175.13 109.23C176.17 108.63 177.17 107.95 178.22 107.37C178.73 107.09 179.33 107.01 179.83 106.71C180.69 106.20 181.38 105.45 182.23 104.94C183.48 104.19 184.71 103.39 186.08 102.90C186.43 102.77 189.71 102.57 190.55 102.06C191.05 101.76 191.37 101.23 191.80 100.84C192.32 100.36 192.81 99.84 193.39 99.45C193.70 99.23 194.12 99.23 194.45 99.03C194.76 98.85 194.94 98.46 195.28 98.33C196.55 97.86 197.90 97.63 199.20 97.24C199.54 97.14 199.86 96.99 200.17 96.85C200.45 96.73 200.67 96.42 200.97 96.44C202.62 96.57 204.21 97.21 205.87 97.27C206.25 97.28 206.51 96.87 206.83 96.67Z" fill="#af6b3e" transform="scale(1)"/></g><g data-avatar-compiled-surface-layer="ear-left" clip-path="url(#r5-compiled-owner-0)"><g transform="translate(-82.28622359633451 -33.74016577346517)"><g/></g></g></g><g data-avatar-entity-part="ear-right" data-avatar-fragment-interaction-area="4141" data-avatar-fragment-interaction-ratio="1" data-avatar-fragment-raw-visible-area="4141" data-avatar-fragment-visible-area="4141" data-avatar-part-geometry="compiled-owner"><g data-avatar-compiled-base-layer="ear-right"><path data-avatar-compiled-base="ear-right" d="M264.17 126.51Q262.83 126.54 261.49 126.51Q261.35 126.15 260.99 126.01Q260.56 125.63 260.00 125.53Q259.24 125.53 258.48 125.51Q258.35 125.15 257.98 125.02Q257.56 124.63 257.00 124.53Q256.24 124.53 255.48 124.51Q255.34 124.15 254.98 124.02Q254.56 123.64 254.00 123.54Q252.74 123.54 251.47 123.52Q251.34 123.16 250.97 123.03Q250.56 122.64 250.00 122.54Q249.23 122.54 248.47 122.52Q248.33 122.16 247.97 122.03Q247.55 121.65 247.00 121.55Q245.24 121.54 243.47 121.52Q243.34 121.16 242.97 121.03Q242.56 120.64 242.00 120.55Q240.24 120.54 238.48 120.52Q238.34 120.16 237.98 120.02Q237.56 119.64 237.00 119.55Q232.74 119.54 228.48 119.52Q228.34 119.15 227.98 119.02Q227.56 118.64 227.00 118.54Q220.92 118.53 214.83 118.51C212.02 116.77 214.68 118.44 209.56 110.64C208.88 109.60 209.07 110.06 208.80 109.17Q209.44 108.62 209.91 107.91Q210.24 107.51 210.28 107.00Q210.25 106.00 210.14 105.00Q210.06 103.97 209.69 103.00Q209.50 102.52 209.54 102.00Q209.48 100.46 209.46 98.92Q209.46 98.41 209.15 98.00Q208.92 97.58 208.68 97.17Q208.40 96.90 208.00 96.93Q207.38 96.96 206.83 96.67C206.88 96.42 206.99 96.16 206.96 95.91C206.85 95.01 205.82 93.92 206.42 93.24C207.41 92.15 209.23 92.33 210.62 91.85C211.03 91.70 211.45 91.15 211.85 91.35C214.18 92.53 216.05 94.47 218.33 95.75C220.37 96.89 222.63 97.58 224.75 98.56C225.14 98.74 225.46 99.04 225.84 99.23C226.19 99.42 226.60 99.48 226.93 99.69C229.26 101.18 231.49 102.82 233.81 104.32C234.82 104.98 235.91 105.48 236.91 106.15C237.29 106.41 237.57 106.78 237.92 107.08C238.10 107.24 238.29 107.38 238.48 107.52C239.45 108.24 240.40 108.97 241.38 109.67C243.89 111.49 246.44 113.25 248.94 115.10C251.43 116.94 253.85 118.88 256.32 120.73C257.29 121.45 258.31 122.10 259.26 122.84C264.10 126.58 261.79 126.04 264.17 126.51ZM306.49 161.83C306.86 162.49 306.62 162.17 307.24 162.76Q306.91 162.48 306.49 162.51Q306.48 162.17 306.49 161.83ZM307.24 162.76C313.40 167.93 319.22 173.46 325.13 178.92C326.00 179.72 326.98 180.40 327.83 181.21C329.02 182.35 330.10 183.60 331.31 184.72C333.03 186.33 334.88 187.79 336.60 189.40C342.20 194.63 348.89 201.19 354.13 206.83C359.42 212.53 364.63 218.54 368.82 225.12C369.91 226.83 371.10 228.49 372.05 230.28C373.41 232.84 374.51 235.52 375.73 238.14C376.09 238.93 376.20 239.18 376.34 240.01C376.67 242.00 377.05 243.97 377.28 245.97C377.35 246.56 377.37 247.18 377.24 247.76C377.15 248.19 376.73 248.50 376.64 248.93C376.43 249.93 376.46 250.96 376.34 251.97C376.26 252.60 376.17 253.22 376.02 253.83C375.95 254.14 375.73 254.40 375.71 254.72C375.66 255.24 375.82 255.75 375.82 256.27C375.82 256.39 375.79 256.54 375.69 256.62C374.98 257.26 374.27 257.94 373.43 258.41C372.64 258.85 370.97 258.75 370.40 259.80C369.95 260.63 369.89 261.63 369.49 262.49C369.09 263.34 367.66 264.77 366.85 265.16C366.63 265.26 366.38 265.12 366.15 265.07C365.75 264.99 365.37 264.78 364.96 264.77C363.63 264.76 362.30 264.88 360.97 265.01C360.68 265.04 360.37 265.06 360.14 265.23C359.27 265.90 359.30 266.89 358.03 266.85C356.70 266.81 351.87 266.67 350.09 266.02C344.37 263.90 339.69 260.73 334.67 257.27C333.25 256.29 328.50 252.53 327.35 251.56C325.73 250.21 324.20 248.75 322.57 247.41C322.41 247.28 322.19 247.25 322.00 247.17Q322.40 246.12 322.48 245.00Q322.47 237.50 322.47 230.00Q322.37 229.44 321.98 229.02Q321.85 228.65 321.49 228.52Q321.46 222.26 321.46 216.00Q321.37 215.44 320.98 215.02Q320.85 214.66 320.49 214.52Q320.46 210.76 320.46 207.00Q320.37 206.44 319.98 206.02Q319.85 205.66 319.49 205.52Q319.46 202.76 319.46 200.00Q319.37 199.44 318.98 199.02Q318.85 198.66 318.49 198.52Q318.46 196.26 318.46 194.00Q318.36 193.44 317.98 193.02Q317.85 192.66 317.49 192.52Q317.47 191.26 317.47 190.00Q317.37 189.44 316.98 189.02Q316.85 188.65 316.49 188.52Q316.47 187.26 316.47 186.00Q316.37 185.44 315.98 185.02Q315.85 184.66 315.49 184.52Q315.47 183.76 315.47 183.00Q315.37 182.44 314.98 182.02Q314.85 181.65 314.49 181.52Q314.47 180.76 314.47 180.00Q314.37 179.44 313.98 179.02Q313.85 178.65 313.49 178.52Q313.47 177.76 313.47 177.00Q313.37 176.44 312.98 176.02Q312.85 175.65 312.49 175.52Q312.47 175.26 312.47 175.00Q312.37 174.44 311.99 174.01Q311.85 173.65 311.49 173.51Q311.47 172.76 311.47 172.00Q311.37 171.44 310.98 171.02Q310.85 170.65 310.49 170.52Q310.47 170.26 310.47 170.00Q310.37 169.44 309.99 169.01Q309.85 168.65 309.49 168.51Q309.47 168.26 309.47 168.00Q309.37 167.44 308.99 167.01Q308.85 166.65 308.49 166.51Q308.47 166.26 308.47 166.00Q308.37 165.44 307.99 165.01Q307.85 164.65 307.49 164.51Q307.47 164.26 307.47 164.00Q307.52 163.35 307.24 162.76Z" fill="#af6b3e" transform="scale(1)"/></g><g data-avatar-compiled-surface-layer="ear-right" clip-path="url(#r5-compiled-owner-1)"><g transform="translate(78.58254396983722 -25.073591464086245)"><g/></g></g></g><g data-avatar-entity-part="primary" data-avatar-fragment-interaction-area="38546" data-avatar-fragment-interaction-ratio="1" data-avatar-fragment-raw-visible-area="38546" data-avatar-fragment-visible-area="38546" data-avatar-part-geometry="compiled-owner"><g data-avatar-compiled-base-layer="primary"><path data-avatar-compiled-base="primary" d="M202.17 117.51C203.95 119.27 202.54 118.25 206.96 118.40C214.51 118.65 211.67 119.18 214.83 118.51Q220.92 118.53 227.00 118.54Q227.56 118.64 227.98 119.02Q228.34 119.15 228.48 119.52Q232.74 119.54 237.00 119.55Q237.56 119.64 237.98 120.02Q238.34 120.16 238.48 120.52Q240.24 120.54 242.00 120.55Q242.56 120.64 242.97 121.03Q243.34 121.16 243.47 121.52Q245.24 121.54 247.00 121.55Q247.55 121.65 247.97 122.03Q248.33 122.16 248.47 122.52Q249.23 122.54 250.00 122.54Q250.56 122.64 250.97 123.03Q251.34 123.16 251.47 123.52Q252.74 123.54 254.00 123.54Q254.56 123.64 254.98 124.02Q255.34 124.15 255.48 124.51Q256.24 124.53 257.00 124.53Q257.56 124.63 257.98 125.02Q258.35 125.15 258.48 125.51Q259.24 125.53 260.00 125.53Q260.56 125.63 260.99 126.01Q261.35 126.15 261.49 126.51Q262.83 126.54 264.17 126.51C264.39 126.86 264.47 127.35 264.83 127.58C265.39 127.94 266.11 127.96 266.75 128.18C267.99 128.60 269.66 129.19 270.81 129.84C274.51 131.93 278.17 134.12 281.84 136.28C284.76 138.00 285.73 139.17 288.78 141.76C290.13 142.91 291.52 144.01 292.86 145.17C293.03 145.31 293.17 145.49 293.32 145.66C295.52 148.13 297.86 150.48 299.89 153.10C301.93 155.72 303.49 158.69 305.50 161.35C305.72 161.64 306.16 161.67 306.49 161.83Q306.48 162.17 306.49 162.51Q306.91 162.48 307.24 162.76Q307.52 163.35 307.47 164.00Q307.47 164.26 307.49 164.51Q307.85 164.65 307.99 165.01Q308.37 165.44 308.47 166.00Q308.47 166.26 308.49 166.51Q308.85 166.65 308.99 167.01Q309.37 167.44 309.47 168.00Q309.47 168.26 309.49 168.51Q309.85 168.65 309.99 169.01Q310.37 169.44 310.47 170.00Q310.47 170.26 310.49 170.52Q310.85 170.65 310.98 171.02Q311.37 171.44 311.47 172.00Q311.47 172.76 311.49 173.51Q311.85 173.65 311.99 174.01Q312.37 174.44 312.47 175.00Q312.47 175.26 312.49 175.52Q312.85 175.65 312.98 176.02Q313.37 176.44 313.47 177.00Q313.47 177.76 313.49 178.52Q313.85 178.65 313.98 179.02Q314.37 179.44 314.47 180.00Q314.47 180.76 314.49 181.52Q314.85 181.65 314.98 182.02Q315.37 182.44 315.47 183.00Q315.47 183.76 315.49 184.52Q315.85 184.66 315.98 185.02Q316.37 185.44 316.47 186.00Q316.47 187.26 316.49 188.52Q316.85 188.65 316.98 189.02Q317.37 189.44 317.47 190.00Q317.47 191.26 317.49 192.52Q317.85 192.66 317.98 193.02Q318.36 193.44 318.46 194.00Q318.46 196.26 318.49 198.52Q318.85 198.66 318.98 199.02Q319.37 199.44 319.46 200.00Q319.46 202.76 319.49 205.52Q319.85 205.66 319.98 206.02Q320.37 206.44 320.46 207.00Q320.46 210.76 320.49 214.52Q320.85 214.66 320.98 215.02Q321.37 215.44 321.46 216.00Q321.46 222.26 321.49 228.52Q321.85 228.65 321.98 229.02Q322.37 229.44 322.47 230.00Q322.47 237.50 322.48 245.00Q322.40 246.12 322.00 247.17C321.83 247.28 321.52 247.30 321.49 247.50C321.15 249.63 321.20 251.80 320.92 253.94C320.22 259.33 319.24 264.66 317.56 269.84C316.68 272.53 315.61 275.15 314.46 277.74C313.68 279.50 312.67 281.16 311.76 282.87C309.11 287.82 307.28 290.03 303.13 295.22C302.56 295.93 301.86 296.55 301.20 297.18C299.07 299.22 296.91 301.23 294.75 303.23C293.81 304.11 292.88 305.02 291.89 305.84C291.17 306.44 290.41 306.99 289.62 307.49C285.93 309.84 282.22 312.19 278.44 314.40C273.92 317.04 264.43 319.56 261.50 320.49C260.64 320.76 259.74 320.87 258.88 321.14C257.53 321.56 256.24 322.12 254.89 322.54C254.24 322.74 253.57 322.84 252.90 322.98C251.23 323.31 249.57 323.67 247.89 323.93C244.43 324.47 237.74 324.95 234.99 325.09C225.36 325.57 215.66 325.27 206.03 324.75C196.71 324.25 187.35 323.85 178.06 322.89C171.78 322.23 165.18 321.56 159.16 319.53C152.83 317.39 146.51 315.23 140.21 313.01C139.51 312.77 138.81 312.50 138.17 312.13C135.14 310.38 132.19 308.50 129.21 306.66C127.88 305.84 126.55 305.00 125.24 304.14C124.51 303.65 122.47 301.69 122.37 301.60C120.30 299.68 118.06 297.93 116.18 295.84C110.93 289.98 109.47 287.04 105.87 280.33C105.60 279.82 105.39 279.27 105.18 278.73C104.27 276.45 103.26 274.21 102.50 271.87C101.66 269.25 101.08 266.56 100.40 263.89C100.31 263.56 100.24 263.23 100.18 262.89C99.07 256.39 98.70 254.79 98.35 247.99C98.02 241.71 98.25 235.43 98.67 229.17Q98.88 228.75 99.25 228.46Q99.70 228.34 99.96 227.96Q100.32 227.80 100.46 227.42Q100.89 226.43 101.55 225.58Q102.09 224.58 102.51 223.53Q103.04 222.10 103.57 220.67Q103.67 220.34 103.76 220.00Q104.27 218.00 104.78 216.00Q105.36 212.99 106.01 210.00Q106.48 206.99 107.07 204.00Q107.94 198.50 108.84 193.00Q109.56 189.51 110.18 186.00Q111.14 182.00 112.12 178.00Q113.32 174.24 114.49 170.47Q115.94 166.85 117.36 163.20Q119.05 160.02 120.65 156.80Q121.65 155.24 122.61 153.67Q123.27 152.85 123.79 151.93Q124.06 151.20 124.54 150.57Q124.61 150.28 124.71 150.00Q124.82 149.62 125.17 149.44Q125.63 149.32 125.90 148.94Q127.24 147.28 128.69 145.71Q128.98 145.03 129.53 144.54Q129.56 144.25 129.70 144.00Q129.80 143.51 130.17 143.17Q130.62 142.62 131.11 142.11Q131.48 141.74 132.00 141.65Q132.27 141.60 132.54 141.54Q135.21 138.71 138.09 136.09Q138.47 135.72 139.00 135.63Q139.27 135.58 139.54 135.54Q140.18 134.67 141.04 134.04Q141.45 133.66 142.00 133.57Q142.27 133.58 142.53 133.53Q143.18 132.67 144.05 132.05Q144.45 131.67 145.00 131.57Q145.27 131.57 145.54 131.53Q145.68 131.17 146.04 131.04Q146.45 130.66 147.00 130.56Q147.27 130.57 147.53 130.53Q147.67 130.17 148.03 130.03Q148.45 129.65 149.00 129.56Q149.27 129.56 149.53 129.52Q150.18 128.67 151.05 128.05Q151.45 127.67 152.00 127.57Q152.27 127.57 152.54 127.53Q152.68 127.17 153.04 127.04Q153.45 126.66 154.00 126.57Q154.27 126.57 154.54 126.53Q154.68 126.17 155.04 126.04Q155.45 125.66 156.00 125.57Q156.76 125.57 157.53 125.53Q157.67 125.16 158.03 125.03Q158.44 124.65 159.00 124.55Q159.77 124.56 160.53 124.52Q160.67 124.16 161.03 124.03Q161.45 123.65 162.00 123.55Q163.26 123.55 164.53 123.52Q164.67 123.16 165.03 123.03Q165.44 122.65 166.00 122.55Q167.26 122.54 168.53 122.52Q168.67 122.16 169.03 122.03Q169.44 121.65 170.00 121.55Q171.27 121.55 172.54 121.52Q172.68 121.17 173.04 121.04Q173.45 120.66 174.00 120.57Q174.78 120.55 175.56 120.52Q175.71 120.17 176.06 120.06Q176.46 119.69 177.00 119.61Q178.77 119.55 180.53 119.53Q180.67 119.17 181.03 119.03Q181.45 118.66 182.00 118.57Q186.76 118.56 191.52 118.52Q191.66 118.16 192.02 118.02Q192.44 117.64 193.00 117.55Q197.58 117.54 202.17 117.51Z" fill="#d19658" transform="scale(1)"/></g><g data-avatar-compiled-surface-layer="primary" clip-path="url(#r5-compiled-owner-2)"><g transform="translate(0 19.48062248633315)"><g><path data-avatar-compiled-surface-marking="coat-rabbit-muzzle-muzzle" data-avatar-surface-decal="coat-rabbit-muzzle-muzzle" data-avatar-surface-decal-renderer="compiled" d="M268.50 236.49C267.99 240.03 268.17 240.95 266.44 244.18C262.51 251.50 254.38 255.76 246.68 257.90C242.91 258.94 238.87 259.57 234.97 259.77C223.40 260.38 211.08 257.59 201.58 250.76C197.75 248.00 194.31 244.51 192.28 240.20C190.66 236.76 190.90 235.97 190.54 232.29C191.05 228.71 190.86 227.85 192.63 224.58C196.58 217.25 204.67 212.96 212.41 210.83C216.21 209.79 220.13 209.21 224.05 209.03C233.93 208.56 244.20 210.42 252.97 215.10C258.66 218.14 264.02 222.59 266.77 228.57C268.35 232.00 268.14 232.83 268.50 236.49Z" fill="#fbe9cd" fill-opacity="1" transform="translate(0 -19.48062248633315) scale(1)"/><g data-avatar-face-surface-layer="primary"><path data-avatar-face-feature="eye-0" d="M 205.317 155.585 L 207.112 155.798 L 208.846 156.340 L 210.452 157.191 L 211.870 158.319 L 213.043 159.679 L 213.928 161.220 L 214.490 162.883 L 214.706 164.604 L 214.793 168.832 L 214.854 173.084 L 214.891 177.359 L 214.903 181.658 L 214.891 185.980 L 214.854 190.325 L 214.793 194.694 L 214.706 199.086 L 214.490 200.875 L 213.928 202.587 L 213.043 204.157 L 211.870 205.522 L 210.452 206.633 L 208.846 207.444 L 207.112 207.925 L 205.317 208.058 L 205.317 208.058 L 205.317 208.058 L 205.317 208.058 L 205.317 208.058 L 205.317 208.058 L 205.317 208.058 L 205.317 208.058 L 205.317 208.058 L 203.531 207.837 L 201.823 207.270 L 200.257 206.380 L 198.895 205.201 L 197.787 203.777 L 196.978 202.164 L 196.497 200.424 L 196.363 198.625 L 196.454 194.229 L 196.518 189.857 L 196.556 185.511 L 196.568 181.188 L 196.556 176.890 L 196.518 172.616 L 196.454 168.367 L 196.363 164.142 L 196.497 162.432 L 196.978 160.797 L 197.787 159.299 L 198.895 157.997 L 200.257 156.939 L 201.823 156.167 L 203.531 155.710 L 205.317 155.585 L 205.317 155.585 L 205.317 155.585 L 205.317 155.585 L 205.317 155.585 L 205.317 155.585 L 205.317 155.585 L 205.317 155.585 Z" fill="#482b1c"/><path data-avatar-face-feature="eye-1" d="M 254.320 158.225 L 256.011 158.537 L 257.645 159.174 L 259.160 160.112 L 260.498 161.316 L 261.607 162.738 L 262.444 164.324 L 262.977 166.014 L 263.186 167.742 L 263.276 171.967 L 263.340 176.216 L 263.378 180.490 L 263.391 184.788 L 263.378 189.111 L 263.340 193.457 L 263.276 197.829 L 263.186 202.225 L 262.977 204.006 L 262.444 205.691 L 261.607 207.215 L 260.498 208.519 L 259.160 209.554 L 257.645 210.278 L 256.011 210.664 L 254.320 210.698 L 254.320 210.698 L 254.320 210.698 L 254.320 210.698 L 254.320 210.698 L 254.320 210.698 L 254.320 210.698 L 254.320 210.698 L 254.320 210.698 L 252.638 210.378 L 251.029 209.717 L 249.556 208.739 L 248.273 207.484 L 247.230 205.998 L 246.468 204.340 L 246.016 202.574 L 245.890 200.766 L 245.977 196.374 L 246.038 192.005 L 246.075 187.660 L 246.087 183.338 L 246.075 179.039 L 246.038 174.764 L 245.977 170.512 L 245.890 166.284 L 246.016 164.582 L 246.468 162.973 L 247.230 161.521 L 248.273 160.280 L 249.556 159.298 L 251.029 158.613 L 252.638 158.251 L 254.320 158.225 L 254.320 158.225 L 254.320 158.225 L 254.320 158.225 L 254.320 158.225 L 254.320 158.225 L 254.320 158.225 L 254.320 158.225 Z" fill="#482b1c"/></g></g></g></g></g></g></g></g></g></g></svg>